# MagicaVoxel @ Ephtracy

# group
g flak38quad

# material
mtllib flak38quad.mtl
usemtl palette

# normals
vn -1 0 0
vn 1 0 0
vn 0 0 1
vn 0 0 -1
vn 0 -1 0
vn 0 1 0

# texcoords
vt 0.982422 0.5
vt 0.986328 0.5
vt 0.990234 0.5
vt 0.994141 0.5

# verts
v -7.5 0 7.5
v -7.5 0 -7.5
v -7.5 2 7.5
v -7.5 2 -7.5
v -6.5 2 3.5
v -6.5 2 -3.5
v -6.5 3 3.5
v -6.5 3 -3.5
v -5.5 2 5.5
v -5.5 2 3.5
v -5.5 2 -3.5
v -5.5 2 -5.5
v -5.5 3 5.5
v -5.5 3 3.5
v -5.5 3 2.5
v -5.5 3 -2.5
v -5.5 3 -3.5
v -5.5 3 -5.5
v -5.5 4 2.5
v -5.5 4 -2.5
v -4.5 3 4.5
v -4.5 3 2.5
v -4.5 3 -2.5
v -4.5 3 -4.5
v -4.5 4 4.5
v -4.5 4 2.5
v -4.5 4 -2.5
v -4.5 4 -4.5
v -3.5 2 6.5
v -3.5 2 5.5
v -3.5 2 -5.5
v -3.5 2 -6.5
v -3.5 3 6.5
v -3.5 3 5.5
v -3.5 3 -5.5
v -3.5 3 -6.5
v -3.5 6 1.5
v -3.5 6 0.5
v -3.5 6 -0.5
v -3.5 6 -1.5
v -3.5 7 1.5
v -3.5 7 0.5
v -3.5 7 -0.5
v -3.5 7 -1.5
v -3.5 8 1.5
v -3.5 8 0.5
v -3.5 8 -0.5
v -3.5 8 -1.5
v -3.5 9 1.5
v -3.5 9 0.5
v -3.5 9 -0.5
v -3.5 9 -1.5
v -2.5 3 5.5
v -2.5 3 4.5
v -2.5 3 -4.5
v -2.5 3 -5.5
v -2.5 4 5.5
v -2.5 4 4.5
v -2.5 4 1.5
v -2.5 4 -1.5
v -2.5 4 -4.5
v -2.5 4 -5.5
v -2.5 5 1.5
v -2.5 5 0.5
v -2.5 5 -0.5
v -2.5 5 -1.5
v -2.5 6 3.5
v -2.5 6 1.5
v -2.5 6 0.5
v -2.5 6 -0.5
v -2.5 6 -1.5
v -2.5 6 -3.5
v -2.5 7 3.5
v -2.5 7 1.5
v -2.5 7 -1.5
v -2.5 7 -3.5
v -2.5 8 3.5
v -2.5 8 1.5
v -2.5 8 -1.5
v -2.5 8 -3.5
v -2.5 9 3.5
v -2.5 9 1.5
v -2.5 9 -1.5
v -2.5 9 -3.5
v -1.5 6 0.5
v -1.5 6 -0.5
v -1.5 7 1.5
v -1.5 7 0.5
v -1.5 7 -0.5
v -1.5 7 -1.5
v -1.5 8 1.5
v -1.5 8 0.5
v -1.5 8 -0.5
v -1.5 8 -1.5
v -0.5 8 0.5
v -0.5 8 -0.5
v -0.5 9 2.5
v -0.5 9 1.5
v -0.5 9 0.5
v -0.5 9 -0.5
v -0.5 9 -1.5
v -0.5 9 -2.5
v -0.5 10 2.5
v -0.5 10 -2.5
v 0.5 5 4.5
v 0.5 5 1.5
v 0.5 5 -1.5
v 0.5 5 -4.5
v 0.5 6 1.5
v 0.5 6 -1.5
v 0.5 7 1.5
v 0.5 7 -1.5
v 0.5 8 1.5
v 0.5 8 -1.5
v 0.5 9 4.5
v 0.5 9 2.5
v 0.5 9 1.5
v 0.5 9 -1.5
v 0.5 9 -2.5
v 0.5 9 -4.5
v 1.5 5 1.5
v 1.5 5 0.5
v 1.5 5 -0.5
v 1.5 5 -1.5
v 1.5 6 1.5
v 1.5 6 0.5
v 1.5 6 -0.5
v 1.5 6 -1.5
v -0.5 6 3.5
v -0.5 6 1.5
v -0.5 6 -1.5
v -0.5 6 -3.5
v -0.5 7 3.5
v -0.5 7 1.5
v -0.5 7 -1.5
v -0.5 7 -3.5
v -0.5 8 3.5
v -0.5 8 1.5
v -0.5 8 -1.5
v -0.5 8 -3.5
v -0.5 9 3.5
v -0.5 9 2.5
v -0.5 9 1.5
v -0.5 9 -1.5
v -0.5 9 -2.5
v -0.5 9 -3.5
v 1.5 4 1.5
v 1.5 4 -1.5
v 1.5 5 4.5
v 1.5 5 2.5
v 1.5 5 1.5
v 1.5 5 -1.5
v 1.5 5 -2.5
v 1.5 5 -4.5
v 1.5 9 4.5
v 1.5 9 2.5
v 1.5 9 -2.5
v 1.5 9 -4.5
v 1.5 10 2.5
v 1.5 10 -2.5
v 2.5 3 5.5
v 2.5 3 4.5
v 2.5 3 -4.5
v 2.5 3 -5.5
v 2.5 4 5.5
v 2.5 4 4.5
v 2.5 4 -4.5
v 2.5 4 -5.5
v 2.5 5 2.5
v 2.5 5 -2.5
v 2.5 6 1.5
v 2.5 6 0.5
v 2.5 6 -0.5
v 2.5 6 -1.5
v 2.5 7 1.5
v 2.5 7 0.5
v 2.5 7 -0.5
v 2.5 7 -1.5
v 2.5 8 1.5
v 2.5 8 0.5
v 2.5 8 -0.5
v 2.5 8 -1.5
v 2.5 9 2.5
v 2.5 9 1.5
v 2.5 9 0.5
v 2.5 9 -0.5
v 2.5 9 -1.5
v 2.5 9 -2.5
v 3.5 2 6.5
v 3.5 2 5.5
v 3.5 2 -5.5
v 3.5 2 -6.5
v 3.5 3 6.5
v 3.5 3 5.5
v 3.5 3 -5.5
v 3.5 3 -6.5
v 4.5 3 4.5
v 4.5 3 2.5
v 4.5 3 -2.5
v 4.5 3 -4.5
v 4.5 4 4.5
v 4.5 4 2.5
v 4.5 4 -2.5
v 4.5 4 -4.5
v 5.5 2 5.5
v 5.5 2 3.5
v 5.5 2 -3.5
v 5.5 2 -5.5
v 5.5 3 5.5
v 5.5 3 3.5
v 5.5 3 2.5
v 5.5 3 -2.5
v 5.5 3 -3.5
v 5.5 3 -5.5
v 5.5 4 2.5
v 5.5 4 -2.5
v 6.5 2 3.5
v 6.5 2 -3.5
v 6.5 3 3.5
v 6.5 3 -3.5
v 7.5 0 7.5
v 7.5 0 -7.5
v 7.5 2 7.5
v 7.5 2 -7.5
v 7.5 6 1.5
v 7.5 6 0.5
v 7.5 6 -0.5
v 7.5 6 -1.5
v 7.5 7 1.5
v 7.5 7 0.5
v 7.5 7 -0.5
v 7.5 7 -1.5
v 7.5 8 1.5
v 7.5 8 0.5
v 7.5 8 -0.5
v 7.5 8 -1.5
v 7.5 9 1.5
v 7.5 9 0.5
v 7.5 9 -0.5
v 7.5 9 -1.5
v -7.5 0 7.5
v -7.5 2 7.5
v 7.5 0 7.5
v 7.5 2 7.5
v -3.5 2 6.5
v -3.5 3 6.5
v 3.5 2 6.5
v 3.5 3 6.5
v -5.5 2 5.5
v -5.5 3 5.5
v -3.5 2 5.5
v -3.5 3 5.5
v -2.5 3 5.5
v -2.5 4 5.5
v 2.5 3 5.5
v 2.5 4 5.5
v 3.5 2 5.5
v 3.5 3 5.5
v 5.5 2 5.5
v 5.5 3 5.5
v -4.5 3 4.5
v -4.5 4 4.5
v -2.5 3 4.5
v -2.5 4 4.5
v 0.5 5 4.5
v 0.5 9 4.5
v 1.5 5 4.5
v 1.5 9 4.5
v 2.5 3 4.5
v 2.5 4 4.5
v 4.5 3 4.5
v 4.5 4 4.5
v -6.5 2 3.5
v -6.5 3 3.5
v -5.5 2 3.5
v -5.5 3 3.5
v -2.5 6 3.5
v -2.5 7 3.5
v -2.5 8 3.5
v -2.5 9 3.5
v -0.5 6 3.5
v -0.5 7 3.5
v -0.5 8 3.5
v -0.5 9 3.5
v 5.5 2 3.5
v 5.5 3 3.5
v 6.5 2 3.5
v 6.5 3 3.5
v -5.5 3 2.5
v -5.5 4 2.5
v -4.5 3 2.5
v -4.5 4 2.5
v -0.5 9 2.5
v -0.5 10 2.5
v 0.5 9 2.5
v 1.5 5 2.5
v 1.5 9 2.5
v 1.5 10 2.5
v 2.5 5 2.5
v 2.5 9 2.5
v 4.5 3 2.5
v 4.5 4 2.5
v 5.5 3 2.5
v 5.5 4 2.5
v -3.5 6 1.5
v -3.5 7 1.5
v -3.5 8 1.5
v -3.5 9 1.5
v -2.5 4 1.5
v -2.5 5 1.5
v -2.5 6 1.5
v -2.5 7 1.5
v -2.5 8 1.5
v -2.5 9 1.5
v -1.5 7 1.5
v -1.5 8 1.5
v -0.5 6 1.5
v -0.5 7 1.5
v -0.5 8 1.5
v -0.5 9 1.5
v 0.5 5 1.5
v 0.5 6 1.5
v 0.5 7 1.5
v 0.5 8 1.5
v 0.5 9 1.5
v 1.5 4 1.5
v 1.5 5 1.5
v 2.5 6 1.5
v 2.5 7 1.5
v 2.5 8 1.5
v 2.5 9 1.5
v 7.5 6 1.5
v 7.5 7 1.5
v 7.5 8 1.5
v 7.5 9 1.5
v -2.5 5 0.5
v -2.5 6 0.5
v 1.5 5 0.5
v 1.5 6 0.5
v -3.5 6 -0.5
v -3.5 7 -0.5
v -3.5 8 -0.5
v -3.5 9 -0.5
v -2.5 6 -0.5
v -1.5 6 -0.5
v -1.5 7 -0.5
v -1.5 8 -0.5
v -0.5 8 -0.5
v -0.5 9 -0.5
v 2.5 6 -0.5
v 2.5 7 -0.5
v 2.5 8 -0.5
v 2.5 9 -0.5
v 7.5 6 -0.5
v 7.5 7 -0.5
v 7.5 8 -0.5
v 7.5 9 -0.5
v 0.5 5 -1.5
v 0.5 6 -1.5
v 1.5 5 -1.5
v 1.5 6 -1.5
v 0.5 5 1.5
v 0.5 6 1.5
v 1.5 5 1.5
v 1.5 6 1.5
v -3.5 6 0.5
v -3.5 7 0.5
v -3.5 8 0.5
v -3.5 9 0.5
v -2.5 6 0.5
v -1.5 6 0.5
v -1.5 7 0.5
v -1.5 8 0.5
v -0.5 8 0.5
v -0.5 9 0.5
v 2.5 6 0.5
v 2.5 7 0.5
v 2.5 8 0.5
v 2.5 9 0.5
v 7.5 6 0.5
v 7.5 7 0.5
v 7.5 8 0.5
v 7.5 9 0.5
v -2.5 5 -0.5
v -2.5 6 -0.5
v 1.5 5 -0.5
v 1.5 6 -0.5
v -3.5 6 -1.5
v -3.5 7 -1.5
v -3.5 8 -1.5
v -3.5 9 -1.5
v -2.5 4 -1.5
v -2.5 5 -1.5
v -2.5 6 -1.5
v -2.5 7 -1.5
v -2.5 8 -1.5
v -2.5 9 -1.5
v -1.5 7 -1.5
v -1.5 8 -1.5
v -0.5 6 -1.5
v -0.5 7 -1.5
v -0.5 8 -1.5
v -0.5 9 -1.5
v 0.5 5 -1.5
v 0.5 6 -1.5
v 0.5 7 -1.5
v 0.5 8 -1.5
v 0.5 9 -1.5
v 1.5 4 -1.5
v 1.5 5 -1.5
v 2.5 6 -1.5
v 2.5 7 -1.5
v 2.5 8 -1.5
v 2.5 9 -1.5
v 7.5 6 -1.5
v 7.5 7 -1.5
v 7.5 8 -1.5
v 7.5 9 -1.5
v -5.5 3 -2.5
v -5.5 4 -2.5
v -4.5 3 -2.5
v -4.5 4 -2.5
v -0.5 9 -2.5
v -0.5 10 -2.5
v 0.5 9 -2.5
v 1.5 5 -2.5
v 1.5 9 -2.5
v 1.5 10 -2.5
v 2.5 5 -2.5
v 2.5 9 -2.5
v 4.5 3 -2.5
v 4.5 4 -2.5
v 5.5 3 -2.5
v 5.5 4 -2.5
v -6.5 2 -3.5
v -6.5 3 -3.5
v -5.5 2 -3.5
v -5.5 3 -3.5
v -2.5 6 -3.5
v -2.5 7 -3.5
v -2.5 8 -3.5
v -2.5 9 -3.5
v -0.5 6 -3.5
v -0.5 7 -3.5
v -0.5 8 -3.5
v -0.5 9 -3.5
v 5.5 2 -3.5
v 5.5 3 -3.5
v 6.5 2 -3.5
v 6.5 3 -3.5
v -4.5 3 -4.5
v -4.5 4 -4.5
v -2.5 3 -4.5
v -2.5 4 -4.5
v 0.5 5 -4.5
v 0.5 9 -4.5
v 1.5 5 -4.5
v 1.5 9 -4.5
v 2.5 3 -4.5
v 2.5 4 -4.5
v 4.5 3 -4.5
v 4.5 4 -4.5
v -5.5 2 -5.5
v -5.5 3 -5.5
v -3.5 2 -5.5
v -3.5 3 -5.5
v -2.5 3 -5.5
v -2.5 4 -5.5
v 2.5 3 -5.5
v 2.5 4 -5.5
v 3.5 2 -5.5
v 3.5 3 -5.5
v 5.5 2 -5.5
v 5.5 3 -5.5
v -3.5 2 -6.5
v -3.5 3 -6.5
v 3.5 2 -6.5
v 3.5 3 -6.5
v -7.5 0 -7.5
v -7.5 2 -7.5
v 7.5 0 -7.5
v 7.5 2 -7.5
v -7.5 0 7.5
v 7.5 0 7.5
v -7.5 0 -7.5
v 7.5 0 -7.5
v 0.5 5 4.5
v 1.5 5 4.5
v 1.5 5 2.5
v 2.5 5 2.5
v 0.5 5 1.5
v 1.5 5 1.5
v 0.5 5 -1.5
v 1.5 5 -1.5
v 1.5 5 -2.5
v 2.5 5 -2.5
v 0.5 5 -4.5
v 1.5 5 -4.5
v -2.5 6 3.5
v -0.5 6 3.5
v -3.5 6 1.5
v -2.5 6 1.5
v -0.5 6 1.5
v 0.5 6 1.5
v 1.5 6 1.5
v 2.5 6 1.5
v 7.5 6 1.5
v -3.5 6 0.5
v -2.5 6 0.5
v 1.5 6 0.5
v 2.5 6 0.5
v 7.5 6 0.5
v -3.5 6 -0.5
v -2.5 6 -0.5
v 1.5 6 -0.5
v 2.5 6 -0.5
v 7.5 6 -0.5
v -3.5 6 -1.5
v -2.5 6 -1.5
v -0.5 6 -1.5
v 0.5 6 -1.5
v 1.5 6 -1.5
v 2.5 6 -1.5
v 7.5 6 -1.5
v -2.5 6 -3.5
v -0.5 6 -3.5
v -2.5 8 3.5
v -0.5 8 3.5
v -3.5 8 1.5
v -2.5 8 1.5
v -1.5 8 1.5
v -0.5 8 1.5
v 2.5 8 1.5
v 7.5 8 1.5
v -3.5 8 0.5
v -1.5 8 0.5
v 2.5 8 0.5
v 7.5 8 0.5
v -3.5 8 -0.5
v -1.5 8 -0.5
v 2.5 8 -0.5
v 7.5 8 -0.5
v -3.5 8 -1.5
v -2.5 8 -1.5
v -1.5 8 -1.5
v -0.5 8 -1.5
v 2.5 8 -1.5
v 7.5 8 -1.5
v -2.5 8 -3.5
v -0.5 8 -3.5
v -0.5 9 2.5
v 0.5 9 2.5
v -0.5 9 1.5
v 0.5 9 1.5
v -0.5 9 -1.5
v 0.5 9 -1.5
v -0.5 9 -2.5
v 0.5 9 -2.5
v -7.5 2 7.5
v 7.5 2 7.5
v -3.5 2 6.5
v 3.5 2 6.5
v -5.5 2 5.5
v -3.5 2 5.5
v 3.5 2 5.5
v 5.5 2 5.5
v -6.5 2 3.5
v -5.5 2 3.5
v 5.5 2 3.5
v 6.5 2 3.5
v -6.5 2 -3.5
v -5.5 2 -3.5
v 5.5 2 -3.5
v 6.5 2 -3.5
v -5.5 2 -5.5
v -3.5 2 -5.5
v 3.5 2 -5.5
v 5.5 2 -5.5
v -3.5 2 -6.5
v 3.5 2 -6.5
v -7.5 2 -7.5
v 7.5 2 -7.5
v -3.5 3 6.5
v 3.5 3 6.5
v -5.5 3 5.5
v -3.5 3 5.5
v -2.5 3 5.5
v 2.5 3 5.5
v 3.5 3 5.5
v 5.5 3 5.5
v -4.5 3 4.5
v -2.5 3 4.5
v 2.5 3 4.5
v 4.5 3 4.5
v -6.5 3 3.5
v -5.5 3 3.5
v 5.5 3 3.5
v 6.5 3 3.5
v -5.5 3 2.5
v -4.5 3 2.5
v 4.5 3 2.5
v 5.5 3 2.5
v -5.5 3 -2.5
v -4.5 3 -2.5
v 4.5 3 -2.5
v 5.5 3 -2.5
v -6.5 3 -3.5
v -5.5 3 -3.5
v 5.5 3 -3.5
v 6.5 3 -3.5
v -4.5 3 -4.5
v -2.5 3 -4.5
v 2.5 3 -4.5
v 4.5 3 -4.5
v -5.5 3 -5.5
v -3.5 3 -5.5
v -2.5 3 -5.5
v 2.5 3 -5.5
v 3.5 3 -5.5
v 5.5 3 -5.5
v -3.5 3 -6.5
v 3.5 3 -6.5
v -2.5 4 5.5
v 2.5 4 5.5
v -4.5 4 4.5
v -2.5 4 4.5
v 2.5 4 4.5
v 4.5 4 4.5
v -5.5 4 2.5
v -4.5 4 2.5
v 4.5 4 2.5
v 5.5 4 2.5
v -2.5 4 1.5
v 1.5 4 1.5
v -2.5 4 -1.5
v 1.5 4 -1.5
v -5.5 4 -2.5
v -4.5 4 -2.5
v 4.5 4 -2.5
v 5.5 4 -2.5
v -4.5 4 -4.5
v -2.5 4 -4.5
v 2.5 4 -4.5
v 4.5 4 -4.5
v -2.5 4 -5.5
v 2.5 4 -5.5
v -2.5 5 1.5
v 0.5 5 1.5
v 1.5 5 1.5
v -2.5 5 0.5
v 1.5 5 0.5
v -2.5 5 -0.5
v 1.5 5 -0.5
v -2.5 5 -1.5
v 0.5 5 -1.5
v 1.5 5 -1.5
v -2.5 6 0.5
v -1.5 6 0.5
v -2.5 6 -0.5
v -1.5 6 -0.5
v -2.5 7 3.5
v -0.5 7 3.5
v -3.5 7 1.5
v -2.5 7 1.5
v -1.5 7 1.5
v -0.5 7 1.5
v 2.5 7 1.5
v 7.5 7 1.5
v -3.5 7 0.5
v -1.5 7 0.5
v 2.5 7 0.5
v 7.5 7 0.5
v -3.5 7 -0.5
v -1.5 7 -0.5
v 2.5 7 -0.5
v 7.5 7 -0.5
v -3.5 7 -1.5
v -2.5 7 -1.5
v -1.5 7 -1.5
v -0.5 7 -1.5
v 2.5 7 -1.5
v 7.5 7 -1.5
v -2.5 7 -3.5
v -0.5 7 -3.5
v -1.5 8 0.5
v -0.5 8 0.5
v -1.5 8 -0.5
v -0.5 8 -0.5
v 0.5 9 4.5
v 1.5 9 4.5
v -2.5 9 3.5
v -0.5 9 3.5
v -0.5 9 2.5
v 0.5 9 2.5
v 1.5 9 2.5
v 2.5 9 2.5
v -3.5 9 1.5
v -2.5 9 1.5
v -0.5 9 1.5
v 2.5 9 1.5
v 7.5 9 1.5
v -3.5 9 0.5
v -0.5 9 0.5
v 2.5 9 0.5
v 7.5 9 0.5
v -3.5 9 -0.5
v -0.5 9 -0.5
v 2.5 9 -0.5
v 7.5 9 -0.5
v -3.5 9 -1.5
v -2.5 9 -1.5
v -0.5 9 -1.5
v 2.5 9 -1.5
v 7.5 9 -1.5
v -0.5 9 -2.5
v 0.5 9 -2.5
v 1.5 9 -2.5
v 2.5 9 -2.5
v -2.5 9 -3.5
v -0.5 9 -3.5
v 0.5 9 -4.5
v 1.5 9 -4.5
v -0.5 10 2.5
v 1.5 10 2.5
v -0.5 10 -2.5
v 1.5 10 -2.5

# faces
f 3/2/1 2/2/1 1/2/1
f 4/2/1 2/2/1 3/2/1
f 7/2/1 6/2/1 5/2/1
f 8/2/1 6/2/1 7/2/1
f 13/2/1 10/2/1 9/2/1
f 14/2/1 10/2/1 13/2/1
f 17/2/1 12/2/1 11/2/1
f 18/2/1 12/2/1 17/2/1
f 19/2/1 16/2/1 15/2/1
f 20/2/1 16/2/1 19/2/1
f 25/2/1 22/2/1 21/2/1
f 26/2/1 22/2/1 25/2/1
f 27/2/1 24/2/1 23/2/1
f 28/2/1 24/2/1 27/2/1
f 33/2/1 30/2/1 29/2/1
f 34/2/1 30/2/1 33/2/1
f 35/2/1 32/2/1 31/2/1
f 36/2/1 32/2/1 35/2/1
f 41/4/1 38/4/1 37/4/1
f 42/4/1 38/4/1 41/4/1
f 43/4/1 40/4/1 39/4/1
f 44/4/1 40/4/1 43/4/1
f 49/4/1 46/4/1 45/4/1
f 50/4/1 46/4/1 49/4/1
f 51/4/1 48/4/1 47/4/1
f 52/4/1 48/4/1 51/4/1
f 57/2/1 54/2/1 53/2/1
f 58/2/1 54/2/1 57/2/1
f 61/2/1 56/2/1 55/2/1
f 62/2/1 56/2/1 61/2/1
f 63/3/1 60/3/1 59/3/1
f 64/3/1 60/3/1 63/3/1
f 65/3/1 60/3/1 64/3/1
f 66/3/1 60/3/1 65/3/1
f 69/3/1 65/3/1 64/3/1
f 70/3/1 65/3/1 69/3/1
f 73/1/1 68/1/1 67/1/1
f 74/1/1 68/1/1 73/1/1
f 75/1/1 72/1/1 71/1/1
f 76/1/1 72/1/1 75/1/1
f 81/1/1 78/1/1 77/1/1
f 82/1/1 78/1/1 81/1/1
f 83/1/1 80/1/1 79/1/1
f 84/1/1 80/1/1 83/1/1
f 88/3/1 86/3/1 85/3/1
f 89/3/1 86/3/1 88/3/1
f 91/3/1 88/3/1 87/3/1
f 91/3/1 90/3/1 89/3/1
f 91/3/1 89/3/1 88/3/1
f 92/3/1 90/3/1 91/3/1
f 93/3/1 90/3/1 92/3/1
f 94/3/1 90/3/1 93/3/1
f 99/3/1 96/3/1 95/3/1
f 100/3/1 96/3/1 99/3/1
f 103/4/1 98/4/1 97/4/1
f 103/4/1 102/4/1 101/4/1
f 103/4/1 101/4/1 100/4/1
f 103/4/1 100/4/1 99/4/1
f 103/4/1 99/4/1 98/4/1
f 104/4/1 102/4/1 103/4/1
f 109/4/1 106/4/1 105/4/1
f 110/4/1 108/4/1 107/4/1
f 111/4/1 109/4/1 105/4/1
f 112/4/1 108/4/1 110/4/1
f 113/4/1 111/4/1 105/4/1
f 114/4/1 108/4/1 112/4/1
f 115/4/1 113/4/1 105/4/1
f 116/4/1 113/4/1 115/4/1
f 117/4/1 113/4/1 116/4/1
f 118/4/1 108/4/1 114/4/1
f 119/4/1 108/4/1 118/4/1
f 120/4/1 108/4/1 119/4/1
f 125/4/1 122/4/1 121/4/1
f 126/4/1 122/4/1 125/4/1
f 127/4/1 124/4/1 123/4/1
f 128/4/1 124/4/1 127/4/1
f 129/1/2 130/1/2 133/1/2
f 133/1/2 130/1/2 134/1/2
f 131/1/2 132/1/2 135/1/2
f 135/1/2 132/1/2 136/1/2
f 137/1/2 138/1/2 141/1/2
f 141/1/2 138/1/2 142/1/2
f 142/1/2 138/1/2 143/1/2
f 139/1/2 140/1/2 144/1/2
f 144/1/2 140/1/2 145/1/2
f 145/1/2 140/1/2 146/1/2
f 147/3/2 148/3/2 151/3/2
f 151/3/2 148/3/2 152/3/2
f 149/4/2 150/4/2 155/4/2
f 155/4/2 150/4/2 156/4/2
f 153/4/2 154/4/2 157/4/2
f 157/4/2 154/4/2 158/4/2
f 156/4/2 157/4/2 159/4/2
f 159/4/2 157/4/2 160/4/2
f 161/2/2 162/2/2 165/2/2
f 165/2/2 162/2/2 166/2/2
f 163/2/2 164/2/2 167/2/2
f 167/2/2 164/2/2 168/2/2
f 169/4/2 170/4/2 171/4/2
f 171/4/2 170/4/2 172/4/2
f 172/4/2 170/4/2 173/4/2
f 173/4/2 170/4/2 174/4/2
f 169/4/2 171/4/2 175/4/2
f 172/4/2 173/4/2 176/4/2
f 176/4/2 173/4/2 177/4/2
f 174/4/2 170/4/2 178/4/2
f 176/4/2 177/4/2 179/4/2
f 177/4/2 178/4/2 179/4/2
f 169/4/2 175/4/2 179/4/2
f 175/4/2 176/4/2 179/4/2
f 179/4/2 178/4/2 180/4/2
f 180/4/2 178/4/2 181/4/2
f 178/4/2 170/4/2 182/4/2
f 181/4/2 178/4/2 182/4/2
f 169/4/2 179/4/2 183/4/2
f 183/4/2 179/4/2 184/4/2
f 180/4/2 181/4/2 185/4/2
f 185/4/2 181/4/2 186/4/2
f 182/4/2 170/4/2 187/4/2
f 187/4/2 170/4/2 188/4/2
f 189/2/2 190/2/2 193/2/2
f 193/2/2 190/2/2 194/2/2
f 191/2/2 192/2/2 195/2/2
f 195/2/2 192/2/2 196/2/2
f 197/2/2 198/2/2 201/2/2
f 201/2/2 198/2/2 202/2/2
f 199/2/2 200/2/2 203/2/2
f 203/2/2 200/2/2 204/2/2
f 205/2/2 206/2/2 209/2/2
f 209/2/2 206/2/2 210/2/2
f 207/2/2 208/2/2 213/2/2
f 213/2/2 208/2/2 214/2/2
f 211/2/2 212/2/2 215/2/2
f 215/2/2 212/2/2 216/2/2
f 217/2/2 218/2/2 219/2/2
f 219/2/2 218/2/2 220/2/2
f 221/2/2 222/2/2 223/2/2
f 223/2/2 222/2/2 224/2/2
f 225/4/2 226/4/2 229/4/2
f 229/4/2 226/4/2 230/4/2
f 227/4/2 228/4/2 231/4/2
f 231/4/2 228/4/2 232/4/2
f 233/4/2 234/4/2 237/4/2
f 237/4/2 234/4/2 238/4/2
f 235/4/2 236/4/2 239/4/2
f 239/4/2 236/4/2 240/4/2
f 243/2/3 242/2/3 241/2/3
f 244/2/3 242/2/3 243/2/3
f 247/2/3 246/2/3 245/2/3
f 248/2/3 246/2/3 247/2/3
f 251/2/3 250/2/3 249/2/3
f 252/2/3 250/2/3 251/2/3
f 255/2/3 254/2/3 253/2/3
f 256/2/3 254/2/3 255/2/3
f 259/2/3 258/2/3 257/2/3
f 260/2/3 258/2/3 259/2/3
f 263/2/3 262/2/3 261/2/3
f 264/2/3 262/2/3 263/2/3
f 267/4/3 266/4/3 265/4/3
f 268/4/3 266/4/3 267/4/3
f 271/2/3 270/2/3 269/2/3
f 272/2/3 270/2/3 271/2/3
f 275/2/3 274/2/3 273/2/3
f 276/2/3 274/2/3 275/2/3
f 281/1/3 278/1/3 277/1/3
f 282/1/3 278/1/3 281/1/3
f 283/1/3 280/1/3 279/1/3
f 284/1/3 280/1/3 283/1/3
f 287/2/3 286/2/3 285/2/3
f 288/2/3 286/2/3 287/2/3
f 291/2/3 290/2/3 289/2/3
f 292/2/3 290/2/3 291/2/3
f 295/4/3 294/4/3 293/4/3
f 297/4/3 294/4/3 295/4/3
f 298/4/3 294/4/3 297/4/3
f 299/4/3 297/4/3 296/4/3
f 300/4/3 297/4/3 299/4/3
f 303/2/3 302/2/3 301/2/3
f 304/2/3 302/2/3 303/2/3
f 311/4/3 306/4/3 305/4/3
f 312/4/3 306/4/3 311/4/3
f 313/4/3 308/4/3 307/4/3
f 314/4/3 308/4/3 313/4/3
f 318/3/3 316/3/3 315/3/3
f 319/3/3 316/3/3 318/3/3
f 321/3/3 310/3/3 309/3/3
f 322/4/3 318/4/3 317/4/3
f 323/3/3 319/3/3 318/3/3
f 323/4/3 318/4/3 322/4/3
f 324/4/3 320/4/3 319/4/3
f 324/3/3 319/3/3 323/3/3
f 325/4/3 320/4/3 324/4/3
f 326/3/3 321/3/3 309/3/3
f 327/3/3 321/3/3 326/3/3
f 332/4/3 329/4/3 328/4/3
f 333/4/3 329/4/3 332/4/3
f 334/4/3 331/4/3 330/4/3
f 335/4/3 331/4/3 334/4/3
f 338/3/3 337/3/3 336/3/3
f 339/3/3 337/3/3 338/3/3
f 344/4/3 341/4/3 340/4/3
f 345/4/3 341/4/3 344/4/3
f 346/4/3 341/4/3 345/4/3
f 347/4/3 343/4/3 342/4/3
f 348/4/3 343/4/3 347/4/3
f 349/4/3 343/4/3 348/4/3
f 354/4/3 351/4/3 350/4/3
f 355/4/3 351/4/3 354/4/3
f 356/4/3 353/4/3 352/4/3
f 357/4/3 353/4/3 356/4/3
f 360/4/3 359/4/3 358/4/3
f 361/4/3 359/4/3 360/4/3
f 362/4/4 363/4/4 364/4/4
f 364/4/4 363/4/4 365/4/4
f 366/4/4 367/4/4 370/4/4
f 370/4/4 367/4/4 371/4/4
f 371/4/4 367/4/4 372/4/4
f 368/4/4 369/4/4 373/4/4
f 373/4/4 369/4/4 374/4/4
f 374/4/4 369/4/4 375/4/4
f 376/4/4 377/4/4 380/4/4
f 380/4/4 377/4/4 381/4/4
f 378/4/4 379/4/4 382/4/4
f 382/4/4 379/4/4 383/4/4
f 384/3/4 385/3/4 386/3/4
f 386/3/4 385/3/4 387/3/4
f 388/4/4 389/4/4 394/4/4
f 394/4/4 389/4/4 395/4/4
f 390/4/4 391/4/4 396/4/4
f 396/4/4 391/4/4 397/4/4
f 398/3/4 399/3/4 401/3/4
f 401/3/4 399/3/4 402/3/4
f 392/3/4 393/3/4 404/3/4
f 400/4/4 401/4/4 405/4/4
f 401/3/4 402/3/4 406/3/4
f 405/4/4 401/4/4 406/4/4
f 402/4/4 403/4/4 407/4/4
f 406/3/4 402/3/4 407/3/4
f 407/4/4 403/4/4 408/4/4
f 392/3/4 404/3/4 409/3/4
f 409/3/4 404/3/4 410/3/4
f 411/4/4 412/4/4 415/4/4
f 415/4/4 412/4/4 416/4/4
f 413/4/4 414/4/4 417/4/4
f 417/4/4 414/4/4 418/4/4
f 419/2/4 420/2/4 421/2/4
f 421/2/4 420/2/4 422/2/4
f 423/4/4 424/4/4 425/4/4
f 425/4/4 424/4/4 427/4/4
f 427/4/4 424/4/4 428/4/4
f 426/4/4 427/4/4 429/4/4
f 429/4/4 427/4/4 430/4/4
f 431/2/4 432/2/4 433/2/4
f 433/2/4 432/2/4 434/2/4
f 435/2/4 436/2/4 437/2/4
f 437/2/4 436/2/4 438/2/4
f 439/1/4 440/1/4 443/1/4
f 443/1/4 440/1/4 444/1/4
f 441/1/4 442/1/4 445/1/4
f 445/1/4 442/1/4 446/1/4
f 447/2/4 448/2/4 449/2/4
f 449/2/4 448/2/4 450/2/4
f 451/2/4 452/2/4 453/2/4
f 453/2/4 452/2/4 454/2/4
f 455/4/4 456/4/4 457/4/4
f 457/4/4 456/4/4 458/4/4
f 459/2/4 460/2/4 461/2/4
f 461/2/4 460/2/4 462/2/4
f 463/2/4 464/2/4 465/2/4
f 465/2/4 464/2/4 466/2/4
f 467/2/4 468/2/4 469/2/4
f 469/2/4 468/2/4 470/2/4
f 471/2/4 472/2/4 473/2/4
f 473/2/4 472/2/4 474/2/4
f 475/2/4 476/2/4 477/2/4
f 477/2/4 476/2/4 478/2/4
f 479/2/4 480/2/4 481/2/4
f 481/2/4 480/2/4 482/2/4
f 485/2/5 484/2/5 483/2/5
f 486/2/5 484/2/5 485/2/5
f 489/4/5 488/4/5 487/4/5
f 491/4/5 489/4/5 487/4/5
f 491/4/5 490/4/5 489/4/5
f 492/4/5 490/4/5 491/4/5
f 494/4/5 490/4/5 492/4/5
f 495/4/5 490/4/5 494/4/5
f 495/4/5 494/4/5 493/4/5
f 496/4/5 490/4/5 495/4/5
f 497/4/5 495/4/5 493/4/5
f 498/4/5 495/4/5 497/4/5
f 502/1/5 500/1/5 499/1/5
f 503/1/5 500/1/5 502/1/5
f 508/4/5 502/4/5 501/4/5
f 508/4/5 503/4/5 502/4/5
f 508/4/5 505/4/5 504/4/5
f 508/4/5 504/4/5 503/4/5
f 509/4/5 505/4/5 508/4/5
f 510/4/5 505/4/5 509/4/5
f 511/4/5 507/4/5 506/4/5
f 512/4/5 507/4/5 511/4/5
f 518/4/5 514/4/5 513/4/5
f 518/4/5 515/4/5 514/4/5
f 519/4/5 515/4/5 518/4/5
f 520/4/5 515/4/5 519/4/5
f 521/4/5 515/4/5 520/4/5
f 522/4/5 515/4/5 521/4/5
f 523/4/5 517/4/5 516/4/5
f 524/4/5 517/4/5 523/4/5
f 525/1/5 520/1/5 519/1/5
f 526/1/5 520/1/5 525/1/5
f 530/1/5 528/1/5 527/1/5
f 531/1/5 528/1/5 530/1/5
f 532/1/5 528/1/5 531/1/5
f 535/4/5 530/4/5 529/4/5
f 535/4/5 531/4/5 530/4/5
f 536/4/5 531/4/5 535/4/5
f 537/4/5 534/4/5 533/4/5
f 538/4/5 534/4/5 537/4/5
f 543/4/5 540/4/5 539/4/5
f 544/4/5 540/4/5 543/4/5
f 545/4/5 540/4/5 544/4/5
f 547/4/5 542/4/5 541/4/5
f 548/4/5 542/4/5 547/4/5
f 549/1/5 546/1/5 545/1/5
f 549/1/5 545/1/5 544/1/5
f 550/1/5 546/1/5 549/1/5
f 553/4/5 552/4/5 551/4/5
f 554/4/5 552/4/5 553/4/5
f 557/4/5 556/4/5 555/4/5
f 558/4/5 556/4/5 557/4/5
f 559/2/6 560/2/6 561/2/6
f 561/2/6 560/2/6 562/2/6
f 559/2/6 561/2/6 563/2/6
f 563/2/6 561/2/6 564/2/6
f 562/2/6 560/2/6 565/2/6
f 565/2/6 560/2/6 566/2/6
f 559/2/6 563/2/6 567/2/6
f 567/2/6 563/2/6 568/2/6
f 566/2/6 560/2/6 569/2/6
f 569/2/6 560/2/6 570/2/6
f 559/2/6 567/2/6 571/2/6
f 570/2/6 560/2/6 574/2/6
f 571/2/6 572/2/6 575/2/6
f 573/2/6 574/2/6 578/2/6
f 575/2/6 576/2/6 579/2/6
f 577/2/6 578/2/6 580/2/6
f 575/2/6 579/2/6 581/2/6
f 579/2/6 580/2/6 581/2/6
f 559/2/6 571/2/6 581/2/6
f 571/2/6 575/2/6 581/2/6
f 580/2/6 578/2/6 582/2/6
f 581/2/6 580/2/6 582/2/6
f 574/2/6 560/2/6 582/2/6
f 578/2/6 574/2/6 582/2/6
f 583/2/6 584/2/6 586/2/6
f 586/2/6 584/2/6 587/2/6
f 587/2/6 584/2/6 588/2/6
f 588/2/6 584/2/6 589/2/6
f 585/2/6 586/2/6 591/2/6
f 586/2/6 587/2/6 591/2/6
f 591/2/6 587/2/6 592/2/6
f 589/2/6 590/2/6 593/2/6
f 588/2/6 589/2/6 593/2/6
f 593/2/6 590/2/6 594/2/6
f 585/2/6 591/2/6 596/2/6
f 594/2/6 590/2/6 597/2/6
f 595/2/6 596/2/6 599/2/6
f 596/2/6 591/2/6 599/2/6
f 599/2/6 591/2/6 600/2/6
f 597/2/6 598/2/6 601/2/6
f 594/2/6 597/2/6 601/2/6
f 601/2/6 598/2/6 602/2/6
f 595/2/6 599/2/6 603/2/6
f 602/2/6 598/2/6 606/2/6
f 603/2/6 604/2/6 607/2/6
f 595/2/6 603/2/6 607/2/6
f 607/2/6 604/2/6 608/2/6
f 605/2/6 606/2/6 609/2/6
f 606/2/6 598/2/6 609/2/6
f 609/2/6 598/2/6 610/2/6
f 608/2/6 604/2/6 611/2/6
f 605/2/6 609/2/6 614/2/6
f 611/2/6 612/2/6 615/2/6
f 608/2/6 611/2/6 615/2/6
f 615/2/6 612/2/6 616/2/6
f 616/2/6 612/2/6 617/2/6
f 613/2/6 614/2/6 618/2/6
f 618/2/6 614/2/6 619/2/6
f 614/2/6 609/2/6 620/2/6
f 619/2/6 614/2/6 620/2/6
f 616/2/6 617/2/6 621/2/6
f 618/2/6 619/2/6 621/2/6
f 617/2/6 618/2/6 621/2/6
f 621/2/6 619/2/6 622/2/6
f 623/2/6 624/2/6 626/2/6
f 626/2/6 624/2/6 627/2/6
f 625/2/6 626/2/6 630/2/6
f 627/2/6 628/2/6 630/2/6
f 626/2/6 627/2/6 630/2/6
f 630/2/6 628/2/6 631/2/6
f 629/2/6 630/2/6 633/2/6
f 631/2/6 632/2/6 633/2/6
f 630/2/6 631/2/6 633/2/6
f 633/2/6 632/2/6 634/2/6
f 629/2/6 633/2/6 635/2/6
f 634/2/6 632/2/6 636/2/6
f 629/2/6 635/2/6 637/2/6
f 635/2/6 636/2/6 637/2/6
f 637/2/6 636/2/6 638/2/6
f 636/2/6 632/2/6 639/2/6
f 638/2/6 636/2/6 639/2/6
f 639/2/6 632/2/6 640/2/6
f 638/2/6 639/2/6 641/2/6
f 641/2/6 639/2/6 642/2/6
f 642/2/6 639/2/6 643/2/6
f 643/2/6 639/2/6 644/2/6
f 642/2/6 643/2/6 645/2/6
f 645/2/6 643/2/6 646/2/6
f 647/3/6 648/3/6 650/3/6
f 648/3/6 649/3/6 650/3/6
f 650/3/6 649/3/6 651/3/6
f 652/3/6 653/3/6 654/3/6
f 654/3/6 653/3/6 655/3/6
f 655/3/6 653/3/6 656/3/6
f 657/3/6 658/3/6 659/3/6
f 659/3/6 658/3/6 660/3/6
f 661/1/6 662/1/6 664/1/6
f 664/1/6 662/1/6 665/1/6
f 665/1/6 662/1/6 666/1/6
f 663/4/6 664/4/6 669/4/6
f 664/4/6 665/4/6 669/4/6
f 669/4/6 665/4/6 670/4/6
f 667/4/6 668/4/6 671/4/6
f 671/4/6 668/4/6 672/4/6
f 673/4/6 674/4/6 677/4/6
f 677/4/6 674/4/6 678/4/6
f 678/4/6 674/4/6 679/4/6
f 675/4/6 676/4/6 681/4/6
f 681/4/6 676/4/6 682/4/6
f 679/1/6 680/1/6 683/1/6
f 678/1/6 679/1/6 683/1/6
f 683/1/6 680/1/6 684/1/6
f 685/3/6 686/3/6 687/3/6
f 687/3/6 686/3/6 688/3/6
f 691/1/6 692/1/6 693/1/6
f 689/4/6 690/4/6 694/4/6
f 694/4/6 690/4/6 695/4/6
f 691/1/6 693/1/6 698/1/6
f 698/1/6 693/1/6 699/1/6
f 695/4/6 696/4/6 700/4/6
f 698/4/6 699/4/6 702/4/6
f 697/4/6 698/4/6 702/4/6
f 702/4/6 699/4/6 703/4/6
f 700/4/6 701/4/6 704/4/6
f 695/4/6 700/4/6 704/4/6
f 704/4/6 701/4/6 705/4/6
f 695/4/6 704/4/6 708/4/6
f 706/4/6 707/4/6 710/4/6
f 710/4/6 707/4/6 711/4/6
f 711/4/6 707/4/6 712/4/6
f 708/4/6 709/4/6 713/4/6
f 695/4/6 708/4/6 713/4/6
f 713/4/6 709/4/6 714/4/6
f 711/1/6 712/1/6 715/1/6
f 695/4/6 713/4/6 717/4/6
f 717/4/6 713/4/6 718/4/6
f 711/1/6 715/1/6 719/1/6
f 719/1/6 715/1/6 720/1/6
f 716/4/6 717/4/6 721/4/6
f 721/4/6 717/4/6 722/4/6
f 723/4/6 724/4/6 725/4/6
f 725/4/6 724/4/6 726/4/6
