# MagicaVoxel @ Ephtracy

# group
g flak38quad_gun

# material
mtllib flak38quad_gun.mtl
usemtl palette

# normals
vn -1 0 0
vn 1 0 0
vn 0 0 1
vn 0 0 -1
vn 0 -1 0
vn 0 1 0

# texcoords
vt 0.986328 0.5
vt 0.994141 0.5

# verts
v -5.5 1 1.5
v -5.5 1 0.5
v -5.5 1 -0.5
v -5.5 1 -1.5
v -5.5 2 1.5
v -5.5 2 0.5
v -5.5 2 -0.5
v -5.5 2 -1.5
v -5.5 3 1.5
v -5.5 3 0.5
v -5.5 3 -0.5
v -5.5 3 -1.5
v -5.5 4 1.5
v -5.5 4 0.5
v -5.5 4 -0.5
v -5.5 4 -1.5
v -4.5 1 3.5
v -4.5 1 1.5
v -4.5 1 -1.5
v -4.5 1 -3.5
v -4.5 2 3.5
v -4.5 2 1.5
v -4.5 2 -1.5
v -4.5 2 -3.5
v -4.5 3 3.5
v -4.5 3 1.5
v -4.5 3 -1.5
v -4.5 3 -3.5
v -4.5 4 3.5
v -4.5 4 1.5
v -4.5 4 -1.5
v -4.5 4 -3.5
v -2.5 4 2.5
v -2.5 4 1.5
v -2.5 4 0.5
v -2.5 4 -0.5
v -2.5 4 -1.5
v -2.5 4 -2.5
v -2.5 5 2.5
v -2.5 5 -2.5
v -1.5 0 4.5
v -1.5 0 1.5
v -1.5 0 -1.5
v -1.5 0 -4.5
v -1.5 1 1.5
v -1.5 1 -1.5
v -1.5 2 1.5
v -1.5 2 -1.5
v -1.5 3 1.5
v -1.5 3 0.5
v -1.5 3 -0.5
v -1.5 3 -1.5
v -1.5 4 4.5
v -1.5 4 2.5
v -1.5 4 1.5
v -1.5 4 0.5
v -1.5 4 -0.5
v -1.5 4 -1.5
v -1.5 4 -2.5
v -1.5 4 -4.5
v -0.5 0 1.5
v -0.5 0 -1.5
v -0.5 1 1.5
v -0.5 1 0.5
v -0.5 1 -0.5
v -0.5 1 -1.5
v -0.5 2 1.5
v -0.5 2 0.5
v -0.5 2 -0.5
v -0.5 2 -1.5
v -0.5 3 1.5
v -0.5 3 -1.5
v -2.5 1 3.5
v -2.5 1 1.5
v -2.5 1 -1.5
v -2.5 1 -3.5
v -2.5 2 3.5
v -2.5 2 1.5
v -2.5 2 -1.5
v -2.5 2 -3.5
v -2.5 3 3.5
v -2.5 3 1.5
v -2.5 3 -1.5
v -2.5 3 -3.5
v -2.5 4 3.5
v -2.5 4 2.5
v -2.5 4 1.5
v -2.5 4 -1.5
v -2.5 4 -2.5
v -2.5 4 -3.5
v -0.5 0 4.5
v -0.5 0 2.5
v -0.5 0 -2.5
v -0.5 0 -4.5
v -0.5 4 4.5
v -0.5 4 2.5
v -0.5 4 -2.5
v -0.5 4 -4.5
v -0.5 5 2.5
v -0.5 5 -2.5
v 0.5 0 2.5
v 0.5 0 -2.5
v 0.5 1 1.5
v 0.5 1 0.5
v 0.5 1 -0.5
v 0.5 1 -1.5
v 0.5 2 1.5
v 0.5 2 0.5
v 0.5 2 -0.5
v 0.5 2 -1.5
v 0.5 3 1.5
v 0.5 3 0.5
v 0.5 3 -0.5
v 0.5 3 -1.5
v 0.5 4 2.5
v 0.5 4 1.5
v 0.5 4 0.5
v 0.5 4 -0.5
v 0.5 4 -1.5
v 0.5 4 -2.5
v 5.5 1 1.5
v 5.5 1 0.5
v 5.5 1 -0.5
v 5.5 1 -1.5
v 5.5 2 1.5
v 5.5 2 0.5
v 5.5 2 -0.5
v 5.5 2 -1.5
v 5.5 3 1.5
v 5.5 3 0.5
v 5.5 3 -0.5
v 5.5 3 -1.5
v 5.5 4 1.5
v 5.5 4 0.5
v 5.5 4 -0.5
v 5.5 4 -1.5
v -1.5 0 4.5
v -1.5 4 4.5
v -0.5 0 4.5
v -0.5 4 4.5
v -4.5 1 3.5
v -4.5 2 3.5
v -4.5 3 3.5
v -4.5 4 3.5
v -2.5 1 3.5
v -2.5 2 3.5
v -2.5 3 3.5
v -2.5 4 3.5
v -2.5 4 2.5
v -2.5 5 2.5
v -1.5 4 2.5
v -0.5 0 2.5
v -0.5 4 2.5
v -0.5 5 2.5
v 0.5 0 2.5
v 0.5 4 2.5
v -5.5 1 1.5
v -5.5 2 1.5
v -5.5 3 1.5
v -5.5 4 1.5
v -4.5 1 1.5
v -4.5 2 1.5
v -4.5 3 1.5
v -4.5 4 1.5
v -2.5 1 1.5
v -2.5 2 1.5
v -2.5 3 1.5
v -2.5 4 1.5
v -1.5 1 1.5
v -1.5 2 1.5
v -1.5 3 1.5
v -1.5 4 1.5
v 0.5 1 1.5
v 0.5 2 1.5
v 0.5 3 1.5
v 0.5 4 1.5
v 5.5 1 1.5
v 5.5 2 1.5
v 5.5 3 1.5
v 5.5 4 1.5
v -5.5 1 -0.5
v -5.5 2 -0.5
v -5.5 3 -0.5
v -5.5 4 -0.5
v -2.5 4 -0.5
v -1.5 3 -0.5
v -1.5 4 -0.5
v -0.5 1 -0.5
v -0.5 2 -0.5
v 0.5 1 -0.5
v 0.5 2 -0.5
v 0.5 3 -0.5
v 0.5 4 -0.5
v 5.5 1 -0.5
v 5.5 2 -0.5
v 5.5 3 -0.5
v 5.5 4 -0.5
v -1.5 0 -1.5
v -1.5 1 -1.5
v -1.5 2 -1.5
v -1.5 3 -1.5
v -0.5 0 -1.5
v -0.5 1 -1.5
v -0.5 2 -1.5
v -0.5 3 -1.5
v -1.5 0 1.5
v -1.5 1 1.5
v -1.5 2 1.5
v -1.5 3 1.5
v -0.5 0 1.5
v -0.5 1 1.5
v -0.5 2 1.5
v -0.5 3 1.5
v -5.5 1 0.5
v -5.5 2 0.5
v -5.5 3 0.5
v -5.5 4 0.5
v -2.5 4 0.5
v -1.5 3 0.5
v -1.5 4 0.5
v -0.5 1 0.5
v -0.5 2 0.5
v 0.5 1 0.5
v 0.5 2 0.5
v 0.5 3 0.5
v 0.5 4 0.5
v 5.5 1 0.5
v 5.5 2 0.5
v 5.5 3 0.5
v 5.5 4 0.5
v -5.5 1 -1.5
v -5.5 2 -1.5
v -5.5 3 -1.5
v -5.5 4 -1.5
v -4.5 1 -1.5
v -4.5 2 -1.5
v -4.5 3 -1.5
v -4.5 4 -1.5
v -2.5 1 -1.5
v -2.5 2 -1.5
v -2.5 3 -1.5
v -2.5 4 -1.5
v -1.5 1 -1.5
v -1.5 2 -1.5
v -1.5 3 -1.5
v -1.5 4 -1.5
v 0.5 1 -1.5
v 0.5 2 -1.5
v 0.5 3 -1.5
v 0.5 4 -1.5
v 5.5 1 -1.5
v 5.5 2 -1.5
v 5.5 3 -1.5
v 5.5 4 -1.5
v -2.5 4 -2.5
v -2.5 5 -2.5
v -1.5 4 -2.5
v -0.5 0 -2.5
v -0.5 4 -2.5
v -0.5 5 -2.5
v 0.5 0 -2.5
v 0.5 4 -2.5
v -4.5 1 -3.5
v -4.5 2 -3.5
v -4.5 3 -3.5
v -4.5 4 -3.5
v -2.5 1 -3.5
v -2.5 2 -3.5
v -2.5 3 -3.5
v -2.5 4 -3.5
v -1.5 0 -4.5
v -1.5 4 -4.5
v -0.5 0 -4.5
v -0.5 4 -4.5
v -1.5 0 4.5
v -0.5 0 4.5
v -0.5 0 2.5
v 0.5 0 2.5
v -1.5 0 1.5
v -0.5 0 1.5
v -1.5 0 -1.5
v -0.5 0 -1.5
v -0.5 0 -2.5
v 0.5 0 -2.5
v -1.5 0 -4.5
v -0.5 0 -4.5
v -4.5 1 3.5
v -2.5 1 3.5
v -5.5 1 1.5
v -4.5 1 1.5
v -2.5 1 1.5
v -1.5 1 1.5
v -0.5 1 1.5
v 0.5 1 1.5
v 5.5 1 1.5
v -5.5 1 0.5
v -0.5 1 0.5
v 0.5 1 0.5
v 5.5 1 0.5
v -5.5 1 -0.5
v -0.5 1 -0.5
v 0.5 1 -0.5
v 5.5 1 -0.5
v -5.5 1 -1.5
v -4.5 1 -1.5
v -2.5 1 -1.5
v -1.5 1 -1.5
v -0.5 1 -1.5
v 0.5 1 -1.5
v 5.5 1 -1.5
v -4.5 1 -3.5
v -2.5 1 -3.5
v -4.5 3 3.5
v -2.5 3 3.5
v -5.5 3 1.5
v -4.5 3 1.5
v -2.5 3 1.5
v -1.5 3 1.5
v -0.5 3 1.5
v 0.5 3 1.5
v 5.5 3 1.5
v -5.5 3 0.5
v -1.5 3 0.5
v 0.5 3 0.5
v 5.5 3 0.5
v -5.5 3 -0.5
v -1.5 3 -0.5
v 0.5 3 -0.5
v 5.5 3 -0.5
v -5.5 3 -1.5
v -4.5 3 -1.5
v -2.5 3 -1.5
v -1.5 3 -1.5
v -0.5 3 -1.5
v 0.5 3 -1.5
v 5.5 3 -1.5
v -4.5 3 -3.5
v -2.5 3 -3.5
v -2.5 4 2.5
v -1.5 4 2.5
v -2.5 4 1.5
v -1.5 4 1.5
v -2.5 4 0.5
v -1.5 4 0.5
v -2.5 4 -0.5
v -1.5 4 -0.5
v -2.5 4 -1.5
v -1.5 4 -1.5
v -2.5 4 -2.5
v -1.5 4 -2.5
v -4.5 2 3.5
v -2.5 2 3.5
v -5.5 2 1.5
v -4.5 2 1.5
v -2.5 2 1.5
v -1.5 2 1.5
v -0.5 2 1.5
v 0.5 2 1.5
v 5.5 2 1.5
v -5.5 2 0.5
v -0.5 2 0.5
v 0.5 2 0.5
v 5.5 2 0.5
v -5.5 2 -0.5
v -0.5 2 -0.5
v 0.5 2 -0.5
v 5.5 2 -0.5
v -5.5 2 -1.5
v -4.5 2 -1.5
v -2.5 2 -1.5
v -1.5 2 -1.5
v -0.5 2 -1.5
v 0.5 2 -1.5
v 5.5 2 -1.5
v -4.5 2 -3.5
v -2.5 2 -3.5
v -1.5 4 4.5
v -0.5 4 4.5
v -4.5 4 3.5
v -2.5 4 3.5
v -2.5 4 2.5
v -1.5 4 2.5
v -0.5 4 2.5
v 0.5 4 2.5
v -5.5 4 1.5
v -4.5 4 1.5
v -2.5 4 1.5
v 0.5 4 1.5
v 5.5 4 1.5
v -5.5 4 0.5
v -2.5 4 0.5
v 0.5 4 0.5
v 5.5 4 0.5
v -5.5 4 -0.5
v -2.5 4 -0.5
v 0.5 4 -0.5
v 5.5 4 -0.5
v -5.5 4 -1.5
v -4.5 4 -1.5
v -2.5 4 -1.5
v 0.5 4 -1.5
v 5.5 4 -1.5
v -2.5 4 -2.5
v -1.5 4 -2.5
v -0.5 4 -2.5
v 0.5 4 -2.5
v -4.5 4 -3.5
v -2.5 4 -3.5
v -1.5 4 -4.5
v -0.5 4 -4.5
v -2.5 5 2.5
v -0.5 5 2.5
v -2.5 5 -2.5
v -0.5 5 -2.5

# faces
f 5/2/1 2/2/1 1/2/1
f 6/2/1 2/2/1 5/2/1
f 7/2/1 4/2/1 3/2/1
f 8/2/1 4/2/1 7/2/1
f 13/2/1 10/2/1 9/2/1
f 14/2/1 10/2/1 13/2/1
f 15/2/1 12/2/1 11/2/1
f 16/2/1 12/2/1 15/2/1
f 21/1/1 18/1/1 17/1/1
f 22/1/1 18/1/1 21/1/1
f 23/1/1 20/1/1 19/1/1
f 24/1/1 20/1/1 23/1/1
f 29/1/1 26/1/1 25/1/1
f 30/1/1 26/1/1 29/1/1
f 31/1/1 28/1/1 27/1/1
f 32/1/1 28/1/1 31/1/1
f 39/2/1 34/2/1 33/2/1
f 39/2/1 38/2/1 37/2/1
f 39/2/1 37/2/1 36/2/1
f 39/2/1 36/2/1 35/2/1
f 39/2/1 35/2/1 34/2/1
f 40/2/1 38/2/1 39/2/1
f 45/2/1 42/2/1 41/2/1
f 46/2/1 44/2/1 43/2/1
f 47/2/1 45/2/1 41/2/1
f 48/2/1 44/2/1 46/2/1
f 49/2/1 47/2/1 41/2/1
f 52/2/1 44/2/1 48/2/1
f 53/2/1 49/2/1 41/2/1
f 54/2/1 49/2/1 53/2/1
f 55/2/1 49/2/1 54/2/1
f 56/2/1 51/2/1 50/2/1
f 57/2/1 51/2/1 56/2/1
f 58/2/1 44/2/1 52/2/1
f 59/2/1 44/2/1 58/2/1
f 60/2/1 44/2/1 59/2/1
f 63/2/1 62/2/1 61/2/1
f 64/2/1 62/2/1 63/2/1
f 65/2/1 62/2/1 64/2/1
f 66/2/1 62/2/1 65/2/1
f 68/2/1 65/2/1 64/2/1
f 69/2/1 65/2/1 68/2/1
f 71/2/1 68/2/1 67/2/1
f 71/2/1 70/2/1 69/2/1
f 71/2/1 69/2/1 68/2/1
f 72/2/1 70/2/1 71/2/1
f 73/1/2 74/1/2 77/1/2
f 77/1/2 74/1/2 78/1/2
f 75/1/2 76/1/2 79/1/2
f 79/1/2 76/1/2 80/1/2
f 81/1/2 82/1/2 85/1/2
f 85/1/2 82/1/2 86/1/2
f 86/1/2 82/1/2 87/1/2
f 83/1/2 84/1/2 88/1/2
f 88/1/2 84/1/2 89/1/2
f 89/1/2 84/1/2 90/1/2
f 91/2/2 92/2/2 95/2/2
f 95/2/2 92/2/2 96/2/2
f 93/2/2 94/2/2 97/2/2
f 97/2/2 94/2/2 98/2/2
f 96/2/2 97/2/2 99/2/2
f 99/2/2 97/2/2 100/2/2
f 101/2/2 102/2/2 103/2/2
f 103/2/2 102/2/2 104/2/2
f 104/2/2 102/2/2 105/2/2
f 105/2/2 102/2/2 106/2/2
f 101/2/2 103/2/2 107/2/2
f 104/2/2 105/2/2 108/2/2
f 108/2/2 105/2/2 109/2/2
f 106/2/2 102/2/2 110/2/2
f 108/2/2 109/2/2 111/2/2
f 109/2/2 110/2/2 111/2/2
f 101/2/2 107/2/2 111/2/2
f 107/2/2 108/2/2 111/2/2
f 111/2/2 110/2/2 112/2/2
f 112/2/2 110/2/2 113/2/2
f 110/2/2 102/2/2 114/2/2
f 113/2/2 110/2/2 114/2/2
f 101/2/2 111/2/2 115/2/2
f 115/2/2 111/2/2 116/2/2
f 112/2/2 113/2/2 117/2/2
f 117/2/2 113/2/2 118/2/2
f 114/2/2 102/2/2 119/2/2
f 119/2/2 102/2/2 120/2/2
f 121/2/2 122/2/2 125/2/2
f 125/2/2 122/2/2 126/2/2
f 123/2/2 124/2/2 127/2/2
f 127/2/2 124/2/2 128/2/2
f 129/2/2 130/2/2 133/2/2
f 133/2/2 130/2/2 134/2/2
f 131/2/2 132/2/2 135/2/2
f 135/2/2 132/2/2 136/2/2
f 139/2/3 138/2/3 137/2/3
f 140/2/3 138/2/3 139/2/3
f 145/1/3 142/1/3 141/1/3
f 146/1/3 142/1/3 145/1/3
f 147/1/3 144/1/3 143/1/3
f 148/1/3 144/1/3 147/1/3
f 151/2/3 150/2/3 149/2/3
f 153/2/3 150/2/3 151/2/3
f 154/2/3 150/2/3 153/2/3
f 155/2/3 153/2/3 152/2/3
f 156/2/3 153/2/3 155/2/3
f 161/2/3 158/2/3 157/2/3
f 162/2/3 158/2/3 161/2/3
f 163/2/3 160/2/3 159/2/3
f 164/2/3 160/2/3 163/2/3
f 169/2/3 166/2/3 165/2/3
f 170/2/3 166/2/3 169/2/3
f 171/2/3 168/2/3 167/2/3
f 172/2/3 168/2/3 171/2/3
f 177/2/3 174/2/3 173/2/3
f 178/2/3 174/2/3 177/2/3
f 179/2/3 176/2/3 175/2/3
f 180/2/3 176/2/3 179/2/3
f 185/2/3 184/2/3 183/2/3
f 186/2/3 185/2/3 183/2/3
f 187/2/3 185/2/3 186/2/3
f 188/2/3 182/2/3 181/2/3
f 189/2/3 182/2/3 188/2/3
f 194/2/3 191/2/3 190/2/3
f 195/2/3 191/2/3 194/2/3
f 196/2/3 193/2/3 192/2/3
f 197/2/3 193/2/3 196/2/3
f 202/2/3 199/2/3 198/2/3
f 203/2/3 199/2/3 202/2/3
f 204/2/3 201/2/3 200/2/3
f 205/2/3 201/2/3 204/2/3
f 206/2/4 207/2/4 210/2/4
f 210/2/4 207/2/4 211/2/4
f 208/2/4 209/2/4 212/2/4
f 212/2/4 209/2/4 213/2/4
f 216/2/4 217/2/4 218/2/4
f 216/2/4 218/2/4 219/2/4
f 219/2/4 218/2/4 220/2/4
f 214/2/4 215/2/4 221/2/4
f 221/2/4 215/2/4 222/2/4
f 223/2/4 224/2/4 227/2/4
f 227/2/4 224/2/4 228/2/4
f 225/2/4 226/2/4 229/2/4
f 229/2/4 226/2/4 230/2/4
f 231/2/4 232/2/4 235/2/4
f 235/2/4 232/2/4 236/2/4
f 233/2/4 234/2/4 237/2/4
f 237/2/4 234/2/4 238/2/4
f 239/2/4 240/2/4 243/2/4
f 243/2/4 240/2/4 244/2/4
f 241/2/4 242/2/4 245/2/4
f 245/2/4 242/2/4 246/2/4
f 247/2/4 248/2/4 251/2/4
f 251/2/4 248/2/4 252/2/4
f 249/2/4 250/2/4 253/2/4
f 253/2/4 250/2/4 254/2/4
f 255/2/4 256/2/4 257/2/4
f 257/2/4 256/2/4 259/2/4
f 259/2/4 256/2/4 260/2/4
f 258/2/4 259/2/4 261/2/4
f 261/2/4 259/2/4 262/2/4
f 263/1/4 264/1/4 267/1/4
f 267/1/4 264/1/4 268/1/4
f 265/1/4 266/1/4 269/1/4
f 269/1/4 266/1/4 270/1/4
f 271/2/4 272/2/4 273/2/4
f 273/2/4 272/2/4 274/2/4
f 277/2/5 276/2/5 275/2/5
f 279/2/5 277/2/5 275/2/5
f 279/2/5 278/2/5 277/2/5
f 280/2/5 278/2/5 279/2/5
f 282/2/5 278/2/5 280/2/5
f 283/2/5 278/2/5 282/2/5
f 283/2/5 282/2/5 281/2/5
f 284/2/5 278/2/5 283/2/5
f 285/2/5 283/2/5 281/2/5
f 286/2/5 283/2/5 285/2/5
f 290/1/5 288/1/5 287/1/5
f 291/1/5 288/1/5 290/1/5
f 296/2/5 290/2/5 289/2/5
f 296/2/5 291/2/5 290/2/5
f 296/2/5 293/2/5 292/2/5
f 296/2/5 292/2/5 291/2/5
f 297/2/5 293/2/5 296/2/5
f 298/2/5 295/2/5 294/2/5
f 299/2/5 295/2/5 298/2/5
f 304/2/5 301/2/5 300/2/5
f 305/2/5 301/2/5 304/2/5
f 306/2/5 301/2/5 305/2/5
f 307/2/5 301/2/5 306/2/5
f 308/2/5 301/2/5 307/2/5
f 309/2/5 303/2/5 302/2/5
f 310/2/5 303/2/5 309/2/5
f 311/1/5 306/1/5 305/1/5
f 312/1/5 306/1/5 311/1/5
f 316/1/5 314/1/5 313/1/5
f 317/1/5 314/1/5 316/1/5
f 322/2/5 316/2/5 315/2/5
f 322/2/5 317/2/5 316/2/5
f 322/2/5 319/2/5 318/2/5
f 322/2/5 318/2/5 317/2/5
f 323/2/5 319/2/5 322/2/5
f 324/2/5 321/2/5 320/2/5
f 325/2/5 321/2/5 324/2/5
f 327/2/5 319/2/5 323/2/5
f 330/2/5 327/2/5 326/2/5
f 331/2/5 327/2/5 330/2/5
f 332/2/5 327/2/5 331/2/5
f 333/2/5 319/2/5 327/2/5
f 333/2/5 327/2/5 332/2/5
f 334/2/5 319/2/5 333/2/5
f 335/2/5 329/2/5 328/2/5
f 336/2/5 329/2/5 335/2/5
f 337/1/5 332/1/5 331/1/5
f 338/1/5 332/1/5 337/1/5
f 341/2/5 340/2/5 339/2/5
f 342/2/5 340/2/5 341/2/5
f 345/2/5 344/2/5 343/2/5
f 346/2/5 344/2/5 345/2/5
f 349/2/5 348/2/5 347/2/5
f 350/2/5 348/2/5 349/2/5
f 351/1/6 352/1/6 354/1/6
f 354/1/6 352/1/6 355/1/6
f 353/2/6 354/2/6 360/2/6
f 354/2/6 355/2/6 360/2/6
f 356/2/6 357/2/6 360/2/6
f 355/2/6 356/2/6 360/2/6
f 360/2/6 357/2/6 361/2/6
f 358/2/6 359/2/6 362/2/6
f 362/2/6 359/2/6 363/2/6
f 364/2/6 365/2/6 368/2/6
f 368/2/6 365/2/6 369/2/6
f 369/2/6 365/2/6 370/2/6
f 370/2/6 365/2/6 371/2/6
f 371/2/6 365/2/6 372/2/6
f 366/2/6 367/2/6 373/2/6
f 373/2/6 367/2/6 374/2/6
f 369/1/6 370/1/6 375/1/6
f 375/1/6 370/1/6 376/1/6
f 379/1/6 380/1/6 381/1/6
f 377/2/6 378/2/6 382/2/6
f 382/2/6 378/2/6 383/2/6
f 379/1/6 381/1/6 386/1/6
f 386/1/6 381/1/6 387/1/6
f 383/2/6 384/2/6 388/2/6
f 386/2/6 387/2/6 390/2/6
f 385/2/6 386/2/6 390/2/6
f 390/2/6 387/2/6 391/2/6
f 388/2/6 389/2/6 392/2/6
f 383/2/6 388/2/6 392/2/6
f 392/2/6 389/2/6 393/2/6
f 383/2/6 392/2/6 396/2/6
f 394/2/6 395/2/6 398/2/6
f 398/2/6 395/2/6 399/2/6
f 399/2/6 395/2/6 400/2/6
f 396/2/6 397/2/6 401/2/6
f 383/2/6 396/2/6 401/2/6
f 401/2/6 397/2/6 402/2/6
f 399/1/6 400/1/6 403/1/6
f 383/2/6 401/2/6 405/2/6
f 405/2/6 401/2/6 406/2/6
f 399/1/6 403/1/6 407/1/6
f 407/1/6 403/1/6 408/1/6
f 404/2/6 405/2/6 409/2/6
f 409/2/6 405/2/6 410/2/6
f 411/2/6 412/2/6 413/2/6
f 413/2/6 412/2/6 414/2/6
