# MagicaVoxel @ Ephtracy

# group
g flak38quad

# material
mtllib flak38quad.mtl
usemtl palette

# normals
vn -1 0 0
vn 1 0 0
vn 0 0 1
vn 0 0 -1
vn 0 -1 0
vn 0 1 0

# texcoords
vt 0.986328 0.5
vt 0.990234 0.5
vt 0.994141 0.5

# verts
v -7.5 0 7.5
v -7.5 0 -7.5
v -7.5 2 7.5
v -7.5 2 -7.5
v -6.5 2 3.5
v -6.5 2 -3.5
v -6.5 3 3.5
v -6.5 3 -3.5
v -5.5 2 5.5
v -5.5 2 3.5
v -5.5 2 -3.5
v -5.5 2 -5.5
v -5.5 3 5.5
v -5.5 3 3.5
v -5.5 3 2.5
v -5.5 3 -2.5
v -5.5 3 -3.5
v -5.5 3 -5.5
v -5.5 4 2.5
v -5.5 4 -2.5
v -4.5 3 4.5
v -4.5 3 2.5
v -4.5 3 -2.5
v -4.5 3 -4.5
v -4.5 4 4.5
v -4.5 4 2.5
v -4.5 4 -2.5
v -4.5 4 -4.5
v -3.5 2 6.5
v -3.5 2 5.5
v -3.5 2 -5.5
v -3.5 2 -6.5
v -3.5 3 6.5
v -3.5 3 5.5
v -3.5 3 -5.5
v -3.5 3 -6.5
v -3.5 4 0.5
v -3.5 4 -0.5
v -3.5 6 1.5
v -3.5 6 0.5
v -3.5 6 -0.5
v -3.5 6 -1.5
v -3.5 7 1.5
v -3.5 7 0.5
v -3.5 7 -0.5
v -3.5 7 -1.5
v -3.5 8 1.5
v -3.5 8 0.5
v -3.5 8 -0.5
v -3.5 8 -1.5
v -3.5 9 1.5
v -3.5 9 0.5
v -3.5 9 -0.5
v -3.5 9 -1.5
v -2.5 3 5.5
v -2.5 3 4.5
v -2.5 3 -4.5
v -2.5 3 -5.5
v -2.5 4 5.5
v -2.5 4 4.5
v -2.5 4 -4.5
v -2.5 4 -5.5
v -2.5 6 3.5
v -2.5 6 1.5
v -2.5 6 0.5
v -2.5 6 -0.5
v -2.5 6 -1.5
v -2.5 6 -3.5
v -2.5 7 3.5
v -2.5 7 1.5
v -2.5 7 0.5
v -2.5 7 -0.5
v -2.5 7 -1.5
v -2.5 7 -3.5
v -2.5 8 3.5
v -2.5 8 1.5
v -2.5 8 -1.5
v -2.5 8 -3.5
v -2.5 9 3.5
v -2.5 9 1.5
v -2.5 9 -1.5
v -2.5 9 -3.5
v -1.5 7 0.5
v -1.5 7 -0.5
v -1.5 8 0.5
v -1.5 8 -0.5
v -0.5 4 2.5
v -0.5 4 1.5
v -0.5 4 -1.5
v -0.5 4 -2.5
v -0.5 5 2.5
v -0.5 5 1.5
v -0.5 5 -1.5
v -0.5 5 -2.5
v -0.5 9 2.5
v -0.5 9 1.5
v -0.5 9 0.5
v -0.5 9 -0.5
v -0.5 9 -1.5
v -0.5 9 -2.5
v -0.5 10 2.5
v -0.5 10 -2.5
v 0.5 4 1.5
v 0.5 4 0.5
v 0.5 4 -0.5
v 0.5 4 -1.5
v 0.5 5 4.5
v 0.5 5 2.5
v 0.5 5 1.5
v 0.5 5 0.5
v 0.5 5 -0.5
v 0.5 5 -1.5
v 0.5 5 -2.5
v 0.5 5 -4.5
v 0.5 6 1.5
v 0.5 6 -1.5
v 0.5 7 1.5
v 0.5 7 -1.5
v 0.5 8 1.5
v 0.5 8 0.5
v 0.5 8 -0.5
v 0.5 8 -1.5
v 0.5 9 4.5
v 0.5 9 2.5
v 0.5 9 1.5
v 0.5 9 0.5
v 0.5 9 -0.5
v 0.5 9 -1.5
v 0.5 9 -2.5
v 0.5 9 -4.5
v 1.5 5 1.5
v 1.5 5 0.5
v 1.5 5 -0.5
v 1.5 5 -1.5
v 1.5 6 1.5
v 1.5 6 0.5
v 1.5 6 -0.5
v 1.5 6 -1.5
v 1.5 7 1.5
v 1.5 7 0.5
v 1.5 7 -0.5
v 1.5 7 -1.5
v 1.5 8 1.5
v 1.5 8 -1.5
v -0.5 6 3.5
v -0.5 6 1.5
v -0.5 6 -1.5
v -0.5 6 -3.5
v -0.5 7 3.5
v -0.5 7 1.5
v -0.5 7 -1.5
v -0.5 7 -3.5
v -0.5 8 3.5
v -0.5 8 1.5
v -0.5 8 -1.5
v -0.5 8 -3.5
v -0.5 9 3.5
v -0.5 9 2.5
v -0.5 9 1.5
v -0.5 9 -1.5
v -0.5 9 -2.5
v -0.5 9 -3.5
v 0.5 7 0.5
v 0.5 7 -0.5
v 0.5 8 0.5
v 0.5 8 -0.5
v 1.5 4 2.5
v 1.5 4 -2.5
v 1.5 5 4.5
v 1.5 5 2.5
v 1.5 5 -2.5
v 1.5 5 -4.5
v 1.5 9 4.5
v 1.5 9 2.5
v 1.5 9 -2.5
v 1.5 9 -4.5
v 1.5 10 2.5
v 1.5 10 -2.5
v 2.5 3 5.5
v 2.5 3 4.5
v 2.5 3 -4.5
v 2.5 3 -5.5
v 2.5 4 5.5
v 2.5 4 4.5
v 2.5 4 -4.5
v 2.5 4 -5.5
v 2.5 5 2.5
v 2.5 5 -2.5
v 2.5 6 1.5
v 2.5 6 0.5
v 2.5 6 -0.5
v 2.5 6 -1.5
v 2.5 7 1.5
v 2.5 7 0.5
v 2.5 7 -0.5
v 2.5 7 -1.5
v 2.5 8 1.5
v 2.5 8 0.5
v 2.5 8 -0.5
v 2.5 8 -1.5
v 2.5 9 2.5
v 2.5 9 1.5
v 2.5 9 0.5
v 2.5 9 -0.5
v 2.5 9 -1.5
v 2.5 9 -2.5
v 3.5 2 6.5
v 3.5 2 5.5
v 3.5 2 -5.5
v 3.5 2 -6.5
v 3.5 3 6.5
v 3.5 3 5.5
v 3.5 3 -5.5
v 3.5 3 -6.5
v 4.5 3 4.5
v 4.5 3 2.5
v 4.5 3 -2.5
v 4.5 3 -4.5
v 4.5 4 4.5
v 4.5 4 2.5
v 4.5 4 -2.5
v 4.5 4 -4.5
v 5.5 2 5.5
v 5.5 2 3.5
v 5.5 2 -3.5
v 5.5 2 -5.5
v 5.5 3 5.5
v 5.5 3 3.5
v 5.5 3 2.5
v 5.5 3 -2.5
v 5.5 3 -3.5
v 5.5 3 -5.5
v 5.5 4 2.5
v 5.5 4 -2.5
v 6.5 2 3.5
v 6.5 2 -3.5
v 6.5 3 3.5
v 6.5 3 -3.5
v 7.5 0 7.5
v 7.5 0 -7.5
v 7.5 2 7.5
v 7.5 2 -7.5
v 7.5 6 1.5
v 7.5 6 0.5
v 7.5 6 -0.5
v 7.5 6 -1.5
v 7.5 7 1.5
v 7.5 7 0.5
v 7.5 7 -0.5
v 7.5 7 -1.5
v 7.5 8 1.5
v 7.5 8 0.5
v 7.5 8 -0.5
v 7.5 8 -1.5
v 7.5 9 1.5
v 7.5 9 0.5
v 7.5 9 -0.5
v 7.5 9 -1.5
v -7.5 0 7.5
v -7.5 2 7.5
v 7.5 0 7.5
v 7.5 2 7.5
v -3.5 2 6.5
v -3.5 3 6.5
v 3.5 2 6.5
v 3.5 3 6.5
v -5.5 2 5.5
v -5.5 3 5.5
v -3.5 2 5.5
v -3.5 3 5.5
v -2.5 3 5.5
v -2.5 4 5.5
v 2.5 3 5.5
v 2.5 4 5.5
v 3.5 2 5.5
v 3.5 3 5.5
v 5.5 2 5.5
v 5.5 3 5.5
v -4.5 3 4.5
v -4.5 4 4.5
v -2.5 3 4.5
v -2.5 4 4.5
v 0.5 5 4.5
v 0.5 9 4.5
v 1.5 5 4.5
v 1.5 9 4.5
v 2.5 3 4.5
v 2.5 4 4.5
v 4.5 3 4.5
v 4.5 4 4.5
v -6.5 2 3.5
v -6.5 3 3.5
v -5.5 2 3.5
v -5.5 3 3.5
v -2.5 6 3.5
v -2.5 7 3.5
v -2.5 8 3.5
v -2.5 9 3.5
v -0.5 6 3.5
v -0.5 7 3.5
v -0.5 8 3.5
v -0.5 9 3.5
v 5.5 2 3.5
v 5.5 3 3.5
v 6.5 2 3.5
v 6.5 3 3.5
v -5.5 3 2.5
v -5.5 4 2.5
v -4.5 3 2.5
v -4.5 4 2.5
v -0.5 4 2.5
v -0.5 5 2.5
v -0.5 9 2.5
v -0.5 10 2.5
v 0.5 5 2.5
v 0.5 9 2.5
v 1.5 4 2.5
v 1.5 5 2.5
v 1.5 9 2.5
v 1.5 10 2.5
v 2.5 5 2.5
v 2.5 9 2.5
v 4.5 3 2.5
v 4.5 4 2.5
v 5.5 3 2.5
v 5.5 4 2.5
v -3.5 6 1.5
v -3.5 7 1.5
v -3.5 8 1.5
v -3.5 9 1.5
v -2.5 6 1.5
v -2.5 7 1.5
v -2.5 8 1.5
v -2.5 9 1.5
v -0.5 6 1.5
v -0.5 7 1.5
v -0.5 8 1.5
v -0.5 9 1.5
v 0.5 6 1.5
v 0.5 7 1.5
v 0.5 8 1.5
v 0.5 9 1.5
v 2.5 6 1.5
v 2.5 7 1.5
v 2.5 8 1.5
v 2.5 9 1.5
v 7.5 6 1.5
v 7.5 7 1.5
v 7.5 8 1.5
v 7.5 9 1.5
v -3.5 4 0.5
v -3.5 6 0.5
v -1.5 7 0.5
v -1.5 8 0.5
v 0.5 4 0.5
v 0.5 5 0.5
v 0.5 7 0.5
v 0.5 8 0.5
v 1.5 5 0.5
v 1.5 6 0.5
v -3.5 6 -0.5
v -3.5 7 -0.5
v -3.5 8 -0.5
v -3.5 9 -0.5
v -2.5 6 -0.5
v -2.5 7 -0.5
v -1.5 8 -0.5
v -0.5 9 -0.5
v 0.5 8 -0.5
v 0.5 9 -0.5
v 2.5 6 -0.5
v 2.5 7 -0.5
v 2.5 8 -0.5
v 2.5 9 -0.5
v 7.5 6 -0.5
v 7.5 7 -0.5
v 7.5 8 -0.5
v 7.5 9 -0.5
v -0.5 4 -1.5
v -0.5 5 -1.5
v 0.5 4 -1.5
v 0.5 5 -1.5
v 0.5 6 -1.5
v 0.5 7 -1.5
v 0.5 8 -1.5
v 1.5 5 -1.5
v 1.5 6 -1.5
v 1.5 7 -1.5
v 1.5 8 -1.5
v -0.5 4 1.5
v -0.5 5 1.5
v 0.5 4 1.5
v 0.5 5 1.5
v 0.5 6 1.5
v 0.5 7 1.5
v 0.5 8 1.5
v 1.5 5 1.5
v 1.5 6 1.5
v 1.5 7 1.5
v 1.5 8 1.5
v -3.5 6 0.5
v -3.5 7 0.5
v -3.5 8 0.5
v -3.5 9 0.5
v -2.5 6 0.5
v -2.5 7 0.5
v -1.5 8 0.5
v -0.5 9 0.5
v 0.5 8 0.5
v 0.5 9 0.5
v 2.5 6 0.5
v 2.5 7 0.5
v 2.5 8 0.5
v 2.5 9 0.5
v 7.5 6 0.5
v 7.5 7 0.5
v 7.5 8 0.5
v 7.5 9 0.5
v -3.5 4 -0.5
v -3.5 6 -0.5
v -1.5 7 -0.5
v -1.5 8 -0.5
v 0.5 4 -0.5
v 0.5 5 -0.5
v 0.5 7 -0.5
v 0.5 8 -0.5
v 1.5 5 -0.5
v 1.5 6 -0.5
v -3.5 6 -1.5
v -3.5 7 -1.5
v -3.5 8 -1.5
v -3.5 9 -1.5
v -2.5 6 -1.5
v -2.5 7 -1.5
v -2.5 8 -1.5
v -2.5 9 -1.5
v -0.5 6 -1.5
v -0.5 7 -1.5
v -0.5 8 -1.5
v -0.5 9 -1.5
v 0.5 6 -1.5
v 0.5 7 -1.5
v 0.5 8 -1.5
v 0.5 9 -1.5
v 2.5 6 -1.5
v 2.5 7 -1.5
v 2.5 8 -1.5
v 2.5 9 -1.5
v 7.5 6 -1.5
v 7.5 7 -1.5
v 7.5 8 -1.5
v 7.5 9 -1.5
v -5.5 3 -2.5
v -5.5 4 -2.5
v -4.5 3 -2.5
v -4.5 4 -2.5
v -0.5 4 -2.5
v -0.5 5 -2.5
v -0.5 9 -2.5
v -0.5 10 -2.5
v 0.5 5 -2.5
v 0.5 9 -2.5
v 1.5 4 -2.5
v 1.5 5 -2.5
v 1.5 9 -2.5
v 1.5 10 -2.5
v 2.5 5 -2.5
v 2.5 9 -2.5
v 4.5 3 -2.5
v 4.5 4 -2.5
v 5.5 3 -2.5
v 5.5 4 -2.5
v -6.5 2 -3.5
v -6.5 3 -3.5
v -5.5 2 -3.5
v -5.5 3 -3.5
v -2.5 6 -3.5
v -2.5 7 -3.5
v -2.5 8 -3.5
v -2.5 9 -3.5
v -0.5 6 -3.5
v -0.5 7 -3.5
v -0.5 8 -3.5
v -0.5 9 -3.5
v 5.5 2 -3.5
v 5.5 3 -3.5
v 6.5 2 -3.5
v 6.5 3 -3.5
v -4.5 3 -4.5
v -4.5 4 -4.5
v -2.5 3 -4.5
v -2.5 4 -4.5
v 0.5 5 -4.5
v 0.5 9 -4.5
v 1.5 5 -4.5
v 1.5 9 -4.5
v 2.5 3 -4.5
v 2.5 4 -4.5
v 4.5 3 -4.5
v 4.5 4 -4.5
v -5.5 2 -5.5
v -5.5 3 -5.5
v -3.5 2 -5.5
v -3.5 3 -5.5
v -2.5 3 -5.5
v -2.5 4 -5.5
v 2.5 3 -5.5
v 2.5 4 -5.5
v 3.5 2 -5.5
v 3.5 3 -5.5
v 5.5 2 -5.5
v 5.5 3 -5.5
v -3.5 2 -6.5
v -3.5 3 -6.5
v 3.5 2 -6.5
v 3.5 3 -6.5
v -7.5 0 -7.5
v -7.5 2 -7.5
v 7.5 0 -7.5
v 7.5 2 -7.5
v -7.5 0 7.5
v 7.5 0 7.5
v -7.5 0 -7.5
v 7.5 0 -7.5
v 0.5 5 4.5
v 1.5 5 4.5
v 0.5 5 2.5
v 1.5 5 2.5
v 2.5 5 2.5
v 0.5 5 -2.5
v 1.5 5 -2.5
v 2.5 5 -2.5
v 0.5 5 -4.5
v 1.5 5 -4.5
v -2.5 6 3.5
v -0.5 6 3.5
v -3.5 6 1.5
v -2.5 6 1.5
v -0.5 6 1.5
v 0.5 6 1.5
v 1.5 6 1.5
v 2.5 6 1.5
v 7.5 6 1.5
v -3.5 6 0.5
v 1.5 6 0.5
v 2.5 6 0.5
v 7.5 6 0.5
v -3.5 6 -0.5
v 1.5 6 -0.5
v 2.5 6 -0.5
v 7.5 6 -0.5
v -3.5 6 -1.5
v -2.5 6 -1.5
v -0.5 6 -1.5
v 0.5 6 -1.5
v 1.5 6 -1.5
v 2.5 6 -1.5
v 7.5 6 -1.5
v -2.5 6 -3.5
v -0.5 6 -3.5
v -2.5 8 3.5
v -0.5 8 3.5
v -3.5 8 1.5
v -2.5 8 1.5
v -0.5 8 1.5
v 0.5 8 1.5
v 1.5 8 1.5
v 2.5 8 1.5
v 7.5 8 1.5
v -3.5 8 0.5
v -1.5 8 0.5
v 0.5 8 0.5
v 2.5 8 0.5
v 7.5 8 0.5
v -3.5 8 -0.5
v -1.5 8 -0.5
v 0.5 8 -0.5
v 2.5 8 -0.5
v 7.5 8 -0.5
v -3.5 8 -1.5
v -2.5 8 -1.5
v -0.5 8 -1.5
v 0.5 8 -1.5
v 1.5 8 -1.5
v 2.5 8 -1.5
v 7.5 8 -1.5
v -2.5 8 -3.5
v -0.5 8 -3.5
v -0.5 9 2.5
v 0.5 9 2.5
v -0.5 9 1.5
v 0.5 9 1.5
v -0.5 9 0.5
v 0.5 9 0.5
v -0.5 9 -0.5
v 0.5 9 -0.5
v -0.5 9 -1.5
v 0.5 9 -1.5
v -0.5 9 -2.5
v 0.5 9 -2.5
v -7.5 2 7.5
v 7.5 2 7.5
v -3.5 2 6.5
v 3.5 2 6.5
v -5.5 2 5.5
v -3.5 2 5.5
v 3.5 2 5.5
v 5.5 2 5.5
v -6.5 2 3.5
v -5.5 2 3.5
v 5.5 2 3.5
v 6.5 2 3.5
v -6.5 2 -3.5
v -5.5 2 -3.5
v 5.5 2 -3.5
v 6.5 2 -3.5
v -5.5 2 -5.5
v -3.5 2 -5.5
v 3.5 2 -5.5
v 5.5 2 -5.5
v -3.5 2 -6.5
v 3.5 2 -6.5
v -7.5 2 -7.5
v 7.5 2 -7.5
v -3.5 3 6.5
v 3.5 3 6.5
v -5.5 3 5.5
v -3.5 3 5.5
v -2.5 3 5.5
v 2.5 3 5.5
v 3.5 3 5.5
v 5.5 3 5.5
v -4.5 3 4.5
v -2.5 3 4.5
v 2.5 3 4.5
v 4.5 3 4.5
v -6.5 3 3.5
v -5.5 3 3.5
v 5.5 3 3.5
v 6.5 3 3.5
v -5.5 3 2.5
v -4.5 3 2.5
v 4.5 3 2.5
v 5.5 3 2.5
v -5.5 3 -2.5
v -4.5 3 -2.5
v 4.5 3 -2.5
v 5.5 3 -2.5
v -6.5 3 -3.5
v -5.5 3 -3.5
v 5.5 3 -3.5
v 6.5 3 -3.5
v -4.5 3 -4.5
v -2.5 3 -4.5
v 2.5 3 -4.5
v 4.5 3 -4.5
v -5.5 3 -5.5
v -3.5 3 -5.5
v -2.5 3 -5.5
v 2.5 3 -5.5
v 3.5 3 -5.5
v 5.5 3 -5.5
v -3.5 3 -6.5
v 3.5 3 -6.5
v -2.5 4 5.5
v 2.5 4 5.5
v -4.5 4 4.5
v -2.5 4 4.5
v 2.5 4 4.5
v 4.5 4 4.5
v -5.5 4 2.5
v -4.5 4 2.5
v -0.5 4 2.5
v 1.5 4 2.5
v 4.5 4 2.5
v 5.5 4 2.5
v -0.5 4 1.5
v 0.5 4 1.5
v -3.5 4 0.5
v 0.5 4 0.5
v -3.5 4 -0.5
v 0.5 4 -0.5
v -0.5 4 -1.5
v 0.5 4 -1.5
v -5.5 4 -2.5
v -4.5 4 -2.5
v -0.5 4 -2.5
v 1.5 4 -2.5
v 4.5 4 -2.5
v 5.5 4 -2.5
v -4.5 4 -4.5
v -2.5 4 -4.5
v 2.5 4 -4.5
v 4.5 4 -4.5
v -2.5 4 -5.5
v 2.5 4 -5.5
v -0.5 5 2.5
v 0.5 5 2.5
v -0.5 5 1.5
v 0.5 5 1.5
v 1.5 5 1.5
v 0.5 5 0.5
v 1.5 5 0.5
v 0.5 5 -0.5
v 1.5 5 -0.5
v -0.5 5 -1.5
v 0.5 5 -1.5
v 1.5 5 -1.5
v -0.5 5 -2.5
v 0.5 5 -2.5
v -3.5 6 0.5
v -2.5 6 0.5
v -3.5 6 -0.5
v -2.5 6 -0.5
v -2.5 7 3.5
v -0.5 7 3.5
v -3.5 7 1.5
v -2.5 7 1.5
v -0.5 7 1.5
v 0.5 7 1.5
v 1.5 7 1.5
v 2.5 7 1.5
v 7.5 7 1.5
v -3.5 7 0.5
v -2.5 7 0.5
v -1.5 7 0.5
v 0.5 7 0.5
v 1.5 7 0.5
v 2.5 7 0.5
v 7.5 7 0.5
v -3.5 7 -0.5
v -2.5 7 -0.5
v -1.5 7 -0.5
v 0.5 7 -0.5
v 1.5 7 -0.5
v 2.5 7 -0.5
v 7.5 7 -0.5
v -3.5 7 -1.5
v -2.5 7 -1.5
v -0.5 7 -1.5
v 0.5 7 -1.5
v 1.5 7 -1.5
v 2.5 7 -1.5
v 7.5 7 -1.5
v -2.5 7 -3.5
v -0.5 7 -3.5
v -1.5 8 0.5
v 0.5 8 0.5
v -1.5 8 -0.5
v 0.5 8 -0.5
v 0.5 9 4.5
v 1.5 9 4.5
v -2.5 9 3.5
v -0.5 9 3.5
v -0.5 9 2.5
v 0.5 9 2.5
v 1.5 9 2.5
v 2.5 9 2.5
v -3.5 9 1.5
v -2.5 9 1.5
v -0.5 9 1.5
v 2.5 9 1.5
v 7.5 9 1.5
v -3.5 9 0.5
v -0.5 9 0.5
v 2.5 9 0.5
v 7.5 9 0.5
v -3.5 9 -0.5
v -0.5 9 -0.5
v 2.5 9 -0.5
v 7.5 9 -0.5
v -3.5 9 -1.5
v -2.5 9 -1.5
v -0.5 9 -1.5
v 2.5 9 -1.5
v 7.5 9 -1.5
v -0.5 9 -2.5
v 0.5 9 -2.5
v 1.5 9 -2.5
v 2.5 9 -2.5
v -2.5 9 -3.5
v -0.5 9 -3.5
v 0.5 9 -4.5
v 1.5 9 -4.5
v -0.5 10 2.5
v 1.5 10 2.5
v -0.5 10 -2.5
v 1.5 10 -2.5

# faces
f 3/1/1 2/1/1 1/1/1
f 4/1/1 2/1/1 3/1/1
f 7/1/1 6/1/1 5/1/1
f 8/1/1 6/1/1 7/1/1
f 13/1/1 10/1/1 9/1/1
f 14/1/1 10/1/1 13/1/1
f 17/1/1 12/1/1 11/1/1
f 18/1/1 12/1/1 17/1/1
f 19/1/1 16/1/1 15/1/1
f 20/1/1 16/1/1 19/1/1
f 25/1/1 22/1/1 21/1/1
f 26/1/1 22/1/1 25/1/1
f 27/1/1 24/1/1 23/1/1
f 28/1/1 24/1/1 27/1/1
f 33/1/1 30/1/1 29/1/1
f 34/1/1 30/1/1 33/1/1
f 35/1/1 32/1/1 31/1/1
f 36/1/1 32/1/1 35/1/1
f 40/2/1 38/2/1 37/2/1
f 41/2/1 38/2/1 40/2/1
f 43/3/1 40/3/1 39/3/1
f 44/3/1 40/3/1 43/3/1
f 45/3/1 42/3/1 41/3/1
f 46/3/1 42/3/1 45/3/1
f 51/3/1 48/3/1 47/3/1
f 52/3/1 48/3/1 51/3/1
f 53/3/1 50/3/1 49/3/1
f 54/3/1 50/3/1 53/3/1
f 59/1/1 56/1/1 55/1/1
f 60/1/1 56/1/1 59/1/1
f 61/1/1 58/1/1 57/1/1
f 62/1/1 58/1/1 61/1/1
f 69/1/1 64/1/1 63/1/1
f 70/1/1 64/1/1 69/1/1
f 71/2/1 66/2/1 65/2/1
f 72/2/1 66/2/1 71/2/1
f 73/1/1 68/1/1 67/1/1
f 74/1/1 68/1/1 73/1/1
f 79/1/1 76/1/1 75/1/1
f 80/1/1 76/1/1 79/1/1
f 81/1/1 78/1/1 77/1/1
f 82/1/1 78/1/1 81/1/1
f 85/2/1 84/2/1 83/2/1
f 86/2/1 84/2/1 85/2/1
f 91/2/1 88/2/1 87/2/1
f 92/2/1 88/2/1 91/2/1
f 93/2/1 90/2/1 89/2/1
f 94/2/1 90/2/1 93/2/1
f 101/3/1 96/3/1 95/3/1
f 101/3/1 100/3/1 99/3/1
f 101/3/1 99/3/1 98/3/1
f 101/3/1 98/3/1 97/3/1
f 101/3/1 97/3/1 96/3/1
f 102/3/1 100/3/1 101/3/1
f 109/2/1 104/2/1 103/2/1
f 110/2/1 104/2/1 109/2/1
f 111/2/1 106/2/1 105/2/1
f 112/2/1 106/2/1 111/2/1
f 115/3/1 108/3/1 107/3/1
f 115/3/1 109/3/1 108/3/1
f 116/3/1 114/3/1 113/3/1
f 116/3/1 113/3/1 112/3/1
f 117/3/1 115/3/1 107/3/1
f 118/3/1 114/3/1 116/3/1
f 119/3/1 117/3/1 107/3/1
f 122/3/1 114/3/1 118/3/1
f 123/3/1 119/3/1 107/3/1
f 124/3/1 119/3/1 123/3/1
f 125/3/1 119/3/1 124/3/1
f 126/3/1 121/3/1 120/3/1
f 127/3/1 121/3/1 126/3/1
f 128/3/1 114/3/1 122/3/1
f 129/3/1 114/3/1 128/3/1
f 130/3/1 114/3/1 129/3/1
f 135/3/1 132/3/1 131/3/1
f 136/3/1 132/3/1 135/3/1
f 137/3/1 134/3/1 133/3/1
f 138/3/1 134/3/1 137/3/1
f 143/3/1 140/3/1 139/3/1
f 143/3/1 142/3/1 141/3/1
f 143/3/1 141/3/1 140/3/1
f 144/3/1 142/3/1 143/3/1
f 145/1/2 146/1/2 149/1/2
f 149/1/2 146/1/2 150/1/2
f 147/1/2 148/1/2 151/1/2
f 151/1/2 148/1/2 152/1/2
f 153/1/2 154/1/2 157/1/2
f 157/1/2 154/1/2 158/1/2
f 158/1/2 154/1/2 159/1/2
f 155/1/2 156/1/2 160/1/2
f 160/1/2 156/1/2 161/1/2
f 161/1/2 156/1/2 162/1/2
f 163/2/2 164/2/2 165/2/2
f 165/2/2 164/2/2 166/2/2
f 167/2/2 168/2/2 170/2/2
f 170/2/2 168/2/2 171/2/2
f 169/3/2 170/3/2 173/3/2
f 173/3/2 170/3/2 174/3/2
f 171/3/2 172/3/2 175/3/2
f 175/3/2 172/3/2 176/3/2
f 174/3/2 175/3/2 177/3/2
f 177/3/2 175/3/2 178/3/2
f 179/1/2 180/1/2 183/1/2
f 183/1/2 180/1/2 184/1/2
f 181/1/2 182/1/2 185/1/2
f 185/1/2 182/1/2 186/1/2
f 187/3/2 188/3/2 189/3/2
f 189/3/2 188/3/2 190/3/2
f 190/3/2 188/3/2 191/3/2
f 191/3/2 188/3/2 192/3/2
f 187/3/2 189/3/2 193/3/2
f 190/3/2 191/3/2 194/3/2
f 194/3/2 191/3/2 195/3/2
f 192/3/2 188/3/2 196/3/2
f 194/3/2 195/3/2 197/3/2
f 195/3/2 196/3/2 197/3/2
f 187/3/2 193/3/2 197/3/2
f 193/3/2 194/3/2 197/3/2
f 197/3/2 196/3/2 198/3/2
f 198/3/2 196/3/2 199/3/2
f 196/3/2 188/3/2 200/3/2
f 199/3/2 196/3/2 200/3/2
f 187/3/2 197/3/2 201/3/2
f 201/3/2 197/3/2 202/3/2
f 198/3/2 199/3/2 203/3/2
f 203/3/2 199/3/2 204/3/2
f 200/3/2 188/3/2 205/3/2
f 205/3/2 188/3/2 206/3/2
f 207/1/2 208/1/2 211/1/2
f 211/1/2 208/1/2 212/1/2
f 209/1/2 210/1/2 213/1/2
f 213/1/2 210/1/2 214/1/2
f 215/1/2 216/1/2 219/1/2
f 219/1/2 216/1/2 220/1/2
f 217/1/2 218/1/2 221/1/2
f 221/1/2 218/1/2 222/1/2
f 223/1/2 224/1/2 227/1/2
f 227/1/2 224/1/2 228/1/2
f 225/1/2 226/1/2 231/1/2
f 231/1/2 226/1/2 232/1/2
f 229/1/2 230/1/2 233/1/2
f 233/1/2 230/1/2 234/1/2
f 235/1/2 236/1/2 237/1/2
f 237/1/2 236/1/2 238/1/2
f 239/1/2 240/1/2 241/1/2
f 241/1/2 240/1/2 242/1/2
f 243/3/2 244/3/2 247/3/2
f 247/3/2 244/3/2 248/3/2
f 245/3/2 246/3/2 249/3/2
f 249/3/2 246/3/2 250/3/2
f 251/3/2 252/3/2 255/3/2
f 255/3/2 252/3/2 256/3/2
f 253/3/2 254/3/2 257/3/2
f 257/3/2 254/3/2 258/3/2
f 261/1/3 260/1/3 259/1/3
f 262/1/3 260/1/3 261/1/3
f 265/1/3 264/1/3 263/1/3
f 266/1/3 264/1/3 265/1/3
f 269/1/3 268/1/3 267/1/3
f 270/1/3 268/1/3 269/1/3
f 273/1/3 272/1/3 271/1/3
f 274/1/3 272/1/3 273/1/3
f 277/1/3 276/1/3 275/1/3
f 278/1/3 276/1/3 277/1/3
f 281/1/3 280/1/3 279/1/3
f 282/1/3 280/1/3 281/1/3
f 285/3/3 284/3/3 283/3/3
f 286/3/3 284/3/3 285/3/3
f 289/1/3 288/1/3 287/1/3
f 290/1/3 288/1/3 289/1/3
f 293/1/3 292/1/3 291/1/3
f 294/1/3 292/1/3 293/1/3
f 299/1/3 296/1/3 295/1/3
f 300/1/3 296/1/3 299/1/3
f 301/1/3 298/1/3 297/1/3
f 302/1/3 298/1/3 301/1/3
f 305/1/3 304/1/3 303/1/3
f 306/1/3 304/1/3 305/1/3
f 309/1/3 308/1/3 307/1/3
f 310/1/3 308/1/3 309/1/3
f 315/2/3 312/2/3 311/2/3
f 316/3/3 314/3/3 313/3/3
f 317/2/3 315/2/3 311/2/3
f 318/2/3 315/2/3 317/2/3
f 319/3/3 314/3/3 316/3/3
f 320/3/3 314/3/3 319/3/3
f 321/3/3 319/3/3 318/3/3
f 322/3/3 319/3/3 321/3/3
f 325/1/3 324/1/3 323/1/3
f 326/1/3 324/1/3 325/1/3
f 331/3/3 328/3/3 327/3/3
f 332/3/3 328/3/3 331/3/3
f 333/3/3 330/3/3 329/3/3
f 334/3/3 330/3/3 333/3/3
f 339/3/3 336/3/3 335/3/3
f 340/3/3 336/3/3 339/3/3
f 341/3/3 338/3/3 337/3/3
f 342/3/3 338/3/3 341/3/3
f 347/3/3 344/3/3 343/3/3
f 348/3/3 344/3/3 347/3/3
f 349/3/3 346/3/3 345/3/3
f 350/3/3 346/3/3 349/3/3
f 355/2/3 352/2/3 351/2/3
f 356/2/3 352/2/3 355/2/3
f 357/2/3 354/2/3 353/2/3
f 358/2/3 354/2/3 357/2/3
f 359/2/3 352/2/3 356/2/3
f 360/2/3 352/2/3 359/2/3
f 365/3/3 362/3/3 361/3/3
f 366/3/3 362/3/3 365/3/3
f 367/3/3 364/3/3 363/3/3
f 368/3/3 364/3/3 367/3/3
f 369/3/3 368/3/3 367/3/3
f 370/3/3 368/3/3 369/3/3
f 375/3/3 372/3/3 371/3/3
f 376/3/3 372/3/3 375/3/3
f 377/3/3 374/3/3 373/3/3
f 378/3/3 374/3/3 377/3/3
f 381/2/3 380/2/3 379/2/3
f 382/2/3 380/2/3 381/2/3
f 386/3/3 383/3/3 382/3/3
f 387/3/3 383/3/3 386/3/3
f 388/3/3 385/3/3 384/3/3
f 389/3/3 385/3/3 388/3/3
f 390/2/4 391/2/4 392/2/4
f 392/2/4 391/2/4 393/2/4
f 393/3/4 394/3/4 397/3/4
f 397/3/4 394/3/4 398/3/4
f 395/3/4 396/3/4 399/3/4
f 399/3/4 396/3/4 400/3/4
f 401/3/4 402/3/4 405/3/4
f 405/3/4 402/3/4 406/3/4
f 403/3/4 404/3/4 407/3/4
f 407/3/4 404/3/4 408/3/4
f 407/3/4 408/3/4 409/3/4
f 409/3/4 408/3/4 410/3/4
f 411/3/4 412/3/4 415/3/4
f 415/3/4 412/3/4 416/3/4
f 413/3/4 414/3/4 417/3/4
f 417/3/4 414/3/4 418/3/4
f 419/2/4 420/2/4 423/2/4
f 423/2/4 420/2/4 424/2/4
f 421/2/4 422/2/4 425/2/4
f 425/2/4 422/2/4 426/2/4
f 424/2/4 420/2/4 427/2/4
f 427/2/4 420/2/4 428/2/4
f 429/3/4 430/3/4 433/3/4
f 433/3/4 430/3/4 434/3/4
f 431/3/4 432/3/4 435/3/4
f 435/3/4 432/3/4 436/3/4
f 437/3/4 438/3/4 441/3/4
f 441/3/4 438/3/4 442/3/4
f 439/3/4 440/3/4 443/3/4
f 443/3/4 440/3/4 444/3/4
f 445/3/4 446/3/4 449/3/4
f 449/3/4 446/3/4 450/3/4
f 447/3/4 448/3/4 451/3/4
f 451/3/4 448/3/4 452/3/4
f 453/1/4 454/1/4 455/1/4
f 455/1/4 454/1/4 456/1/4
f 457/2/4 458/2/4 461/2/4
f 459/3/4 460/3/4 462/3/4
f 457/2/4 461/2/4 463/2/4
f 463/2/4 461/2/4 464/2/4
f 462/3/4 460/3/4 465/3/4
f 465/3/4 460/3/4 466/3/4
f 464/3/4 465/3/4 467/3/4
f 467/3/4 465/3/4 468/3/4
f 469/1/4 470/1/4 471/1/4
f 471/1/4 470/1/4 472/1/4
f 473/1/4 474/1/4 475/1/4
f 475/1/4 474/1/4 476/1/4
f 477/1/4 478/1/4 481/1/4
f 481/1/4 478/1/4 482/1/4
f 479/1/4 480/1/4 483/1/4
f 483/1/4 480/1/4 484/1/4
f 485/1/4 486/1/4 487/1/4
f 487/1/4 486/1/4 488/1/4
f 489/1/4 490/1/4 491/1/4
f 491/1/4 490/1/4 492/1/4
f 493/3/4 494/3/4 495/3/4
f 495/3/4 494/3/4 496/3/4
f 497/1/4 498/1/4 499/1/4
f 499/1/4 498/1/4 500/1/4
f 501/1/4 502/1/4 503/1/4
f 503/1/4 502/1/4 504/1/4
f 505/1/4 506/1/4 507/1/4
f 507/1/4 506/1/4 508/1/4
f 509/1/4 510/1/4 511/1/4
f 511/1/4 510/1/4 512/1/4
f 513/1/4 514/1/4 515/1/4
f 515/1/4 514/1/4 516/1/4
f 517/1/4 518/1/4 519/1/4
f 519/1/4 518/1/4 520/1/4
f 523/1/5 522/1/5 521/1/5
f 524/1/5 522/1/5 523/1/5
f 527/3/5 526/3/5 525/3/5
f 528/3/5 526/3/5 527/3/5
f 531/3/5 529/3/5 528/3/5
f 532/3/5 529/3/5 531/3/5
f 533/3/5 531/3/5 530/3/5
f 534/3/5 531/3/5 533/3/5
f 538/1/5 536/1/5 535/1/5
f 539/1/5 536/1/5 538/1/5
f 544/3/5 538/3/5 537/3/5
f 544/3/5 539/3/5 538/3/5
f 544/3/5 541/3/5 540/3/5
f 544/3/5 540/3/5 539/3/5
f 545/3/5 541/3/5 544/3/5
f 546/3/5 543/3/5 542/3/5
f 547/3/5 543/3/5 546/3/5
f 552/3/5 549/3/5 548/3/5
f 553/3/5 549/3/5 552/3/5
f 554/3/5 549/3/5 553/3/5
f 555/3/5 549/3/5 554/3/5
f 556/3/5 549/3/5 555/3/5
f 557/3/5 551/3/5 550/3/5
f 558/3/5 551/3/5 557/3/5
f 559/1/5 554/1/5 553/1/5
f 560/1/5 554/1/5 559/1/5
f 564/1/5 562/1/5 561/1/5
f 565/1/5 562/1/5 564/1/5
f 570/3/5 564/3/5 563/3/5
f 570/3/5 565/3/5 564/3/5
f 570/3/5 567/3/5 566/3/5
f 570/3/5 566/3/5 565/3/5
f 571/3/5 567/3/5 570/3/5
f 572/3/5 567/3/5 571/3/5
f 573/3/5 569/3/5 568/3/5
f 574/3/5 569/3/5 573/3/5
f 577/3/5 567/3/5 572/3/5
f 580/3/5 576/3/5 575/3/5
f 580/3/5 577/3/5 576/3/5
f 581/3/5 577/3/5 580/3/5
f 582/3/5 577/3/5 581/3/5
f 583/3/5 567/3/5 577/3/5
f 583/3/5 577/3/5 582/3/5
f 584/3/5 567/3/5 583/3/5
f 585/3/5 579/3/5 578/3/5
f 586/3/5 579/3/5 585/3/5
f 587/1/5 582/1/5 581/1/5
f 588/1/5 582/1/5 587/1/5
f 591/3/5 590/3/5 589/3/5
f 592/3/5 590/3/5 591/3/5
f 595/3/5 594/3/5 593/3/5
f 596/3/5 594/3/5 595/3/5
f 599/3/5 598/3/5 597/3/5
f 600/3/5 598/3/5 599/3/5
f 601/1/6 602/1/6 603/1/6
f 603/1/6 602/1/6 604/1/6
f 601/1/6 603/1/6 605/1/6
f 605/1/6 603/1/6 606/1/6
f 604/1/6 602/1/6 607/1/6
f 607/1/6 602/1/6 608/1/6
f 601/1/6 605/1/6 609/1/6
f 609/1/6 605/1/6 610/1/6
f 608/1/6 602/1/6 611/1/6
f 611/1/6 602/1/6 612/1/6
f 601/1/6 609/1/6 613/1/6
f 612/1/6 602/1/6 616/1/6
f 613/1/6 614/1/6 617/1/6
f 615/1/6 616/1/6 620/1/6
f 617/1/6 618/1/6 621/1/6
f 619/1/6 620/1/6 622/1/6
f 617/1/6 621/1/6 623/1/6
f 621/1/6 622/1/6 623/1/6
f 601/1/6 613/1/6 623/1/6
f 613/1/6 617/1/6 623/1/6
f 622/1/6 620/1/6 624/1/6
f 623/1/6 622/1/6 624/1/6
f 616/1/6 602/1/6 624/1/6
f 620/1/6 616/1/6 624/1/6
f 625/1/6 626/1/6 628/1/6
f 628/1/6 626/1/6 629/1/6
f 629/1/6 626/1/6 630/1/6
f 630/1/6 626/1/6 631/1/6
f 627/1/6 628/1/6 633/1/6
f 628/1/6 629/1/6 633/1/6
f 633/1/6 629/1/6 634/1/6
f 631/1/6 632/1/6 635/1/6
f 630/1/6 631/1/6 635/1/6
f 635/1/6 632/1/6 636/1/6
f 627/1/6 633/1/6 638/1/6
f 636/1/6 632/1/6 639/1/6
f 637/1/6 638/1/6 641/1/6
f 638/1/6 633/1/6 641/1/6
f 641/1/6 633/1/6 642/1/6
f 639/1/6 640/1/6 643/1/6
f 636/1/6 639/1/6 643/1/6
f 643/1/6 640/1/6 644/1/6
f 637/1/6 641/1/6 645/1/6
f 644/1/6 640/1/6 648/1/6
f 645/1/6 646/1/6 649/1/6
f 637/1/6 645/1/6 649/1/6
f 649/1/6 646/1/6 650/1/6
f 647/1/6 648/1/6 651/1/6
f 648/1/6 640/1/6 651/1/6
f 651/1/6 640/1/6 652/1/6
f 650/1/6 646/1/6 653/1/6
f 647/1/6 651/1/6 656/1/6
f 653/1/6 654/1/6 657/1/6
f 650/1/6 653/1/6 657/1/6
f 657/1/6 654/1/6 658/1/6
f 658/1/6 654/1/6 659/1/6
f 655/1/6 656/1/6 660/1/6
f 660/1/6 656/1/6 661/1/6
f 656/1/6 651/1/6 662/1/6
f 661/1/6 656/1/6 662/1/6
f 658/1/6 659/1/6 663/1/6
f 660/1/6 661/1/6 663/1/6
f 659/1/6 660/1/6 663/1/6
f 663/1/6 661/1/6 664/1/6
f 665/1/6 666/1/6 668/1/6
f 668/1/6 666/1/6 669/1/6
f 667/1/6 668/1/6 672/1/6
f 669/1/6 670/1/6 672/1/6
f 668/1/6 669/1/6 672/1/6
f 672/1/6 670/1/6 673/1/6
f 673/1/6 670/1/6 674/1/6
f 674/1/6 670/1/6 675/1/6
f 671/1/6 672/1/6 677/1/6
f 672/1/6 673/1/6 677/1/6
f 671/1/6 677/1/6 679/1/6
f 677/1/6 678/1/6 679/1/6
f 679/1/6 678/1/6 680/1/6
f 671/1/6 679/1/6 681/1/6
f 681/1/6 682/1/6 683/1/6
f 683/1/6 682/1/6 684/1/6
f 671/1/6 681/1/6 685/1/6
f 681/1/6 683/1/6 685/1/6
f 685/1/6 683/1/6 686/1/6
f 686/1/6 683/1/6 687/1/6
f 675/1/6 676/1/6 688/1/6
f 674/1/6 675/1/6 688/1/6
f 688/1/6 676/1/6 689/1/6
f 689/1/6 676/1/6 690/1/6
f 686/1/6 687/1/6 691/1/6
f 688/1/6 689/1/6 691/1/6
f 687/1/6 688/1/6 691/1/6
f 691/1/6 689/1/6 692/1/6
f 692/1/6 689/1/6 693/1/6
f 693/1/6 689/1/6 694/1/6
f 692/1/6 693/1/6 695/1/6
f 695/1/6 693/1/6 696/1/6
f 697/2/6 698/2/6 699/2/6
f 699/2/6 698/2/6 700/2/6
f 700/2/6 701/2/6 702/2/6
f 702/2/6 701/2/6 703/2/6
f 704/2/6 705/2/6 707/2/6
f 707/2/6 705/2/6 708/2/6
f 706/2/6 707/2/6 709/2/6
f 709/2/6 707/2/6 710/2/6
f 711/2/6 712/2/6 713/2/6
f 713/2/6 712/2/6 714/2/6
f 715/1/6 716/1/6 718/1/6
f 718/1/6 716/1/6 719/1/6
f 717/3/6 718/3/6 724/3/6
f 718/3/6 719/3/6 724/3/6
f 720/3/6 721/3/6 724/3/6
f 719/3/6 720/3/6 724/3/6
f 724/3/6 721/3/6 725/3/6
f 725/3/6 721/3/6 726/3/6
f 726/3/6 721/3/6 727/3/6
f 727/3/6 721/3/6 728/3/6
f 722/3/6 723/3/6 729/3/6
f 729/3/6 723/3/6 730/3/6
f 725/2/6 726/2/6 732/2/6
f 732/2/6 726/2/6 733/2/6
f 727/2/6 728/2/6 734/2/6
f 734/2/6 728/2/6 735/2/6
f 732/3/6 733/3/6 738/3/6
f 731/3/6 732/3/6 738/3/6
f 734/3/6 735/3/6 738/3/6
f 733/3/6 734/3/6 738/3/6
f 738/3/6 735/3/6 739/3/6
f 739/3/6 735/3/6 740/3/6
f 740/3/6 735/3/6 741/3/6
f 741/3/6 735/3/6 742/3/6
f 736/3/6 737/3/6 743/3/6
f 743/3/6 737/3/6 744/3/6
f 739/1/6 740/1/6 745/1/6
f 745/1/6 740/1/6 746/1/6
f 747/2/6 748/2/6 749/2/6
f 749/2/6 748/2/6 750/2/6
f 753/1/6 754/1/6 755/1/6
f 751/3/6 752/3/6 756/3/6
f 756/3/6 752/3/6 757/3/6
f 753/1/6 755/1/6 760/1/6
f 760/1/6 755/1/6 761/1/6
f 757/3/6 758/3/6 762/3/6
f 760/3/6 761/3/6 764/3/6
f 759/3/6 760/3/6 764/3/6
f 764/3/6 761/3/6 765/3/6
f 762/3/6 763/3/6 766/3/6
f 757/3/6 762/3/6 766/3/6
f 766/3/6 763/3/6 767/3/6
f 757/3/6 766/3/6 770/3/6
f 768/3/6 769/3/6 772/3/6
f 772/3/6 769/3/6 773/3/6
f 773/3/6 769/3/6 774/3/6
f 770/3/6 771/3/6 775/3/6
f 757/3/6 770/3/6 775/3/6
f 775/3/6 771/3/6 776/3/6
f 773/1/6 774/1/6 777/1/6
f 757/3/6 775/3/6 779/3/6
f 779/3/6 775/3/6 780/3/6
f 773/1/6 777/1/6 781/1/6
f 781/1/6 777/1/6 782/1/6
f 778/3/6 779/3/6 783/3/6
f 783/3/6 779/3/6 784/3/6
f 785/3/6 786/3/6 787/3/6
f 787/3/6 786/3/6 788/3/6
