# MagicaVoxel @ Ephtracy

# group
g Rocket

# material
mtllib Rocket.mtl
usemtl palette

# normals
vn -1 0 0
vn 1 0 0
vn 0 0 1
vn 0 0 -1
vn 0 -1 0
vn 0 1 0

# texcoords
vt 0.00195313 0.5
vt 0.134766 0.5

# verts
v -5.5 1 0.5
v -5.5 1 -0.5
v -5.5 2 0.5
v -5.5 2 -0.5
v -4.5 0 0.5
v -4.5 0 -0.5
v -4.5 1 1.5
v -4.5 1 0.5
v -4.5 1 -0.5
v -4.5 1 -1.5
v -4.5 2 1.5
v -4.5 2 0.5
v -4.5 2 -0.5
v -4.5 2 -1.5
v -4.5 3 0.5
v -4.5 3 -0.5
v -2.5 0 1.5
v -2.5 0 0.5
v -2.5 0 -0.5
v -2.5 0 -1.5
v -2.5 1 1.5
v -2.5 1 0.5
v -2.5 1 -0.5
v -2.5 1 -1.5
v -2.5 2 1.5
v -2.5 2 0.5
v -2.5 2 -0.5
v -2.5 2 -1.5
v -2.5 3 1.5
v -2.5 3 0.5
v -2.5 3 -0.5
v -2.5 3 -1.5
v 3.5 1 2.5
v 3.5 1 1.5
v 3.5 1 -1.5
v 3.5 1 -2.5
v 3.5 2 2.5
v 3.5 2 1.5
v 3.5 2 -1.5
v 3.5 2 -2.5
v 5.5 0 1.5
v 5.5 0 -1.5
v 5.5 1 2.5
v 5.5 1 1.5
v 5.5 1 -1.5
v 5.5 1 -2.5
v 5.5 2 2.5
v 5.5 2 1.5
v 5.5 2 -1.5
v 5.5 2 -2.5
v 5.5 3 1.5
v 5.5 3 -1.5
v 3.5 1 2.5
v 3.5 2 2.5
v 5.5 1 2.5
v 5.5 2 2.5
v -4.5 1 1.5
v -4.5 2 1.5
v -2.5 0 1.5
v -2.5 1 1.5
v -2.5 2 1.5
v -2.5 3 1.5
v -1.5 0 1.5
v -1.5 3 1.5
v 3.5 1 1.5
v 3.5 2 1.5
v 5.5 0 1.5
v 5.5 1 1.5
v 5.5 2 1.5
v 5.5 3 1.5
v -5.5 1 0.5
v -5.5 2 0.5
v -4.5 0 0.5
v -4.5 1 0.5
v -4.5 2 0.5
v -4.5 3 0.5
v -2.5 0 0.5
v -2.5 1 0.5
v -2.5 2 0.5
v -2.5 3 0.5
v -5.5 1 -0.5
v -5.5 2 -0.5
v -4.5 0 -0.5
v -4.5 1 -0.5
v -4.5 2 -0.5
v -4.5 3 -0.5
v -2.5 0 -0.5
v -2.5 1 -0.5
v -2.5 2 -0.5
v -2.5 3 -0.5
v -4.5 1 -1.5
v -4.5 2 -1.5
v -2.5 0 -1.5
v -2.5 1 -1.5
v -2.5 2 -1.5
v -2.5 3 -1.5
v -1.5 0 -1.5
v -1.5 3 -1.5
v 3.5 1 -1.5
v 3.5 2 -1.5
v 5.5 0 -1.5
v 5.5 1 -1.5
v 5.5 2 -1.5
v 5.5 3 -1.5
v 3.5 1 -2.5
v 3.5 2 -2.5
v 5.5 1 -2.5
v 5.5 2 -2.5
v -2.5 0 1.5
v -1.5 0 1.5
v 5.5 0 1.5
v -4.5 0 0.5
v -2.5 0 0.5
v -4.5 0 -0.5
v -2.5 0 -0.5
v -2.5 0 -1.5
v -1.5 0 -1.5
v 5.5 0 -1.5
v 3.5 1 2.5
v 5.5 1 2.5
v -4.5 1 1.5
v -2.5 1 1.5
v 3.5 1 1.5
v 5.5 1 1.5
v -5.5 1 0.5
v -4.5 1 0.5
v -2.5 1 0.5
v -5.5 1 -0.5
v -4.5 1 -0.5
v -2.5 1 -0.5
v -4.5 1 -1.5
v -2.5 1 -1.5
v 3.5 1 -1.5
v 5.5 1 -1.5
v 3.5 1 -2.5
v 5.5 1 -2.5
v 3.5 2 2.5
v 5.5 2 2.5
v -4.5 2 1.5
v -2.5 2 1.5
v 3.5 2 1.5
v 5.5 2 1.5
v -5.5 2 0.5
v -4.5 2 0.5
v -2.5 2 0.5
v -5.5 2 -0.5
v -4.5 2 -0.5
v -2.5 2 -0.5
v -4.5 2 -1.5
v -2.5 2 -1.5
v 3.5 2 -1.5
v 5.5 2 -1.5
v 3.5 2 -2.5
v 5.5 2 -2.5
v -2.5 3 1.5
v -1.5 3 1.5
v 5.5 3 1.5
v -4.5 3 0.5
v -2.5 3 0.5
v -4.5 3 -0.5
v -2.5 3 -0.5
v -2.5 3 -1.5
v -1.5 3 -1.5
v 5.5 3 -1.5

# faces
f 3/2/1 2/2/1 1/2/1
f 4/2/1 2/2/1 3/2/1
f 8/2/1 6/2/1 5/2/1
f 9/2/1 6/2/1 8/2/1
f 11/2/1 8/2/1 7/2/1
f 12/2/1 8/2/1 11/2/1
f 13/2/1 10/2/1 9/2/1
f 14/2/1 10/2/1 13/2/1
f 15/2/1 13/2/1 12/2/1
f 16/2/1 13/2/1 15/2/1
f 21/2/1 18/2/1 17/2/1
f 22/2/1 18/2/1 21/2/1
f 23/2/1 20/2/1 19/2/1
f 24/2/1 20/2/1 23/2/1
f 29/2/1 26/2/1 25/2/1
f 30/2/1 26/2/1 29/2/1
f 31/2/1 28/2/1 27/2/1
f 32/2/1 28/2/1 31/2/1
f 37/1/1 34/1/1 33/1/1
f 38/1/1 34/1/1 37/1/1
f 39/1/1 36/1/1 35/1/1
f 40/1/1 36/1/1 39/1/1
f 41/1/2 42/1/2 44/1/2
f 44/1/2 42/1/2 45/1/2
f 43/1/2 44/1/2 47/1/2
f 45/1/2 46/1/2 47/1/2
f 44/1/2 45/1/2 47/1/2
f 47/1/2 46/1/2 48/1/2
f 48/1/2 46/1/2 49/1/2
f 49/1/2 46/1/2 50/1/2
f 48/1/2 49/1/2 51/1/2
f 51/1/2 49/1/2 52/1/2
f 55/1/3 54/1/3 53/1/3
f 56/1/3 54/1/3 55/1/3
f 60/2/3 58/2/3 57/2/3
f 61/2/3 58/2/3 60/2/3
f 63/2/3 60/2/3 59/2/3
f 63/2/3 62/2/3 61/2/3
f 63/2/3 61/2/3 60/2/3
f 64/2/3 62/2/3 63/2/3
f 65/1/3 64/1/3 63/1/3
f 66/1/3 64/1/3 65/1/3
f 67/1/3 65/1/3 63/1/3
f 68/1/3 65/1/3 67/1/3
f 69/1/3 64/1/3 66/1/3
f 70/1/3 64/1/3 69/1/3
f 74/2/3 72/2/3 71/2/3
f 75/2/3 72/2/3 74/2/3
f 77/2/3 74/2/3 73/2/3
f 78/2/3 74/2/3 77/2/3
f 79/2/3 76/2/3 75/2/3
f 80/2/3 76/2/3 79/2/3
f 81/2/4 82/2/4 84/2/4
f 84/2/4 82/2/4 85/2/4
f 83/2/4 84/2/4 87/2/4
f 87/2/4 84/2/4 88/2/4
f 85/2/4 86/2/4 89/2/4
f 89/2/4 86/2/4 90/2/4
f 91/2/4 92/2/4 94/2/4
f 94/2/4 92/2/4 95/2/4
f 93/2/4 94/2/4 97/2/4
f 95/2/4 96/2/4 97/2/4
f 94/2/4 95/2/4 97/2/4
f 97/2/4 96/2/4 98/2/4
f 97/1/4 98/1/4 99/1/4
f 99/1/4 98/1/4 100/1/4
f 97/1/4 99/1/4 101/1/4
f 101/1/4 99/1/4 102/1/4
f 100/1/4 98/1/4 103/1/4
f 103/1/4 98/1/4 104/1/4
f 105/1/4 106/1/4 107/1/4
f 107/1/4 106/1/4 108/1/4
f 113/2/5 110/2/5 109/2/5
f 114/2/5 113/2/5 112/2/5
f 115/2/5 110/2/5 113/2/5
f 115/2/5 113/2/5 114/2/5
f 116/2/5 110/2/5 115/2/5
f 117/1/5 111/1/5 110/1/5
f 117/2/5 110/2/5 116/2/5
f 118/1/5 111/1/5 117/1/5
f 123/1/5 120/1/5 119/1/5
f 124/1/5 120/1/5 123/1/5
f 126/2/5 122/2/5 121/2/5
f 127/2/5 122/2/5 126/2/5
f 128/2/5 126/2/5 125/2/5
f 129/2/5 126/2/5 128/2/5
f 131/2/5 130/2/5 129/2/5
f 132/2/5 130/2/5 131/2/5
f 135/1/5 134/1/5 133/1/5
f 136/1/5 134/1/5 135/1/5
f 137/1/6 138/1/6 141/1/6
f 141/1/6 138/1/6 142/1/6
f 139/2/6 140/2/6 144/2/6
f 144/2/6 140/2/6 145/2/6
f 143/2/6 144/2/6 146/2/6
f 146/2/6 144/2/6 147/2/6
f 147/2/6 148/2/6 149/2/6
f 149/2/6 148/2/6 150/2/6
f 151/1/6 152/1/6 153/1/6
f 153/1/6 152/1/6 154/1/6
f 155/2/6 156/2/6 159/2/6
f 158/2/6 159/2/6 160/2/6
f 159/2/6 156/2/6 161/2/6
f 160/2/6 159/2/6 161/2/6
f 161/2/6 156/2/6 162/2/6
f 156/1/6 157/1/6 163/1/6
f 162/2/6 156/2/6 163/2/6
f 163/1/6 157/1/6 164/1/6
