# MagicaVoxel @ Ephtracy

# group
g rocketlauncher

# material
mtllib rocketlauncher.mtl
usemtl palette

# normals
vn -1 0 0
vn 1 0 0
vn 0 0 1
vn 0 0 -1
vn 0 -1 0
vn 0 1 0

# texcoords
vt 0.861328 0.5
vt 0.986328 0.5
vt 0.994141 0.5

# verts
v -7.5 0 7.5
v -7.5 0 -7.5
v -7.5 2 7.5
v -7.5 2 -7.5
v -6.5 2 3.5
v -6.5 2 -3.5
v -6.5 3 3.5
v -6.5 3 -3.5
v -5.5 2 5.5
v -5.5 2 3.5
v -5.5 2 -3.5
v -5.5 2 -5.5
v -5.5 3 5.5
v -5.5 3 3.5
v -5.5 3 2.5
v -5.5 3 -2.5
v -5.5 3 -3.5
v -5.5 3 -5.5
v -5.5 4 2.5
v -5.5 4 -2.5
v -4.5 3 4.5
v -4.5 3 2.5
v -4.5 3 -2.5
v -4.5 3 -4.5
v -4.5 4 4.5
v -4.5 4 2.5
v -4.5 4 1.5
v -4.5 4 -1.5
v -4.5 4 -2.5
v -4.5 4 -4.5
v -4.5 5 1.5
v -4.5 5 -1.5
v -3.5 2 6.5
v -3.5 2 5.5
v -3.5 2 -5.5
v -3.5 2 -6.5
v -3.5 3 6.5
v -3.5 3 5.5
v -3.5 3 -5.5
v -3.5 3 -6.5
v -3.5 4 3.5
v -3.5 4 1.5
v -3.5 4 -1.5
v -3.5 4 -3.5
v -3.5 5 3.5
v -3.5 5 1.5
v -3.5 5 -1.5
v -3.5 5 -3.5
v -3.5 6 4.5
v -3.5 6 -4.5
v -3.5 8 4.5
v -3.5 8 -4.5
v -3.5 9 3.5
v -3.5 9 2.5
v -3.5 9 1.5
v -3.5 9 0.5
v -3.5 9 -0.5
v -3.5 9 -1.5
v -3.5 9 -2.5
v -3.5 9 -3.5
v -3.5 10 3.5
v -3.5 10 2.5
v -3.5 10 1.5
v -3.5 10 0.5
v -3.5 10 -0.5
v -3.5 10 -1.5
v -3.5 10 -2.5
v -3.5 10 -3.5
v -3.5 11 3.5
v -3.5 11 2.5
v -3.5 11 1.5
v -3.5 11 0.5
v -3.5 11 -0.5
v -3.5 11 -1.5
v -3.5 11 -2.5
v -3.5 11 -3.5
v -3.5 12 3.5
v -3.5 12 2.5
v -3.5 12 1.5
v -3.5 12 0.5
v -3.5 12 -0.5
v -3.5 12 -1.5
v -3.5 12 -2.5
v -3.5 12 -3.5
v -2.5 3 5.5
v -2.5 3 4.5
v -2.5 3 -4.5
v -2.5 3 -5.5
v -2.5 4 5.5
v -2.5 4 4.5
v -2.5 4 -4.5
v -2.5 4 -5.5
v -2.5 9 2.5
v -2.5 9 1.5
v -2.5 9 0.5
v -2.5 9 -0.5
v -2.5 9 -1.5
v -2.5 9 -2.5
v -2.5 10 3.5
v -2.5 10 2.5
v -2.5 10 1.5
v -2.5 10 0.5
v -2.5 10 -0.5
v -2.5 10 -1.5
v -2.5 10 -2.5
v -2.5 10 -3.5
v -2.5 11 3.5
v -2.5 11 2.5
v -2.5 11 1.5
v -2.5 11 0.5
v -2.5 11 -0.5
v -2.5 11 -1.5
v -2.5 11 -2.5
v -2.5 11 -3.5
v -2.5 12 2.5
v -2.5 12 1.5
v -2.5 12 0.5
v -2.5 12 -0.5
v -2.5 12 -1.5
v -2.5 12 -2.5
v -1.5 4 4.5
v -1.5 4 3.5
v -1.5 4 -3.5
v -1.5 4 -4.5
v -1.5 5 3.5
v -1.5 5 -3.5
v -1.5 6 4.5
v -1.5 6 3.5
v -1.5 6 -3.5
v -1.5 6 -4.5
v -1.5 8 4.5
v -1.5 8 3.5
v -1.5 8 -3.5
v -1.5 8 -4.5
v -1.5 9 3.5
v -1.5 9 -3.5
v -1.5 11 4.5
v -1.5 11 3.5
v -1.5 11 -3.5
v -1.5 11 -4.5
v 4.5 6 3.5
v 4.5 6 -3.5
v 4.5 8 3.5
v 4.5 8 -3.5
v -2.5 6 3.5
v -2.5 6 -3.5
v -2.5 8 3.5
v -2.5 8 -3.5
v 0.5 9 4.5
v 0.5 9 3.5
v 0.5 9 -3.5
v 0.5 9 -4.5
v 0.5 11 4.5
v 0.5 11 3.5
v 0.5 11 -3.5
v 0.5 11 -4.5
v 1.5 4 4.5
v 1.5 4 3.5
v 1.5 4 -3.5
v 1.5 4 -4.5
v 1.5 5 3.5
v 1.5 5 -3.5
v 1.5 6 4.5
v 1.5 6 3.5
v 1.5 6 -3.5
v 1.5 6 -4.5
v 1.5 8 4.5
v 1.5 8 3.5
v 1.5 8 -3.5
v 1.5 8 -4.5
v 1.5 9 4.5
v 1.5 9 3.5
v 1.5 9 -3.5
v 1.5 9 -4.5
v 2.5 3 5.5
v 2.5 3 4.5
v 2.5 3 -4.5
v 2.5 3 -5.5
v 2.5 4 5.5
v 2.5 4 4.5
v 2.5 4 -4.5
v 2.5 4 -5.5
v 3.5 2 6.5
v 3.5 2 5.5
v 3.5 2 -5.5
v 3.5 2 -6.5
v 3.5 3 6.5
v 3.5 3 5.5
v 3.5 3 -5.5
v 3.5 3 -6.5
v 3.5 4 3.5
v 3.5 4 1.5
v 3.5 4 -1.5
v 3.5 4 -3.5
v 3.5 5 3.5
v 3.5 5 1.5
v 3.5 5 -1.5
v 3.5 5 -3.5
v 3.5 9 3.5
v 3.5 9 -3.5
v 3.5 12 3.5
v 3.5 12 -3.5
v 4.5 3 4.5
v 4.5 3 2.5
v 4.5 3 -2.5
v 4.5 3 -4.5
v 4.5 4 4.5
v 4.5 4 2.5
v 4.5 4 1.5
v 4.5 4 -1.5
v 4.5 4 -2.5
v 4.5 4 -4.5
v 4.5 5 1.5
v 4.5 5 -1.5
v 5.5 2 5.5
v 5.5 2 3.5
v 5.5 2 -3.5
v 5.5 2 -5.5
v 5.5 3 5.5
v 5.5 3 3.5
v 5.5 3 2.5
v 5.5 3 -2.5
v 5.5 3 -3.5
v 5.5 3 -5.5
v 5.5 4 2.5
v 5.5 4 -2.5
v 5.5 6 4.5
v 5.5 6 -4.5
v 5.5 8 4.5
v 5.5 8 -4.5
v 6.5 2 3.5
v 6.5 2 -3.5
v 6.5 3 3.5
v 6.5 3 -3.5
v 7.5 0 7.5
v 7.5 0 -7.5
v 7.5 2 7.5
v 7.5 2 -7.5
v -7.5 0 7.5
v -7.5 2 7.5
v 7.5 0 7.5
v 7.5 2 7.5
v -3.5 2 6.5
v -3.5 3 6.5
v 3.5 2 6.5
v 3.5 3 6.5
v -5.5 2 5.5
v -5.5 3 5.5
v -3.5 2 5.5
v -3.5 3 5.5
v -2.5 3 5.5
v -2.5 4 5.5
v 2.5 3 5.5
v 2.5 4 5.5
v 3.5 2 5.5
v 3.5 3 5.5
v 5.5 2 5.5
v 5.5 3 5.5
v -4.5 3 4.5
v -4.5 4 4.5
v -3.5 6 4.5
v -3.5 8 4.5
v -2.5 3 4.5
v -2.5 4 4.5
v -1.5 4 4.5
v -1.5 6 4.5
v -1.5 8 4.5
v -1.5 11 4.5
v 0.5 9 4.5
v 0.5 11 4.5
v 1.5 4 4.5
v 1.5 6 4.5
v 1.5 8 4.5
v 1.5 9 4.5
v 2.5 3 4.5
v 2.5 4 4.5
v 4.5 3 4.5
v 4.5 4 4.5
v 5.5 6 4.5
v 5.5 8 4.5
v -6.5 2 3.5
v -6.5 3 3.5
v -5.5 2 3.5
v -5.5 3 3.5
v -3.5 4 3.5
v -3.5 5 3.5
v -3.5 9 3.5
v -3.5 10 3.5
v -3.5 11 3.5
v -3.5 12 3.5
v -2.5 9 3.5
v -2.5 10 3.5
v -2.5 11 3.5
v -2.5 12 3.5
v -1.5 4 3.5
v -1.5 5 3.5
v -1.5 9 3.5
v -1.5 11 3.5
v 0.5 9 3.5
v 0.5 11 3.5
v 1.5 4 3.5
v 1.5 5 3.5
v 1.5 9 3.5
v 3.5 4 3.5
v 3.5 5 3.5
v 3.5 9 3.5
v 3.5 12 3.5
v 5.5 2 3.5
v 5.5 3 3.5
v 6.5 2 3.5
v 6.5 3 3.5
v -5.5 3 2.5
v -5.5 4 2.5
v -4.5 3 2.5
v -4.5 4 2.5
v 4.5 3 2.5
v 4.5 4 2.5
v 5.5 3 2.5
v 5.5 4 2.5
v -4.5 4 1.5
v -4.5 5 1.5
v -3.5 4 1.5
v -3.5 5 1.5
v -3.5 9 1.5
v -3.5 10 1.5
v -3.5 11 1.5
v -3.5 12 1.5
v -2.5 9 1.5
v -2.5 10 1.5
v -2.5 11 1.5
v -2.5 12 1.5
v 3.5 4 1.5
v 3.5 5 1.5
v 4.5 4 1.5
v 4.5 5 1.5
v -3.5 9 -0.5
v -3.5 10 -0.5
v -3.5 11 -0.5
v -3.5 12 -0.5
v -2.5 9 -0.5
v -2.5 10 -0.5
v -2.5 11 -0.5
v -2.5 12 -0.5
v -3.5 9 -2.5
v -3.5 10 -2.5
v -3.5 11 -2.5
v -3.5 12 -2.5
v -2.5 9 -2.5
v -2.5 10 -2.5
v -2.5 11 -2.5
v -2.5 12 -2.5
v -2.5 6 -3.5
v -2.5 8 -3.5
v -1.5 5 -3.5
v -1.5 6 -3.5
v -1.5 8 -3.5
v -1.5 9 -3.5
v 1.5 5 -3.5
v 1.5 6 -3.5
v 1.5 8 -3.5
v 1.5 9 -3.5
v 4.5 6 -3.5
v 4.5 8 -3.5
v -2.5 6 3.5
v -2.5 8 3.5
v -1.5 5 3.5
v -1.5 6 3.5
v -1.5 8 3.5
v -1.5 9 3.5
v 1.5 5 3.5
v 1.5 6 3.5
v 1.5 8 3.5
v 1.5 9 3.5
v 4.5 6 3.5
v 4.5 8 3.5
v -3.5 9 2.5
v -3.5 10 2.5
v -3.5 11 2.5
v -3.5 12 2.5
v -2.5 9 2.5
v -2.5 10 2.5
v -2.5 11 2.5
v -2.5 12 2.5
v -3.5 9 0.5
v -3.5 10 0.5
v -3.5 11 0.5
v -3.5 12 0.5
v -2.5 9 0.5
v -2.5 10 0.5
v -2.5 11 0.5
v -2.5 12 0.5
v -4.5 4 -1.5
v -4.5 5 -1.5
v -3.5 4 -1.5
v -3.5 5 -1.5
v -3.5 9 -1.5
v -3.5 10 -1.5
v -3.5 11 -1.5
v -3.5 12 -1.5
v -2.5 9 -1.5
v -2.5 10 -1.5
v -2.5 11 -1.5
v -2.5 12 -1.5
v 3.5 4 -1.5
v 3.5 5 -1.5
v 4.5 4 -1.5
v 4.5 5 -1.5
v -5.5 3 -2.5
v -5.5 4 -2.5
v -4.5 3 -2.5
v -4.5 4 -2.5
v 4.5 3 -2.5
v 4.5 4 -2.5
v 5.5 3 -2.5
v 5.5 4 -2.5
v -6.5 2 -3.5
v -6.5 3 -3.5
v -5.5 2 -3.5
v -5.5 3 -3.5
v -3.5 4 -3.5
v -3.5 5 -3.5
v -3.5 9 -3.5
v -3.5 10 -3.5
v -3.5 11 -3.5
v -3.5 12 -3.5
v -2.5 9 -3.5
v -2.5 10 -3.5
v -2.5 11 -3.5
v -2.5 12 -3.5
v -1.5 4 -3.5
v -1.5 5 -3.5
v -1.5 9 -3.5
v -1.5 11 -3.5
v 0.5 9 -3.5
v 0.5 11 -3.5
v 1.5 4 -3.5
v 1.5 5 -3.5
v 1.5 9 -3.5
v 3.5 4 -3.5
v 3.5 5 -3.5
v 3.5 9 -3.5
v 3.5 12 -3.5
v 5.5 2 -3.5
v 5.5 3 -3.5
v 6.5 2 -3.5
v 6.5 3 -3.5
v -4.5 3 -4.5
v -4.5 4 -4.5
v -3.5 6 -4.5
v -3.5 8 -4.5
v -2.5 3 -4.5
v -2.5 4 -4.5
v -1.5 4 -4.5
v -1.5 6 -4.5
v -1.5 8 -4.5
v -1.5 11 -4.5
v 0.5 9 -4.5
v 0.5 11 -4.5
v 1.5 4 -4.5
v 1.5 6 -4.5
v 1.5 8 -4.5
v 1.5 9 -4.5
v 2.5 3 -4.5
v 2.5 4 -4.5
v 4.5 3 -4.5
v 4.5 4 -4.5
v 5.5 6 -4.5
v 5.5 8 -4.5
v -5.5 2 -5.5
v -5.5 3 -5.5
v -3.5 2 -5.5
v -3.5 3 -5.5
v -2.5 3 -5.5
v -2.5 4 -5.5
v 2.5 3 -5.5
v 2.5 4 -5.5
v 3.5 2 -5.5
v 3.5 3 -5.5
v 5.5 2 -5.5
v 5.5 3 -5.5
v -3.5 2 -6.5
v -3.5 3 -6.5
v 3.5 2 -6.5
v 3.5 3 -6.5
v -7.5 0 -7.5
v -7.5 2 -7.5
v 7.5 0 -7.5
v 7.5 2 -7.5
v -7.5 0 7.5
v 7.5 0 7.5
v -7.5 0 -7.5
v 7.5 0 -7.5
v -3.5 6 4.5
v -1.5 6 4.5
v 1.5 6 4.5
v 5.5 6 4.5
v -2.5 6 3.5
v -1.5 6 3.5
v 1.5 6 3.5
v 4.5 6 3.5
v -2.5 6 -3.5
v -1.5 6 -3.5
v 1.5 6 -3.5
v 4.5 6 -3.5
v -3.5 6 -4.5
v -1.5 6 -4.5
v 1.5 6 -4.5
v 5.5 6 -4.5
v -3.5 9 3.5
v -2.5 9 3.5
v -1.5 9 3.5
v 1.5 9 3.5
v 3.5 9 3.5
v -3.5 9 2.5
v -2.5 9 2.5
v -3.5 9 1.5
v -2.5 9 1.5
v -3.5 9 0.5
v -2.5 9 0.5
v -3.5 9 -0.5
v -2.5 9 -0.5
v -3.5 9 -1.5
v -2.5 9 -1.5
v -3.5 9 -2.5
v -2.5 9 -2.5
v -3.5 9 -3.5
v -2.5 9 -3.5
v -1.5 9 -3.5
v 1.5 9 -3.5
v 3.5 9 -3.5
v -3.5 11 3.5
v -2.5 11 3.5
v -3.5 11 2.5
v -2.5 11 2.5
v -3.5 11 1.5
v -2.5 11 1.5
v -3.5 11 0.5
v -2.5 11 0.5
v -3.5 11 -0.5
v -2.5 11 -0.5
v -3.5 11 -1.5
v -2.5 11 -1.5
v -3.5 11 -2.5
v -2.5 11 -2.5
v -3.5 11 -3.5
v -2.5 11 -3.5
v -7.5 2 7.5
v 7.5 2 7.5
v -3.5 2 6.5
v 3.5 2 6.5
v -5.5 2 5.5
v -3.5 2 5.5
v 3.5 2 5.5
v 5.5 2 5.5
v -6.5 2 3.5
v -5.5 2 3.5
v 5.5 2 3.5
v 6.5 2 3.5
v -6.5 2 -3.5
v -5.5 2 -3.5
v 5.5 2 -3.5
v 6.5 2 -3.5
v -5.5 2 -5.5
v -3.5 2 -5.5
v 3.5 2 -5.5
v 5.5 2 -5.5
v -3.5 2 -6.5
v 3.5 2 -6.5
v -7.5 2 -7.5
v 7.5 2 -7.5
v -3.5 3 6.5
v 3.5 3 6.5
v -5.5 3 5.5
v -3.5 3 5.5
v -2.5 3 5.5
v 2.5 3 5.5
v 3.5 3 5.5
v 5.5 3 5.5
v -4.5 3 4.5
v -2.5 3 4.5
v 2.5 3 4.5
v 4.5 3 4.5
v -6.5 3 3.5
v -5.5 3 3.5
v 5.5 3 3.5
v 6.5 3 3.5
v -5.5 3 2.5
v -4.5 3 2.5
v 4.5 3 2.5
v 5.5 3 2.5
v -5.5 3 -2.5
v -4.5 3 -2.5
v 4.5 3 -2.5
v 5.5 3 -2.5
v -6.5 3 -3.5
v -5.5 3 -3.5
v 5.5 3 -3.5
v 6.5 3 -3.5
v -4.5 3 -4.5
v -2.5 3 -4.5
v 2.5 3 -4.5
v 4.5 3 -4.5
v -5.5 3 -5.5
v -3.5 3 -5.5
v -2.5 3 -5.5
v 2.5 3 -5.5
v 3.5 3 -5.5
v 5.5 3 -5.5
v -3.5 3 -6.5
v 3.5 3 -6.5
v -2.5 4 5.5
v 2.5 4 5.5
v -4.5 4 4.5
v -2.5 4 4.5
v -1.5 4 4.5
v 1.5 4 4.5
v 2.5 4 4.5
v 4.5 4 4.5
v -3.5 4 3.5
v -1.5 4 3.5
v 1.5 4 3.5
v 3.5 4 3.5
v -5.5 4 2.5
v -4.5 4 2.5
v 4.5 4 2.5
v 5.5 4 2.5
v -4.5 4 1.5
v -3.5 4 1.5
v 3.5 4 1.5
v 4.5 4 1.5
v -4.5 4 -1.5
v -3.5 4 -1.5
v 3.5 4 -1.5
v 4.5 4 -1.5
v -5.5 4 -2.5
v -4.5 4 -2.5
v 4.5 4 -2.5
v 5.5 4 -2.5
v -3.5 4 -3.5
v -1.5 4 -3.5
v 1.5 4 -3.5
v 3.5 4 -3.5
v -4.5 4 -4.5
v -2.5 4 -4.5
v -1.5 4 -4.5
v 1.5 4 -4.5
v 2.5 4 -4.5
v 4.5 4 -4.5
v -2.5 4 -5.5
v 2.5 4 -5.5
v -3.5 5 3.5
v -1.5 5 3.5
v 1.5 5 3.5
v 3.5 5 3.5
v -4.5 5 1.5
v -3.5 5 1.5
v 3.5 5 1.5
v 4.5 5 1.5
v -4.5 5 -1.5
v -3.5 5 -1.5
v 3.5 5 -1.5
v 4.5 5 -1.5
v -3.5 5 -3.5
v -1.5 5 -3.5
v 1.5 5 -3.5
v 3.5 5 -3.5
v -3.5 8 4.5
v -1.5 8 4.5
v 1.5 8 4.5
v 5.5 8 4.5
v -2.5 8 3.5
v -1.5 8 3.5
v 1.5 8 3.5
v 4.5 8 3.5
v -2.5 8 -3.5
v -1.5 8 -3.5
v 1.5 8 -3.5
v 4.5 8 -3.5
v -3.5 8 -4.5
v -1.5 8 -4.5
v 1.5 8 -4.5
v 5.5 8 -4.5
v 0.5 9 4.5
v 1.5 9 4.5
v 0.5 9 3.5
v 1.5 9 3.5
v 0.5 9 -3.5
v 1.5 9 -3.5
v 0.5 9 -4.5
v 1.5 9 -4.5
v -3.5 10 3.5
v -2.5 10 3.5
v -3.5 10 2.5
v -2.5 10 2.5
v -3.5 10 1.5
v -2.5 10 1.5
v -3.5 10 0.5
v -2.5 10 0.5
v -3.5 10 -0.5
v -2.5 10 -0.5
v -3.5 10 -1.5
v -2.5 10 -1.5
v -3.5 10 -2.5
v -2.5 10 -2.5
v -3.5 10 -3.5
v -2.5 10 -3.5
v -1.5 11 4.5
v 0.5 11 4.5
v -1.5 11 3.5
v 0.5 11 3.5
v -1.5 11 -3.5
v 0.5 11 -3.5
v -1.5 11 -4.5
v 0.5 11 -4.5
v -3.5 12 3.5
v -2.5 12 3.5
v 3.5 12 3.5
v -3.5 12 2.5
v -2.5 12 2.5
v -3.5 12 1.5
v -2.5 12 1.5
v -3.5 12 0.5
v -2.5 12 0.5
v -3.5 12 -0.5
v -2.5 12 -0.5
v -3.5 12 -1.5
v -2.5 12 -1.5
v -3.5 12 -2.5
v -2.5 12 -2.5
v -3.5 12 -3.5
v -2.5 12 -3.5
v 3.5 12 -3.5

# faces
f 3/2/1 2/2/1 1/2/1
f 4/2/1 2/2/1 3/2/1
f 7/2/1 6/2/1 5/2/1
f 8/2/1 6/2/1 7/2/1
f 13/2/1 10/2/1 9/2/1
f 14/2/1 10/2/1 13/2/1
f 17/2/1 12/2/1 11/2/1
f 18/2/1 12/2/1 17/2/1
f 19/2/1 16/2/1 15/2/1
f 20/2/1 16/2/1 19/2/1
f 25/2/1 22/2/1 21/2/1
f 26/2/1 22/2/1 25/2/1
f 29/2/1 24/2/1 23/2/1
f 30/2/1 24/2/1 29/2/1
f 31/3/1 28/3/1 27/3/1
f 32/3/1 28/3/1 31/3/1
f 37/2/1 34/2/1 33/2/1
f 38/2/1 34/2/1 37/2/1
f 39/2/1 36/2/1 35/2/1
f 40/2/1 36/2/1 39/2/1
f 45/3/1 42/3/1 41/3/1
f 46/3/1 42/3/1 45/3/1
f 47/3/1 44/3/1 43/3/1
f 48/3/1 44/3/1 47/3/1
f 51/3/1 50/3/1 49/3/1
f 52/3/1 50/3/1 51/3/1
f 61/1/1 54/1/1 53/1/1
f 62/1/1 54/1/1 61/1/1
f 63/1/1 56/1/1 55/1/1
f 64/1/1 56/1/1 63/1/1
f 65/1/1 58/1/1 57/1/1
f 66/1/1 58/1/1 65/1/1
f 67/1/1 60/1/1 59/1/1
f 68/1/1 60/1/1 67/1/1
f 77/1/1 70/1/1 69/1/1
f 78/1/1 70/1/1 77/1/1
f 79/1/1 72/1/1 71/1/1
f 80/1/1 72/1/1 79/1/1
f 81/1/1 74/1/1 73/1/1
f 82/1/1 74/1/1 81/1/1
f 83/1/1 76/1/1 75/1/1
f 84/1/1 76/1/1 83/1/1
f 89/2/1 86/2/1 85/2/1
f 90/2/1 86/2/1 89/2/1
f 91/2/1 88/2/1 87/2/1
f 92/2/1 88/2/1 91/2/1
f 100/2/1 94/2/1 93/2/1
f 101/2/1 94/2/1 100/2/1
f 102/2/1 96/2/1 95/2/1
f 103/2/1 96/2/1 102/2/1
f 104/2/1 98/2/1 97/2/1
f 105/2/1 98/2/1 104/2/1
f 107/2/1 103/2/1 102/2/1
f 107/2/1 106/2/1 105/2/1
f 107/2/1 105/2/1 104/2/1
f 107/2/1 104/2/1 103/2/1
f 107/2/1 101/2/1 100/2/1
f 107/2/1 102/2/1 101/2/1
f 107/2/1 100/2/1 99/2/1
f 108/2/1 106/2/1 107/2/1
f 109/2/1 106/2/1 108/2/1
f 110/2/1 106/2/1 109/2/1
f 111/2/1 106/2/1 110/2/1
f 112/2/1 106/2/1 111/2/1
f 113/2/1 106/2/1 112/2/1
f 114/2/1 106/2/1 113/2/1
f 115/2/1 109/2/1 108/2/1
f 116/2/1 109/2/1 115/2/1
f 117/2/1 111/2/1 110/2/1
f 118/2/1 111/2/1 117/2/1
f 119/2/1 113/2/1 112/2/1
f 120/2/1 113/2/1 119/2/1
f 125/3/1 122/3/1 121/3/1
f 126/3/1 124/3/1 123/3/1
f 127/3/1 125/3/1 121/3/1
f 128/3/1 125/3/1 127/3/1
f 129/3/1 124/3/1 126/3/1
f 130/3/1 124/3/1 129/3/1
f 135/3/1 132/3/1 131/3/1
f 136/3/1 134/3/1 133/3/1
f 137/3/1 135/3/1 131/3/1
f 138/3/1 135/3/1 137/3/1
f 139/3/1 134/3/1 136/3/1
f 140/3/1 134/3/1 139/3/1
f 143/3/1 142/3/1 141/3/1
f 144/3/1 142/3/1 143/3/1
f 145/3/2 146/3/2 147/3/2
f 147/3/2 146/3/2 148/3/2
f 149/3/2 150/3/2 153/3/2
f 153/3/2 150/3/2 154/3/2
f 151/3/2 152/3/2 155/3/2
f 155/3/2 152/3/2 156/3/2
f 157/3/2 158/3/2 161/3/2
f 159/3/2 160/3/2 162/3/2
f 157/3/2 161/3/2 163/3/2
f 163/3/2 161/3/2 164/3/2
f 162/3/2 160/3/2 165/3/2
f 165/3/2 160/3/2 166/3/2
f 167/3/2 168/3/2 171/3/2
f 171/3/2 168/3/2 172/3/2
f 169/3/2 170/3/2 173/3/2
f 173/3/2 170/3/2 174/3/2
f 175/2/2 176/2/2 179/2/2
f 179/2/2 176/2/2 180/2/2
f 177/2/2 178/2/2 181/2/2
f 181/2/2 178/2/2 182/2/2
f 183/2/2 184/2/2 187/2/2
f 187/2/2 184/2/2 188/2/2
f 185/2/2 186/2/2 189/2/2
f 189/2/2 186/2/2 190/2/2
f 191/3/2 192/3/2 195/3/2
f 195/3/2 192/3/2 196/3/2
f 193/3/2 194/3/2 197/3/2
f 197/3/2 194/3/2 198/3/2
f 199/2/2 200/2/2 201/2/2
f 201/2/2 200/2/2 202/2/2
f 203/2/2 204/2/2 207/2/2
f 207/2/2 204/2/2 208/2/2
f 205/2/2 206/2/2 211/2/2
f 211/2/2 206/2/2 212/2/2
f 209/3/2 210/3/2 213/3/2
f 213/3/2 210/3/2 214/3/2
f 215/2/2 216/2/2 219/2/2
f 219/2/2 216/2/2 220/2/2
f 217/2/2 218/2/2 223/2/2
f 223/2/2 218/2/2 224/2/2
f 221/2/2 222/2/2 225/2/2
f 225/2/2 222/2/2 226/2/2
f 227/3/2 228/3/2 229/3/2
f 229/3/2 228/3/2 230/3/2
f 231/2/2 232/2/2 233/2/2
f 233/2/2 232/2/2 234/2/2
f 235/2/2 236/2/2 237/2/2
f 237/2/2 236/2/2 238/2/2
f 241/2/3 240/2/3 239/2/3
f 242/2/3 240/2/3 241/2/3
f 245/2/3 244/2/3 243/2/3
f 246/2/3 244/2/3 245/2/3
f 249/2/3 248/2/3 247/2/3
f 250/2/3 248/2/3 249/2/3
f 253/2/3 252/2/3 251/2/3
f 254/2/3 252/2/3 253/2/3
f 257/2/3 256/2/3 255/2/3
f 258/2/3 256/2/3 257/2/3
f 263/2/3 260/2/3 259/2/3
f 264/2/3 260/2/3 263/2/3
f 266/3/3 262/3/3 261/3/3
f 267/3/3 262/3/3 266/3/3
f 269/3/3 266/3/3 265/3/3
f 269/3/3 268/3/3 267/3/3
f 269/3/3 267/3/3 266/3/3
f 270/3/3 268/3/3 269/3/3
f 271/3/3 269/3/3 265/3/3
f 272/3/3 269/3/3 271/3/3
f 273/3/3 269/3/3 272/3/3
f 274/3/3 269/3/3 273/3/3
f 277/2/3 276/2/3 275/2/3
f 278/2/3 276/2/3 277/2/3
f 279/3/3 273/3/3 272/3/3
f 280/3/3 273/3/3 279/3/3
f 283/2/3 282/2/3 281/2/3
f 284/2/3 282/2/3 283/2/3
f 291/1/3 288/1/3 287/1/3
f 292/1/3 288/1/3 291/1/3
f 293/1/3 290/1/3 289/1/3
f 294/1/3 290/1/3 293/1/3
f 295/3/3 286/3/3 285/3/3
f 296/3/3 286/3/3 295/3/3
f 297/2/3 292/2/3 291/2/3
f 297/2/3 293/2/3 292/2/3
f 297/2/3 294/2/3 293/2/3
f 298/2/3 294/2/3 297/2/3
f 300/2/3 294/2/3 298/2/3
f 303/2/3 300/2/3 299/2/3
f 304/3/3 302/3/3 301/3/3
f 305/3/3 302/3/3 304/3/3
f 306/2/3 300/2/3 303/2/3
f 307/2/3 294/2/3 300/2/3
f 307/2/3 300/2/3 306/2/3
f 310/2/3 309/2/3 308/2/3
f 311/2/3 309/2/3 310/2/3
f 314/2/3 313/2/3 312/2/3
f 315/2/3 313/2/3 314/2/3
f 318/2/3 317/2/3 316/2/3
f 319/2/3 317/2/3 318/2/3
f 322/3/3 321/3/3 320/3/3
f 323/3/3 321/3/3 322/3/3
f 328/1/3 325/1/3 324/1/3
f 329/1/3 325/1/3 328/1/3
f 330/1/3 327/1/3 326/1/3
f 331/1/3 327/1/3 330/1/3
f 334/3/3 333/3/3 332/3/3
f 335/3/3 333/3/3 334/3/3
f 340/1/3 337/1/3 336/1/3
f 341/1/3 337/1/3 340/1/3
f 342/1/3 339/1/3 338/1/3
f 343/1/3 339/1/3 342/1/3
f 348/1/3 345/1/3 344/1/3
f 349/1/3 345/1/3 348/1/3
f 350/1/3 347/1/3 346/1/3
f 351/1/3 347/1/3 350/1/3
f 355/3/3 353/3/3 352/3/3
f 356/3/3 353/3/3 355/3/3
f 358/3/3 355/3/3 354/3/3
f 358/3/3 357/3/3 356/3/3
f 358/3/3 356/3/3 355/3/3
f 359/3/3 357/3/3 358/3/3
f 360/3/3 357/3/3 359/3/3
f 361/3/3 357/3/3 360/3/3
f 362/3/3 360/3/3 359/3/3
f 363/3/3 360/3/3 362/3/3
f 364/3/4 365/3/4 367/3/4
f 367/3/4 365/3/4 368/3/4
f 366/3/4 367/3/4 370/3/4
f 368/3/4 369/3/4 370/3/4
f 367/3/4 368/3/4 370/3/4
f 370/3/4 369/3/4 371/3/4
f 371/3/4 369/3/4 372/3/4
f 372/3/4 369/3/4 373/3/4
f 371/3/4 372/3/4 374/3/4
f 374/3/4 372/3/4 375/3/4
f 376/1/4 377/1/4 380/1/4
f 380/1/4 377/1/4 381/1/4
f 378/1/4 379/1/4 382/1/4
f 382/1/4 379/1/4 383/1/4
f 384/1/4 385/1/4 388/1/4
f 388/1/4 385/1/4 389/1/4
f 386/1/4 387/1/4 390/1/4
f 390/1/4 387/1/4 391/1/4
f 392/3/4 393/3/4 394/3/4
f 394/3/4 393/3/4 395/3/4
f 396/1/4 397/1/4 400/1/4
f 400/1/4 397/1/4 401/1/4
f 398/1/4 399/1/4 402/1/4
f 402/1/4 399/1/4 403/1/4
f 404/3/4 405/3/4 406/3/4
f 406/3/4 405/3/4 407/3/4
f 408/2/4 409/2/4 410/2/4
f 410/2/4 409/2/4 411/2/4
f 412/2/4 413/2/4 414/2/4
f 414/2/4 413/2/4 415/2/4
f 416/2/4 417/2/4 418/2/4
f 418/2/4 417/2/4 419/2/4
f 422/1/4 423/1/4 426/1/4
f 426/1/4 423/1/4 427/1/4
f 424/1/4 425/1/4 428/1/4
f 428/1/4 425/1/4 429/1/4
f 420/3/4 421/3/4 430/3/4
f 430/3/4 421/3/4 431/3/4
f 426/2/4 427/2/4 432/2/4
f 427/2/4 428/2/4 432/2/4
f 428/2/4 429/2/4 432/2/4
f 432/2/4 429/2/4 433/2/4
f 433/2/4 429/2/4 435/2/4
f 434/2/4 435/2/4 438/2/4
f 436/3/4 437/3/4 439/3/4
f 439/3/4 437/3/4 440/3/4
f 438/2/4 435/2/4 441/2/4
f 435/2/4 429/2/4 442/2/4
f 441/2/4 435/2/4 442/2/4
f 443/2/4 444/2/4 445/2/4
f 445/2/4 444/2/4 446/2/4
f 447/2/4 448/2/4 451/2/4
f 451/2/4 448/2/4 452/2/4
f 449/3/4 450/3/4 454/3/4
f 454/3/4 450/3/4 455/3/4
f 453/3/4 454/3/4 457/3/4
f 455/3/4 456/3/4 457/3/4
f 454/3/4 455/3/4 457/3/4
f 457/3/4 456/3/4 458/3/4
f 453/3/4 457/3/4 459/3/4
f 459/3/4 457/3/4 460/3/4
f 460/3/4 457/3/4 461/3/4
f 461/3/4 457/3/4 462/3/4
f 463/2/4 464/2/4 465/2/4
f 465/2/4 464/2/4 466/2/4
f 460/3/4 461/3/4 467/3/4
f 467/3/4 461/3/4 468/3/4
f 469/2/4 470/2/4 471/2/4
f 471/2/4 470/2/4 472/2/4
f 473/2/4 474/2/4 475/2/4
f 475/2/4 474/2/4 476/2/4
f 477/2/4 478/2/4 479/2/4
f 479/2/4 478/2/4 480/2/4
f 481/2/4 482/2/4 483/2/4
f 483/2/4 482/2/4 484/2/4
f 485/2/4 486/2/4 487/2/4
f 487/2/4 486/2/4 488/2/4
f 491/2/5 490/2/5 489/2/5
f 492/2/5 490/2/5 491/2/5
f 497/3/5 494/3/5 493/3/5
f 498/3/5 494/3/5 497/3/5
f 499/3/5 496/3/5 495/3/5
f 500/3/5 496/3/5 499/3/5
f 501/3/5 497/3/5 493/3/5
f 504/3/5 496/3/5 500/3/5
f 505/3/5 502/3/5 501/3/5
f 505/3/5 501/3/5 493/3/5
f 506/3/5 502/3/5 505/3/5
f 507/3/5 504/3/5 503/3/5
f 508/3/5 496/3/5 504/3/5
f 508/3/5 504/3/5 507/3/5
f 514/1/5 510/1/5 509/1/5
f 515/2/5 513/2/5 512/2/5
f 515/1/5 510/1/5 514/1/5
f 515/2/5 511/2/5 510/2/5
f 515/2/5 512/2/5 511/2/5
f 517/2/5 513/2/5 515/2/5
f 518/1/5 517/1/5 516/1/5
f 519/2/5 513/2/5 517/2/5
f 519/1/5 517/1/5 518/1/5
f 521/2/5 513/2/5 519/2/5
f 522/1/5 521/1/5 520/1/5
f 523/2/5 513/2/5 521/2/5
f 523/1/5 521/1/5 522/1/5
f 525/2/5 513/2/5 523/2/5
f 526/1/5 525/1/5 524/1/5
f 527/2/5 513/2/5 525/2/5
f 527/1/5 525/1/5 526/1/5
f 528/2/5 513/2/5 527/2/5
f 529/2/5 513/2/5 528/2/5
f 530/2/5 513/2/5 529/2/5
f 533/1/5 532/1/5 531/1/5
f 534/1/5 532/1/5 533/1/5
f 537/1/5 536/1/5 535/1/5
f 538/1/5 536/1/5 537/1/5
f 541/1/5 540/1/5 539/1/5
f 542/1/5 540/1/5 541/1/5
f 545/1/5 544/1/5 543/1/5
f 546/1/5 544/1/5 545/1/5
f 547/2/6 548/2/6 549/2/6
f 549/2/6 548/2/6 550/2/6
f 547/2/6 549/2/6 551/2/6
f 551/2/6 549/2/6 552/2/6
f 550/2/6 548/2/6 553/2/6
f 553/2/6 548/2/6 554/2/6
f 547/2/6 551/2/6 555/2/6
f 555/2/6 551/2/6 556/2/6
f 554/2/6 548/2/6 557/2/6
f 557/2/6 548/2/6 558/2/6
f 547/2/6 555/2/6 559/2/6
f 558/2/6 548/2/6 562/2/6
f 559/2/6 560/2/6 563/2/6
f 561/2/6 562/2/6 566/2/6
f 563/2/6 564/2/6 567/2/6
f 565/2/6 566/2/6 568/2/6
f 563/2/6 567/2/6 569/2/6
f 567/2/6 568/2/6 569/2/6
f 547/2/6 559/2/6 569/2/6
f 559/2/6 563/2/6 569/2/6
f 568/2/6 566/2/6 570/2/6
f 569/2/6 568/2/6 570/2/6
f 562/2/6 548/2/6 570/2/6
f 566/2/6 562/2/6 570/2/6
f 571/2/6 572/2/6 574/2/6
f 574/2/6 572/2/6 575/2/6
f 575/2/6 572/2/6 576/2/6
f 576/2/6 572/2/6 577/2/6
f 573/2/6 574/2/6 579/2/6
f 574/2/6 575/2/6 579/2/6
f 579/2/6 575/2/6 580/2/6
f 577/2/6 578/2/6 581/2/6
f 576/2/6 577/2/6 581/2/6
f 581/2/6 578/2/6 582/2/6
f 573/2/6 579/2/6 584/2/6
f 582/2/6 578/2/6 585/2/6
f 583/2/6 584/2/6 587/2/6
f 584/2/6 579/2/6 587/2/6
f 587/2/6 579/2/6 588/2/6
f 585/2/6 586/2/6 589/2/6
f 582/2/6 585/2/6 589/2/6
f 589/2/6 586/2/6 590/2/6
f 583/2/6 587/2/6 591/2/6
f 590/2/6 586/2/6 594/2/6
f 591/2/6 592/2/6 595/2/6
f 583/2/6 591/2/6 595/2/6
f 595/2/6 592/2/6 596/2/6
f 593/2/6 594/2/6 597/2/6
f 594/2/6 586/2/6 597/2/6
f 597/2/6 586/2/6 598/2/6
f 596/2/6 592/2/6 599/2/6
f 593/2/6 597/2/6 602/2/6
f 599/2/6 600/2/6 603/2/6
f 596/2/6 599/2/6 603/2/6
f 603/2/6 600/2/6 604/2/6
f 604/2/6 600/2/6 605/2/6
f 601/2/6 602/2/6 606/2/6
f 606/2/6 602/2/6 607/2/6
f 602/2/6 597/2/6 608/2/6
f 607/2/6 602/2/6 608/2/6
f 604/2/6 605/2/6 609/2/6
f 606/2/6 607/2/6 609/2/6
f 605/2/6 606/2/6 609/2/6
f 609/2/6 607/2/6 610/2/6
f 611/2/6 612/2/6 614/2/6
f 614/2/6 612/2/6 615/2/6
f 615/2/6 612/2/6 616/2/6
f 616/2/6 612/2/6 617/2/6
f 613/2/6 614/2/6 619/2/6
f 614/2/6 615/2/6 619/2/6
f 619/2/6 615/2/6 620/2/6
f 617/2/6 618/2/6 621/2/6
f 616/2/6 617/2/6 621/2/6
f 621/2/6 618/2/6 622/2/6
f 613/2/6 619/2/6 624/2/6
f 622/2/6 618/2/6 625/2/6
f 623/2/6 624/2/6 627/2/6
f 624/2/6 619/2/6 627/2/6
f 627/2/6 619/2/6 628/2/6
f 625/2/6 626/2/6 629/2/6
f 622/2/6 625/2/6 629/2/6
f 629/2/6 626/2/6 630/2/6
f 623/2/6 627/2/6 631/2/6
f 630/2/6 626/2/6 634/2/6
f 631/2/6 632/2/6 635/2/6
f 623/2/6 631/2/6 635/2/6
f 635/2/6 632/2/6 636/2/6
f 633/2/6 634/2/6 637/2/6
f 634/2/6 626/2/6 637/2/6
f 637/2/6 626/2/6 638/2/6
f 636/2/6 632/2/6 639/2/6
f 633/2/6 637/2/6 642/2/6
f 639/2/6 640/2/6 643/2/6
f 636/2/6 639/2/6 643/2/6
f 643/2/6 640/2/6 644/2/6
f 644/2/6 640/2/6 645/2/6
f 641/2/6 642/2/6 646/2/6
f 646/2/6 642/2/6 647/2/6
f 642/2/6 637/2/6 648/2/6
f 647/2/6 642/2/6 648/2/6
f 644/2/6 645/2/6 649/2/6
f 646/2/6 647/2/6 649/2/6
f 645/2/6 646/2/6 649/2/6
f 649/2/6 647/2/6 650/2/6
f 651/3/6 652/3/6 656/3/6
f 653/3/6 654/3/6 656/3/6
f 652/3/6 653/3/6 656/3/6
f 656/3/6 654/3/6 657/3/6
f 655/3/6 656/3/6 659/3/6
f 657/3/6 658/3/6 659/3/6
f 656/3/6 657/3/6 659/3/6
f 659/3/6 658/3/6 660/3/6
f 660/3/6 658/3/6 661/3/6
f 661/3/6 658/3/6 662/3/6
f 660/3/6 661/3/6 663/3/6
f 663/3/6 661/3/6 664/3/6
f 664/3/6 661/3/6 665/3/6
f 665/3/6 661/3/6 666/3/6
f 667/3/6 668/3/6 671/3/6
f 671/3/6 668/3/6 672/3/6
f 669/3/6 670/3/6 673/3/6
f 673/3/6 670/3/6 674/3/6
f 667/3/6 671/3/6 675/3/6
f 674/3/6 670/3/6 678/3/6
f 675/3/6 676/3/6 679/3/6
f 667/3/6 675/3/6 679/3/6
f 679/3/6 676/3/6 680/3/6
f 677/3/6 678/3/6 681/3/6
f 678/3/6 670/3/6 682/3/6
f 681/3/6 678/3/6 682/3/6
f 683/3/6 684/3/6 685/3/6
f 685/3/6 684/3/6 686/3/6
f 687/3/6 688/3/6 689/3/6
f 689/3/6 688/3/6 690/3/6
f 691/1/6 692/1/6 693/1/6
f 693/1/6 692/1/6 694/1/6
f 695/1/6 696/1/6 697/1/6
f 697/1/6 696/1/6 698/1/6
f 699/1/6 700/1/6 701/1/6
f 701/1/6 700/1/6 702/1/6
f 703/1/6 704/1/6 705/1/6
f 705/1/6 704/1/6 706/1/6
f 707/3/6 708/3/6 709/3/6
f 709/3/6 708/3/6 710/3/6
f 711/3/6 712/3/6 713/3/6
f 713/3/6 712/3/6 714/3/6
f 715/1/6 716/1/6 718/1/6
f 716/2/6 717/2/6 719/2/6
f 718/1/6 716/1/6 719/1/6
f 719/2/6 717/2/6 721/2/6
f 720/1/6 721/1/6 722/1/6
f 721/2/6 717/2/6 723/2/6
f 722/1/6 721/1/6 723/1/6
f 723/2/6 717/2/6 725/2/6
f 724/1/6 725/1/6 726/1/6
f 725/2/6 717/2/6 727/2/6
f 726/1/6 725/1/6 727/1/6
f 727/2/6 717/2/6 729/2/6
f 728/1/6 729/1/6 730/1/6
f 729/2/6 717/2/6 731/2/6
f 730/1/6 729/1/6 731/1/6
f 731/2/6 717/2/6 732/2/6
