# MagicaVoxel @ Ephtracy

# group
g flak36_gun

# material
mtllib flak36_gun.mtl
usemtl palette

# normals
vn -1 0 0
vn 1 0 0
vn 0 0 1
vn 0 0 -1
vn 0 -1 0
vn 0 1 0

# texcoords
vt 0.978516 0.5
vt 0.986328 0.5

# verts
v -16 6 0.5
v -16 6 -0.5
v -16 7 1.5
v -16 7 0.5
v -16 7 -0.5
v -16 7 -1.5
v -16 8 1.5
v -16 8 0.5
v -16 8 -0.5
v -16 8 -1.5
v -16 10 1.5
v -16 10 0.5
v -16 10 -0.5
v -16 10 -1.5
v -16 11 1.5
v -16 11 0.5
v -16 11 -0.5
v -16 11 -1.5
v -16 12 0.5
v -16 12 -0.5
v -11 5 0.5
v -11 5 -0.5
v -11 6 0.5
v -11 6 -0.5
v -10 5 1.5
v -10 5 0.5
v -10 5 -0.5
v -10 5 -1.5
v -10 7 1.5
v -10 7 0.5
v -10 7 -0.5
v -10 7 -1.5
v -6 0 7.5
v -6 0 6.5
v -6 0 -6.5
v -6 0 -7.5
v -6 8 7.5
v -6 8 6.5
v -6 8 -6.5
v -6 8 -7.5
v -6 9 0.5
v -6 9 -0.5
v -6 10 0.5
v -6 10 -0.5
v -5 8 7.5
v -5 8 6.5
v -5 8 -6.5
v -5 8 -7.5
v -5 9 7.5
v -5 9 6.5
v -5 9 -6.5
v -5 9 -7.5
v -4 0 6.5
v -4 0 -6.5
v -4 4 1.5
v -4 4 -1.5
v -4 7 1.5
v -4 7 -1.5
v -4 8 1.5
v -4 8 -1.5
v -4 9 7.5
v -4 9 6.5
v -4 9 -6.5
v -4 9 -7.5
v -4 10 7.5
v -4 10 1.5
v -4 10 -1.5
v -4 10 -7.5
v -14 9 0.5
v -14 9 -0.5
v -14 10 0.5
v -14 10 -0.5
v -8 5 1.5
v -8 5 0.5
v -8 5 -0.5
v -8 5 -1.5
v -8 7 1.5
v -8 7 0.5
v -8 7 -0.5
v -8 7 -1.5
v -5 9 0.5
v -5 9 -0.5
v -5 10 1.5
v -5 10 0.5
v -5 10 -0.5
v -5 10 -1.5
v -5 11 1.5
v -5 11 0.5
v -5 11 -0.5
v -5 11 -1.5
v -5 12 0.5
v -5 12 -0.5
v -4 10 0.5
v -4 10 -0.5
v -4 11 0.5
v -4 11 -0.5
v -3 0 7.5
v -3 0 -7.5
v -3 4 1.5
v -3 4 -1.5
v -3 7 1.5
v -3 7 -1.5
v -3 8 1.5
v -3 8 -1.5
v -3 10 7.5
v -3 10 1.5
v -3 10 -1.5
v -3 10 -7.5
v -2 5 0.5
v -2 5 -0.5
v -2 6 0.5
v -2 6 -0.5
v 0 7 0.5
v 0 7 -0.5
v 0 8 0.5
v 0 8 -0.5
v 16 6 0.5
v 16 6 -0.5
v 16 7 1.5
v 16 7 0.5
v 16 7 -0.5
v 16 7 -1.5
v 16 8 1.5
v 16 8 0.5
v 16 8 -0.5
v 16 8 -1.5
v 16 9 0.5
v 16 9 -0.5
v -6 0 7.5
v -6 8 7.5
v -5 8 7.5
v -5 9 7.5
v -4 9 7.5
v -4 10 7.5
v -3 0 7.5
v -3 10 7.5
v -16 7 1.5
v -16 8 1.5
v -16 10 1.5
v -16 11 1.5
v -10 5 1.5
v -10 7 1.5
v -8 5 1.5
v -8 7 1.5
v -5 10 1.5
v -5 11 1.5
v -4 7 1.5
v -4 8 1.5
v -3 7 1.5
v -3 8 1.5
v 16 7 1.5
v 16 8 1.5
v -16 6 0.5
v -16 7 0.5
v -16 8 0.5
v -16 10 0.5
v -16 11 0.5
v -16 12 0.5
v -14 9 0.5
v -14 10 0.5
v -11 5 0.5
v -11 6 0.5
v -10 5 0.5
v -10 7 0.5
v -8 5 0.5
v -8 7 0.5
v -6 9 0.5
v -6 10 0.5
v -5 9 0.5
v -5 10 0.5
v -5 11 0.5
v -5 12 0.5
v -4 10 0.5
v -4 11 0.5
v -2 5 0.5
v -2 6 0.5
v 16 6 0.5
v 16 7 0.5
v 16 8 0.5
v 16 9 0.5
v 0 7 -0.5
v 0 8 -0.5
v 16 7 -0.5
v 16 8 -0.5
v -4 4 -1.5
v -4 7 -1.5
v -4 8 -1.5
v -4 10 -1.5
v -3 4 -1.5
v -3 7 -1.5
v -3 8 -1.5
v -3 10 -1.5
v -6 0 -6.5
v -6 8 -6.5
v -5 8 -6.5
v -5 9 -6.5
v -4 0 -6.5
v -4 9 -6.5
v -6 0 6.5
v -6 8 6.5
v -5 8 6.5
v -5 9 6.5
v -4 0 6.5
v -4 9 6.5
v -4 4 1.5
v -4 7 1.5
v -4 8 1.5
v -4 10 1.5
v -3 4 1.5
v -3 7 1.5
v -3 8 1.5
v -3 10 1.5
v 0 7 0.5
v 0 8 0.5
v 16 7 0.5
v 16 8 0.5
v -16 6 -0.5
v -16 7 -0.5
v -16 8 -0.5
v -16 10 -0.5
v -16 11 -0.5
v -16 12 -0.5
v -14 9 -0.5
v -14 10 -0.5
v -11 5 -0.5
v -11 6 -0.5
v -10 5 -0.5
v -10 7 -0.5
v -8 5 -0.5
v -8 7 -0.5
v -6 9 -0.5
v -6 10 -0.5
v -5 9 -0.5
v -5 10 -0.5
v -5 11 -0.5
v -5 12 -0.5
v -4 10 -0.5
v -4 11 -0.5
v -2 5 -0.5
v -2 6 -0.5
v 16 6 -0.5
v 16 7 -0.5
v 16 8 -0.5
v 16 9 -0.5
v -16 7 -1.5
v -16 8 -1.5
v -16 10 -1.5
v -16 11 -1.5
v -10 5 -1.5
v -10 7 -1.5
v -8 5 -1.5
v -8 7 -1.5
v -5 10 -1.5
v -5 11 -1.5
v -4 7 -1.5
v -4 8 -1.5
v -3 7 -1.5
v -3 8 -1.5
v 16 7 -1.5
v 16 8 -1.5
v -6 0 -7.5
v -6 8 -7.5
v -5 8 -7.5
v -5 9 -7.5
v -4 9 -7.5
v -4 10 -7.5
v -3 0 -7.5
v -3 10 -7.5
v -6 0 7.5
v -3 0 7.5
v -6 0 6.5
v -4 0 6.5
v -6 0 -6.5
v -4 0 -6.5
v -6 0 -7.5
v -3 0 -7.5
v -10 5 1.5
v -8 5 1.5
v -11 5 0.5
v -10 5 0.5
v -8 5 0.5
v -2 5 0.5
v -11 5 -0.5
v -10 5 -0.5
v -8 5 -0.5
v -2 5 -0.5
v -10 5 -1.5
v -8 5 -1.5
v -16 6 0.5
v -11 6 0.5
v -2 6 0.5
v 16 6 0.5
v -16 6 -0.5
v -11 6 -0.5
v -2 6 -0.5
v 16 6 -0.5
v -16 7 1.5
v -10 7 1.5
v -8 7 1.5
v -4 7 1.5
v -3 7 1.5
v 16 7 1.5
v -16 7 0.5
v -10 7 0.5
v -8 7 0.5
v 16 7 0.5
v -16 7 -0.5
v -10 7 -0.5
v -8 7 -0.5
v 16 7 -0.5
v -16 7 -1.5
v -10 7 -1.5
v -8 7 -1.5
v -4 7 -1.5
v -3 7 -1.5
v 16 7 -1.5
v 0 8 0.5
v 16 8 0.5
v 0 8 -0.5
v 16 8 -0.5
v -16 10 1.5
v -5 10 1.5
v -16 10 0.5
v -14 10 0.5
v -6 10 0.5
v -5 10 0.5
v -4 10 0.5
v -16 10 -0.5
v -14 10 -0.5
v -6 10 -0.5
v -5 10 -0.5
v -4 10 -0.5
v -16 10 -1.5
v -5 10 -1.5
v -4 4 1.5
v -3 4 1.5
v -4 4 -1.5
v -3 4 -1.5
v 0 7 0.5
v 16 7 0.5
v 0 7 -0.5
v 16 7 -0.5
v -6 8 7.5
v -5 8 7.5
v -6 8 6.5
v -5 8 6.5
v -16 8 1.5
v -4 8 1.5
v -3 8 1.5
v 16 8 1.5
v -16 8 0.5
v 16 8 0.5
v -16 8 -0.5
v 16 8 -0.5
v -16 8 -1.5
v -4 8 -1.5
v -3 8 -1.5
v 16 8 -1.5
v -6 8 -6.5
v -5 8 -6.5
v -6 8 -7.5
v -5 8 -7.5
v -5 9 7.5
v -4 9 7.5
v -5 9 6.5
v -4 9 6.5
v -14 9 0.5
v -6 9 0.5
v -5 9 0.5
v 16 9 0.5
v -14 9 -0.5
v -6 9 -0.5
v -5 9 -0.5
v 16 9 -0.5
v -5 9 -6.5
v -4 9 -6.5
v -5 9 -7.5
v -4 9 -7.5
v -4 10 7.5
v -3 10 7.5
v -4 10 1.5
v -3 10 1.5
v -4 10 -1.5
v -3 10 -1.5
v -4 10 -7.5
v -3 10 -7.5
v -16 11 1.5
v -5 11 1.5
v -16 11 0.5
v -5 11 0.5
v -4 11 0.5
v -16 11 -0.5
v -5 11 -0.5
v -4 11 -0.5
v -16 11 -1.5
v -5 11 -1.5
v -16 12 0.5
v -5 12 0.5
v -16 12 -0.5
v -5 12 -0.5

# faces
f 4/2/1 2/2/1 1/2/1
f 5/2/1 2/2/1 4/2/1
f 7/2/1 4/2/1 3/2/1
f 7/2/1 6/2/1 5/2/1
f 7/2/1 5/2/1 4/2/1
f 8/2/1 6/2/1 7/2/1
f 9/2/1 6/2/1 8/2/1
f 10/2/1 6/2/1 9/2/1
f 12/2/1 9/2/1 8/2/1
f 13/2/1 9/2/1 12/2/1
f 15/2/1 12/2/1 11/2/1
f 15/2/1 14/2/1 13/2/1
f 15/2/1 13/2/1 12/2/1
f 16/2/1 14/2/1 15/2/1
f 17/2/1 14/2/1 16/2/1
f 18/2/1 14/2/1 17/2/1
f 19/2/1 17/2/1 16/2/1
f 20/2/1 17/2/1 19/2/1
f 23/2/1 22/2/1 21/2/1
f 24/2/1 22/2/1 23/2/1
f 29/2/1 26/2/1 25/2/1
f 30/2/1 26/2/1 29/2/1
f 31/2/1 28/2/1 27/2/1
f 32/2/1 28/2/1 31/2/1
f 37/1/1 34/1/1 33/1/1
f 38/1/1 34/1/1 37/1/1
f 39/1/1 36/1/1 35/1/1
f 40/1/1 36/1/1 39/1/1
f 43/2/1 42/2/1 41/2/1
f 44/2/1 42/2/1 43/2/1
f 49/1/1 46/1/1 45/1/1
f 50/1/1 46/1/1 49/1/1
f 51/1/1 48/1/1 47/1/1
f 52/1/1 48/1/1 51/1/1
f 55/1/1 54/1/1 53/1/1
f 56/1/1 54/1/1 55/1/1
f 57/1/1 55/1/1 53/1/1
f 58/1/1 54/1/1 56/1/1
f 59/1/1 57/1/1 53/1/1
f 60/1/1 54/1/1 58/1/1
f 62/1/1 59/1/1 53/1/1
f 63/1/1 54/1/1 60/1/1
f 65/1/1 62/1/1 61/1/1
f 66/1/1 59/1/1 62/1/1
f 66/1/1 62/1/1 65/1/1
f 67/1/1 64/1/1 63/1/1
f 67/1/1 63/1/1 60/1/1
f 68/1/1 64/1/1 67/1/1
f 69/2/2 70/2/2 71/2/2
f 71/2/2 70/2/2 72/2/2
f 73/2/2 74/2/2 77/2/2
f 77/2/2 74/2/2 78/2/2
f 75/2/2 76/2/2 79/2/2
f 79/2/2 76/2/2 80/2/2
f 81/2/2 82/2/2 84/2/2
f 84/2/2 82/2/2 85/2/2
f 83/2/2 84/2/2 87/2/2
f 87/2/2 84/2/2 88/2/2
f 85/2/2 86/2/2 89/2/2
f 89/2/2 86/2/2 90/2/2
f 88/2/2 89/2/2 91/2/2
f 91/2/2 89/2/2 92/2/2
f 93/2/2 94/2/2 95/2/2
f 95/2/2 94/2/2 96/2/2
f 97/1/2 98/1/2 99/1/2
f 99/1/2 98/1/2 100/1/2
f 97/1/2 99/1/2 101/1/2
f 100/1/2 98/1/2 102/1/2
f 97/1/2 101/1/2 103/1/2
f 102/1/2 98/1/2 104/1/2
f 97/1/2 103/1/2 105/1/2
f 105/1/2 103/1/2 106/1/2
f 104/1/2 98/1/2 107/1/2
f 107/1/2 98/1/2 108/1/2
f 109/2/2 110/2/2 111/2/2
f 111/2/2 110/2/2 112/2/2
f 113/2/2 114/2/2 115/2/2
f 115/2/2 114/2/2 116/2/2
f 117/2/2 118/2/2 120/2/2
f 120/2/2 118/2/2 121/2/2
f 119/2/2 120/2/2 123/2/2
f 123/2/2 120/2/2 124/2/2
f 121/2/2 122/2/2 125/2/2
f 125/2/2 122/2/2 126/2/2
f 124/2/2 125/2/2 127/2/2
f 127/2/2 125/2/2 128/2/2
f 131/1/3 130/1/3 129/1/3
f 133/1/3 132/1/3 131/1/3
f 135/1/3 131/1/3 129/1/3
f 135/1/3 134/1/3 133/1/3
f 135/1/3 133/1/3 131/1/3
f 136/1/3 134/1/3 135/1/3
f 142/2/3 138/2/3 137/2/3
f 143/2/3 142/2/3 141/2/3
f 144/2/3 138/2/3 142/2/3
f 144/2/3 142/2/3 143/2/3
f 145/2/3 140/2/3 139/2/3
f 146/2/3 140/2/3 145/2/3
f 147/2/3 138/2/3 144/2/3
f 148/2/3 138/2/3 147/2/3
f 151/2/3 150/2/3 149/2/3
f 152/2/3 150/2/3 151/2/3
f 159/2/3 156/2/3 155/2/3
f 160/2/3 156/2/3 159/2/3
f 162/2/3 154/2/3 153/2/3
f 163/2/3 162/2/3 161/2/3
f 164/2/3 154/2/3 162/2/3
f 164/2/3 162/2/3 163/2/3
f 167/2/3 159/2/3 155/2/3
f 169/2/3 167/2/3 155/2/3
f 169/2/3 168/2/3 167/2/3
f 170/2/3 168/2/3 169/2/3
f 171/2/3 158/2/3 157/2/3
f 172/2/3 158/2/3 171/2/3
f 173/2/3 171/2/3 170/2/3
f 174/2/3 171/2/3 173/2/3
f 175/2/3 166/2/3 165/2/3
f 176/2/3 166/2/3 175/2/3
f 177/2/3 166/2/3 176/2/3
f 178/2/3 166/2/3 177/2/3
f 179/2/3 169/2/3 155/2/3
f 180/2/3 169/2/3 179/2/3
f 183/2/3 182/2/3 181/2/3
f 184/2/3 182/2/3 183/2/3
f 189/1/3 186/1/3 185/1/3
f 190/1/3 186/1/3 189/1/3
f 191/1/3 188/1/3 187/1/3
f 192/1/3 188/1/3 191/1/3
f 195/1/3 194/1/3 193/1/3
f 197/1/3 195/1/3 193/1/3
f 197/1/3 196/1/3 195/1/3
f 198/1/3 196/1/3 197/1/3
f 199/1/4 200/1/4 201/1/4
f 199/1/4 201/1/4 203/1/4
f 201/1/4 202/1/4 203/1/4
f 203/1/4 202/1/4 204/1/4
f 205/1/4 206/1/4 209/1/4
f 209/1/4 206/1/4 210/1/4
f 207/1/4 208/1/4 211/1/4
f 211/1/4 208/1/4 212/1/4
f 213/2/4 214/2/4 215/2/4
f 215/2/4 214/2/4 216/2/4
f 219/2/4 220/2/4 223/2/4
f 223/2/4 220/2/4 224/2/4
f 217/2/4 218/2/4 226/2/4
f 225/2/4 226/2/4 227/2/4
f 226/2/4 218/2/4 228/2/4
f 227/2/4 226/2/4 228/2/4
f 219/2/4 223/2/4 231/2/4
f 219/2/4 231/2/4 233/2/4
f 231/2/4 232/2/4 233/2/4
f 233/2/4 232/2/4 234/2/4
f 221/2/4 222/2/4 235/2/4
f 235/2/4 222/2/4 236/2/4
f 234/2/4 235/2/4 237/2/4
f 237/2/4 235/2/4 238/2/4
f 229/2/4 230/2/4 239/2/4
f 239/2/4 230/2/4 240/2/4
f 240/2/4 230/2/4 241/2/4
f 241/2/4 230/2/4 242/2/4
f 219/2/4 233/2/4 243/2/4
f 243/2/4 233/2/4 244/2/4
f 245/2/4 246/2/4 250/2/4
f 249/2/4 250/2/4 251/2/4
f 250/2/4 246/2/4 252/2/4
f 251/2/4 250/2/4 252/2/4
f 247/2/4 248/2/4 253/2/4
f 253/2/4 248/2/4 254/2/4
f 252/2/4 246/2/4 255/2/4
f 255/2/4 246/2/4 256/2/4
f 257/2/4 258/2/4 259/2/4
f 259/2/4 258/2/4 260/2/4
f 261/1/4 262/1/4 263/1/4
f 263/1/4 264/1/4 265/1/4
f 261/1/4 263/1/4 267/1/4
f 265/1/4 266/1/4 267/1/4
f 263/1/4 265/1/4 267/1/4
f 267/1/4 266/1/4 268/1/4
f 271/1/5 270/1/5 269/1/5
f 272/1/5 270/1/5 271/1/5
f 274/1/5 270/1/5 272/1/5
f 275/1/5 274/1/5 273/1/5
f 276/1/5 270/1/5 274/1/5
f 276/1/5 274/1/5 275/1/5
f 280/2/5 278/2/5 277/2/5
f 281/2/5 278/2/5 280/2/5
f 283/2/5 280/2/5 279/2/5
f 283/2/5 282/2/5 281/2/5
f 283/2/5 281/2/5 280/2/5
f 284/2/5 282/2/5 283/2/5
f 285/2/5 282/2/5 284/2/5
f 286/2/5 282/2/5 285/2/5
f 287/2/5 285/2/5 284/2/5
f 288/2/5 285/2/5 287/2/5
f 293/2/5 290/2/5 289/2/5
f 294/2/5 290/2/5 293/2/5
f 295/2/5 292/2/5 291/2/5
f 296/2/5 292/2/5 295/2/5
f 303/2/5 298/2/5 297/2/5
f 304/2/5 298/2/5 303/2/5
f 305/2/5 302/2/5 301/2/5
f 305/2/5 300/2/5 299/2/5
f 305/2/5 301/2/5 300/2/5
f 306/2/5 302/2/5 305/2/5
f 311/2/5 308/2/5 307/2/5
f 312/2/5 308/2/5 311/2/5
f 313/2/5 310/2/5 309/2/5
f 314/2/5 310/2/5 313/2/5
f 315/2/5 310/2/5 314/2/5
f 316/2/5 310/2/5 315/2/5
f 319/2/5 318/2/5 317/2/5
f 320/2/5 318/2/5 319/2/5
f 323/2/5 322/2/5 321/2/5
f 324/2/5 322/2/5 323/2/5
f 325/2/5 322/2/5 324/2/5
f 326/2/5 322/2/5 325/2/5
f 329/2/5 325/2/5 324/2/5
f 330/2/5 325/2/5 329/2/5
f 331/2/5 327/2/5 326/2/5
f 332/2/5 327/2/5 331/2/5
f 333/2/5 330/2/5 329/2/5
f 333/2/5 329/2/5 328/2/5
f 333/2/5 331/2/5 330/2/5
f 334/2/5 331/2/5 333/2/5
f 335/1/6 336/1/6 337/1/6
f 337/1/6 336/1/6 338/1/6
f 339/2/6 340/2/6 341/2/6
f 341/2/6 340/2/6 342/2/6
f 343/1/6 344/1/6 345/1/6
f 345/1/6 344/1/6 346/1/6
f 347/2/6 348/2/6 351/2/6
f 349/2/6 350/2/6 351/2/6
f 348/2/6 349/2/6 351/2/6
f 351/2/6 350/2/6 352/2/6
f 353/2/6 354/2/6 355/2/6
f 355/2/6 354/2/6 356/2/6
f 356/2/6 354/2/6 357/2/6
f 357/2/6 354/2/6 358/2/6
f 359/1/6 360/1/6 361/1/6
f 361/1/6 360/1/6 362/1/6
f 363/1/6 364/1/6 365/1/6
f 365/1/6 364/1/6 366/1/6
f 367/2/6 368/2/6 371/2/6
f 371/2/6 368/2/6 372/2/6
f 369/2/6 370/2/6 373/2/6
f 373/2/6 370/2/6 374/2/6
f 375/1/6 376/1/6 377/1/6
f 377/1/6 376/1/6 378/1/6
f 379/1/6 380/1/6 381/1/6
f 381/1/6 380/1/6 382/1/6
f 383/1/6 384/1/6 385/1/6
f 385/1/6 384/1/6 386/1/6
f 387/2/6 388/2/6 389/2/6
f 389/2/6 388/2/6 390/2/6
f 390/2/6 391/2/6 393/2/6
f 393/2/6 391/2/6 394/2/6
f 392/2/6 393/2/6 395/2/6
f 395/2/6 393/2/6 396/2/6
f 397/2/6 398/2/6 399/2/6
f 399/2/6 398/2/6 400/2/6
