# MagicaVoxel @ Ephtracy

# group
g flak38single_gun

# material
mtllib flak38single_gun.mtl
usemtl palette

# normals
vn -1 0 0
vn 1 0 0
vn 0 0 1
vn 0 0 -1
vn 0 -1 0
vn 0 1 0

# texcoords
vt 0.986328 0.5
vt 0.994141 0.5

# verts
v -5.5 2 0.5
v -5.5 2 -0.5
v -5.5 3 0.5
v -5.5 3 -0.5
v -0.5 0 2.5
v -0.5 0 -2.5
v -0.5 2 0.5
v -0.5 2 -0.5
v -0.5 3 0.5
v -0.5 3 -0.5
v -0.5 4 2.5
v -0.5 4 -2.5
v 0.5 0 4.5
v 0.5 0 2.5
v 0.5 0 -2.5
v 0.5 0 -4.5
v 0.5 4 4.5
v 0.5 4 2.5
v 0.5 4 -2.5
v 0.5 4 -4.5
v 0.5 5 2.5
v 0.5 5 -2.5
v 2.5 2 2.5
v 2.5 2 0.5
v 2.5 3 2.5
v 2.5 3 0.5
v 0.5 0 1.5
v 0.5 0 -1.5
v 0.5 2 0.5
v 0.5 2 -0.5
v 0.5 3 1.5
v 0.5 3 0.5
v 0.5 3 -0.5
v 0.5 3 -1.5
v 1.5 0 4.5
v 1.5 0 1.5
v 1.5 0 -1.5
v 1.5 0 -4.5
v 1.5 3 1.5
v 1.5 3 0.5
v 1.5 3 -0.5
v 1.5 3 -1.5
v 1.5 4 4.5
v 1.5 4 2.5
v 1.5 4 -2.5
v 1.5 4 -4.5
v 2.5 4 2.5
v 2.5 4 -2.5
v 2.5 5 2.5
v 2.5 5 -2.5
v 4.5 2 2.5
v 4.5 2 0.5
v 4.5 3 2.5
v 4.5 3 0.5
v 5.5 2 0.5
v 5.5 2 -0.5
v 5.5 3 0.5
v 5.5 3 -0.5
v 0.5 0 4.5
v 0.5 4 4.5
v 1.5 0 4.5
v 1.5 4 4.5
v -0.5 0 2.5
v -0.5 4 2.5
v 0.5 0 2.5
v 0.5 4 2.5
v 0.5 5 2.5
v 1.5 4 2.5
v 2.5 2 2.5
v 2.5 3 2.5
v 2.5 4 2.5
v 2.5 5 2.5
v 4.5 2 2.5
v 4.5 3 2.5
v -5.5 2 0.5
v -5.5 3 0.5
v -0.5 2 0.5
v -0.5 3 0.5
v 0.5 2 0.5
v 0.5 3 0.5
v 1.5 3 0.5
v 2.5 2 0.5
v 2.5 3 0.5
v 4.5 2 0.5
v 4.5 3 0.5
v 5.5 2 0.5
v 5.5 3 0.5
v 0.5 0 -1.5
v 0.5 3 -1.5
v 1.5 0 -1.5
v 1.5 3 -1.5
v 0.5 0 1.5
v 0.5 3 1.5
v 1.5 0 1.5
v 1.5 3 1.5
v -5.5 2 -0.5
v -5.5 3 -0.5
v -0.5 2 -0.5
v -0.5 3 -0.5
v 0.5 2 -0.5
v 0.5 3 -0.5
v 1.5 3 -0.5
v 5.5 2 -0.5
v 5.5 3 -0.5
v -0.5 0 -2.5
v -0.5 4 -2.5
v 0.5 0 -2.5
v 0.5 4 -2.5
v 0.5 5 -2.5
v 1.5 4 -2.5
v 2.5 4 -2.5
v 2.5 5 -2.5
v 0.5 0 -4.5
v 0.5 4 -4.5
v 1.5 0 -4.5
v 1.5 4 -4.5
v 0.5 0 4.5
v 1.5 0 4.5
v -0.5 0 2.5
v 0.5 0 2.5
v 0.5 0 1.5
v 1.5 0 1.5
v 0.5 0 -1.5
v 1.5 0 -1.5
v -0.5 0 -2.5
v 0.5 0 -2.5
v 0.5 0 -4.5
v 1.5 0 -4.5
v 2.5 2 2.5
v 4.5 2 2.5
v -5.5 2 0.5
v -0.5 2 0.5
v 0.5 2 0.5
v 2.5 2 0.5
v 4.5 2 0.5
v 5.5 2 0.5
v -5.5 2 -0.5
v -0.5 2 -0.5
v 0.5 2 -0.5
v 5.5 2 -0.5
v 0.5 3 1.5
v 1.5 3 1.5
v 0.5 3 0.5
v 1.5 3 0.5
v 0.5 3 -0.5
v 1.5 3 -0.5
v 0.5 3 -1.5
v 1.5 3 -1.5
v 1.5 4 2.5
v 2.5 4 2.5
v 1.5 4 -2.5
v 2.5 4 -2.5
v 2.5 3 2.5
v 4.5 3 2.5
v -5.5 3 0.5
v -0.5 3 0.5
v 1.5 3 0.5
v 2.5 3 0.5
v 4.5 3 0.5
v 5.5 3 0.5
v -5.5 3 -0.5
v -0.5 3 -0.5
v 1.5 3 -0.5
v 5.5 3 -0.5
v 0.5 4 4.5
v 1.5 4 4.5
v -0.5 4 2.5
v 0.5 4 2.5
v 1.5 4 2.5
v -0.5 4 -2.5
v 0.5 4 -2.5
v 1.5 4 -2.5
v 0.5 4 -4.5
v 1.5 4 -4.5
v 0.5 5 2.5
v 2.5 5 2.5
v 0.5 5 -2.5
v 2.5 5 -2.5

# faces
f 3/2/1 2/2/1 1/2/1
f 4/2/1 2/2/1 3/2/1
f 7/2/1 6/2/1 5/2/1
f 8/2/1 6/2/1 7/2/1
f 9/2/1 7/2/1 5/2/1
f 10/2/1 6/2/1 8/2/1
f 11/2/1 9/2/1 5/2/1
f 11/2/1 10/2/1 9/2/1
f 12/2/1 6/2/1 10/2/1
f 12/2/1 10/2/1 11/2/1
f 17/2/1 14/2/1 13/2/1
f 18/2/1 14/2/1 17/2/1
f 19/2/1 16/2/1 15/2/1
f 20/2/1 16/2/1 19/2/1
f 21/2/1 19/2/1 18/2/1
f 22/2/1 19/2/1 21/2/1
f 25/1/1 24/1/1 23/1/1
f 26/1/1 24/1/1 25/1/1
f 27/2/2 28/2/2 29/2/2
f 29/2/2 28/2/2 30/2/2
f 27/2/2 29/2/2 31/2/2
f 31/2/2 29/2/2 32/2/2
f 30/2/2 28/2/2 33/2/2
f 33/2/2 28/2/2 34/2/2
f 35/2/2 36/2/2 39/2/2
f 37/2/2 38/2/2 42/2/2
f 40/2/2 41/2/2 43/2/2
f 41/2/2 42/2/2 43/2/2
f 35/2/2 39/2/2 43/2/2
f 39/2/2 40/2/2 43/2/2
f 43/2/2 42/2/2 44/2/2
f 42/2/2 38/2/2 45/2/2
f 44/2/2 42/2/2 45/2/2
f 45/2/2 38/2/2 46/2/2
f 47/2/2 48/2/2 49/2/2
f 49/2/2 48/2/2 50/2/2
f 51/1/2 52/1/2 53/1/2
f 53/1/2 52/1/2 54/1/2
f 55/2/2 56/2/2 57/2/2
f 57/2/2 56/2/2 58/2/2
f 61/2/3 60/2/3 59/2/3
f 62/2/3 60/2/3 61/2/3
f 65/2/3 64/2/3 63/2/3
f 66/2/3 64/2/3 65/2/3
f 68/2/3 67/2/3 66/2/3
f 71/2/3 67/2/3 68/2/3
f 72/2/3 67/2/3 71/2/3
f 73/1/3 70/1/3 69/1/3
f 74/1/3 70/1/3 73/1/3
f 77/2/3 76/2/3 75/2/3
f 78/2/3 76/2/3 77/2/3
f 81/2/3 80/2/3 79/2/3
f 82/2/3 81/2/3 79/2/3
f 83/2/3 81/2/3 82/2/3
f 86/2/3 85/2/3 84/2/3
f 87/2/3 85/2/3 86/2/3
f 90/2/3 89/2/3 88/2/3
f 91/2/3 89/2/3 90/2/3
f 92/2/4 93/2/4 94/2/4
f 94/2/4 93/2/4 95/2/4
f 96/2/4 97/2/4 98/2/4
f 98/2/4 97/2/4 99/2/4
f 100/2/4 101/2/4 102/2/4
f 100/2/4 102/2/4 103/2/4
f 103/2/4 102/2/4 104/2/4
f 105/2/4 106/2/4 107/2/4
f 107/2/4 106/2/4 108/2/4
f 108/2/4 109/2/4 110/2/4
f 110/2/4 109/2/4 111/2/4
f 111/2/4 109/2/4 112/2/4
f 113/2/4 114/2/4 115/2/4
f 115/2/4 114/2/4 116/2/4
f 120/2/5 118/2/5 117/2/5
f 121/2/5 118/2/5 120/2/5
f 121/2/5 120/2/5 119/2/5
f 122/2/5 118/2/5 121/2/5
f 123/2/5 121/2/5 119/2/5
f 125/2/5 123/2/5 119/2/5
f 125/2/5 124/2/5 123/2/5
f 126/2/5 124/2/5 125/2/5
f 127/2/5 124/2/5 126/2/5
f 128/2/5 124/2/5 127/2/5
f 134/1/5 130/1/5 129/1/5
f 135/1/5 130/1/5 134/1/5
f 137/2/5 132/2/5 131/2/5
f 138/2/5 132/2/5 137/2/5
f 139/2/5 136/2/5 135/2/5
f 139/2/5 134/2/5 133/2/5
f 139/2/5 135/2/5 134/2/5
f 140/2/5 136/2/5 139/2/5
f 143/2/5 142/2/5 141/2/5
f 144/2/5 142/2/5 143/2/5
f 147/2/5 146/2/5 145/2/5
f 148/2/5 146/2/5 147/2/5
f 151/2/5 150/2/5 149/2/5
f 152/2/5 150/2/5 151/2/5
f 153/1/6 154/1/6 158/1/6
f 158/1/6 154/1/6 159/1/6
f 155/2/6 156/2/6 161/2/6
f 161/2/6 156/2/6 162/2/6
f 159/2/6 160/2/6 163/2/6
f 157/2/6 158/2/6 163/2/6
f 158/2/6 159/2/6 163/2/6
f 163/2/6 160/2/6 164/2/6
f 165/2/6 166/2/6 168/2/6
f 168/2/6 166/2/6 169/2/6
f 167/2/6 168/2/6 170/2/6
f 170/2/6 168/2/6 171/2/6
f 171/2/6 172/2/6 173/2/6
f 173/2/6 172/2/6 174/2/6
f 175/2/6 176/2/6 177/2/6
f 177/2/6 176/2/6 178/2/6
